<?xml version="1.0" encoding="UTF-8" standalone="no"?>
<!-- Created with Inkscape (http://www.inkscape.org/) -->

<svg
   version="1.1"
   id="svg1"
   width="1536"
   height="1024"
   viewBox="0 0 1536 1024"
   xml:space="preserve"
   xmlns="http://www.w3.org/2000/svg"
   xmlns:svg="http://www.w3.org/2000/svg"><defs
     id="defs1" /><g
     id="g1"><rect
       style="fill:#c5ebfe;fill-opacity:1"
       id="rect1"
       width="1568.9357"
       height="1058.7322"
       x="-14.37193"
       y="-16.767252" /><path
       style="fill:#ffffff;fill-opacity:1"
       id="rect2"
       width="870.6994"
       height="935.37311"
       x="706.61987"
       y="154.49825"
       d="m 723.02782,154.49825 854.29148,0 V 1089.8714 H 706.61987 V 170.9062 a 16.407951,16.407951 135 0 1 16.40795,-16.40795 z" /><circle
       style="fill:#ff341b;fill-opacity:1"
       id="path2"
       cx="746.7312"
       cy="190.97011"
       r="13.549985" /><circle
       style="fill:#ffc600;fill-opacity:1"
       id="circle2"
       cx="788.43097"
       cy="190.97011"
       r="13.549985" /><circle
       style="fill:#48e554;fill-opacity:1"
       id="circle3"
       cx="830.03101"
       cy="190.97011"
       r="13.549985" /><path
       style="fill:#f0f0f0;fill-opacity:1;stroke-width:1.05147"
       id="rect3"
       width="687.21869"
       height="41.319298"
       x="879.68188"
       y="171.2655"
       d="m 892.17001,171.2655 h 674.73059 v 41.3193 H 890.76108 a 11.079199,11.079199 45 0 1 -11.0792,-11.0792 v -17.75197 a 12.488123,12.488123 135 0 1 12.48813,-12.48813 z" /><rect
       style="fill:#c9cdcd;fill-opacity:1;stroke-width:4.77603"
       id="rect4"
       width="846.89587"
       height="1.5719298"
       x="706.61993"
       y="228.69707" /><path
       d="m 832.59398,832.35553 v -16.22487 h -2.51862 v 6.85875 h -8.33169 v -6.85875 h -2.51862 v 16.22487 h 2.51862 v -7.18482 h 8.33169 v 7.18482 z m 7.63457,-10.08573 c 1.69782,0 2.8447,1.27055 2.90092,3.08081 h -5.91427 c 0.12368,-1.78777 1.31553,-3.08081 3.01335,-3.08081 z m 2.88967,6.61138 c -0.32607,1.03443 -1.34926,1.73155 -2.73225,1.73155 -1.94519,0 -3.18201,-1.3605 -3.18201,-3.41813 v -0.14617 h 8.35418 v -0.83204 c 0,-3.58679 -2.04638,-5.90302 -5.32959,-5.90302 -3.33942,0 -5.47575,2.47365 -5.47575,6.18412 0,3.73295 2.1026,6.08292 5.57695,6.08292 2.70977,0 4.75615,-1.54041 5.09346,-3.69923 z m 5.43078,7.88194 c 2.4624,0 3.62052,-0.922 4.63246,-3.78918 l 4.44132,-12.44694 h -2.56359 l -3.00211,9.62474 h -0.0337 l -3.00211,-9.62474 h -2.63106 l 4.27266,11.83977 c 0,0.0113 -0.21363,0.70837 -0.21363,0.73085 -0.37105,1.21434 -0.96697,1.68658 -2.1026,1.68658 -0.20239,0 -0.60717,0 -0.78707,-0.045 v 1.96767 c 0.1799,0.0337 0.79831,0.0562 0.98946,0.0562 z m 10.58046,-1.06817 1.52916,-5.93675 h -2.45116 l -1.01194,5.93675 z m 11.92972,-5.05973 c -1.30429,0 -2.15882,-0.67463 -2.15882,-1.70906 0,-1.01195 0.8208,-1.65285 2.27126,-1.75404 l 2.91216,-0.17991 v 0.93324 c 0,1.54041 -1.32678,2.70977 -3.0246,2.70977 z m -0.67463,1.9227 c 1.55165,0 3.04708,-0.83205 3.73296,-2.14758 h 0.0562 v 1.94519 h 2.32747 v -8.15179 c 0,-2.37245 -1.83274,-3.89037 -4.69993,-3.89037 -2.9234,0 -4.7449,1.57414 -4.87983,3.71047 h 2.29375 c 0.21363,-1.05692 1.09065,-1.73155 2.49613,-1.73155 1.48419,0 2.37246,0.78707 2.37246,2.1026 v 0.91075 l -3.23823,0.19114 c -2.81096,0.15742 -4.39635,1.42797 -4.39635,3.49684 0,2.12509 1.61912,3.5643 3.93535,3.5643 z m 8.46662,-0.20239 h 2.42867 v -7.08362 c 0,-1.67534 0.96697,-2.72101 2.52986,-2.72101 0.47224,0 0.89951,0.0562 1.09066,0.13492 v -2.26001 c -0.17991,-0.0337 -0.48349,-0.0899 -0.83205,-0.0899 -1.39424,0 -2.45116,0.8208 -2.84469,2.20379 h -0.0562 v -2.0127 h -2.31623 z m 11.99718,-10.08573 c 1.69782,0 2.8447,1.27055 2.90091,3.08081 H 887.835 c 0.12368,-1.78777 1.31553,-3.08081 3.01335,-3.08081 z m 2.88967,6.61138 c -0.32607,1.03443 -1.34926,1.73155 -2.73225,1.73155 -1.94519,0 -3.18201,-1.3605 -3.18201,-3.41813 v -0.14617 h 8.35418 v -0.83204 c 0,-3.58679 -2.04638,-5.90302 -5.32959,-5.90302 -3.33942,0 -5.47575,2.47365 -5.47575,6.18412 0,3.73295 2.1026,6.08292 5.57695,6.08292 2.70976,0 4.75614,-1.54041 5.09346,-3.69923 z m 10.1532,7.88194 c 2.4624,0 3.62052,-0.922 4.63247,-3.78918 L 912.965,820.527 h -2.56359 l -3.00211,9.62474 h -0.0337 l -3.00211,-9.62474 h -2.63106 l 4.27266,11.83977 c 0,0.0113 -0.21363,0.70837 -0.21363,0.73085 -0.37105,1.21434 -0.96697,1.68658 -2.1026,1.68658 -0.20239,0 -0.60717,0 -0.78707,-0.045 v 1.96767 c 0.1799,0.0337 0.79831,0.0562 0.98946,0.0562 z m 15.23541,-4.18271 c 3.38439,0 5.61068,-2.32748 5.61068,-6.13914 0,-3.80042 -2.23753,-6.1279 -5.61068,-6.1279 -3.37316,0 -5.61068,2.32748 -5.61068,6.1279 0,3.81166 2.22628,6.13914 5.61068,6.13914 z m 0,-2.00141 c -1.90021,0 -3.13704,-1.50667 -3.13704,-4.13773 0,-2.61982 1.23683,-4.1265 3.13704,-4.1265 1.90021,0 3.13703,1.50668 3.13703,4.1265 0,2.63106 -1.22558,4.13773 -3.13703,4.13773 z m 17.63035,-10.052 h -2.42867 v 6.89248 c 0,1.84399 -1.05692,3.05833 -2.81096,3.05833 -1.67533,0 -2.52987,-0.96697 -2.52987,-2.76599 V 820.527 h -2.42867 v 7.65706 c 0,2.70977 1.57414,4.3851 4.14898,4.3851 1.81026,0 3.01335,-0.79831 3.6655,-2.21504 h 0.0562 v 2.00141 h 2.32747 z m 9.56852,0 h -2.42867 v 12.37948 c 0,1.19185 -0.44976,1.6416 -1.65285,1.6416 -0.045,0 -0.30358,-0.0112 -0.34856,-0.0112 v 1.91145 c 0.0675,0.0225 0.44976,0.0225 0.56219,0.0225 2.61982,0 3.86789,-1.14687 3.86789,-3.55306 z m -1.21434,-1.73155 c 0.78707,0 1.41673,-0.61841 1.41673,-1.38299 0,-0.77583 -0.62966,-1.39424 -1.41673,-1.39424 -0.77582,0 -1.40548,0.61841 -1.40548,1.39424 0,0.76458 0.62966,1.38299 1.40548,1.38299 z m 8.78145,13.78496 c 3.3844,0 5.61068,-2.32748 5.61068,-6.13914 0,-3.80042 -2.23753,-6.1279 -5.61068,-6.1279 -3.37315,0 -5.61068,2.32748 -5.61068,6.1279 0,3.81166 2.22628,6.13914 5.61068,6.13914 z m 0,-2.00141 c -1.90021,0 -3.13703,-1.50667 -3.13703,-4.13773 0,-2.61982 1.23682,-4.1265 3.13703,-4.1265 1.90021,0 3.13703,1.50668 3.13703,4.1265 0,2.63106 -1.22558,4.13773 -3.13703,4.13773 z m 7.56711,1.77653 h 2.42867 V 820.527 h -2.42867 z m 1.21433,-13.56008 c 0.78707,0 1.41673,-0.61841 1.41673,-1.38299 0,-0.77583 -0.62966,-1.39424 -1.41673,-1.39424 -0.77582,0 -1.40548,0.61841 -1.40548,1.39424 0,0.76458 0.62966,1.38299 1.40548,1.38299 z m 3.69922,13.56008 h 2.42867 v -6.89248 c 0,-1.83275 1.1019,-3.04708 2.81097,-3.04708 1.68657,0 2.51862,0.97821 2.51862,2.75474 v 7.18482 h 2.43991 v -7.65706 c 0,-2.70977 -1.49543,-4.37386 -4.104,-4.37386 -1.82151,0 -3.08082,0.83205 -3.72172,2.18131 h -0.0562 V 820.527 h -2.31624 z m 12.61561,0 h 2.42867 V 820.527 h -2.42867 z m 1.21433,-13.56008 c 0.78707,0 1.41673,-0.61841 1.41673,-1.38299 0,-0.77583 -0.62966,-1.39424 -1.41673,-1.39424 -0.77582,0 -1.40548,0.61841 -1.40548,1.39424 0,0.76458 0.62966,1.38299 1.40548,1.38299 z m 3.69922,13.56008 h 2.42867 v -6.89248 c 0,-1.83275 1.1019,-3.04708 2.81097,-3.04708 1.68657,0 2.51862,0.97821 2.51862,2.75474 v 7.18482 h 2.43991 v -7.65706 c 0,-2.70977 -1.49543,-4.37386 -4.104,-4.37386 -1.82151,0 -3.08082,0.83205 -3.72172,2.18131 h -0.0562 V 820.527 h -2.31623 z m 17.57417,-1.96767 c -1.86651,0 -3.08084,-1.50668 -3.08084,-3.98033 0,-2.4624 1.21433,-4.02529 3.08084,-4.02529 1.9002,0 3.1482,1.59662 3.1482,4.02529 0,2.43992 -1.248,3.98033 -3.1482,3.98033 z m 0.023,6.42023 c 3.3731,0 5.5544,-1.84399 5.5544,-4.66619 V 820.527 h -2.3612 v 2.0239 h -0.045 c -0.7196,-1.37175 -2.0913,-2.21504 -3.7667,-2.21504 -3.03579,0 -4.96973,2.33872 -4.96973,6.06043 0,3.68798 1.94518,6.00422 4.91353,6.00422 1.6866,0 3.0808,-0.84329 3.7442,-2.12509 h 0.045 v 1.94518 c 0,1.61912 -1.1244,2.69853 -3.0246,2.69853 -1.383,0 -2.46239,-0.65215 -2.81095,-1.6416 h -2.43992 c 0.30359,2.04638 2.37246,3.53056 5.16097,3.53056 z m 13.3239,-19.08081 v 2.79972 h -1.7203 v 1.9227 h 1.7203 v 6.79128 c 0,2.28251 0.9333,3.19326 3.3282,3.19326 0.5397,0 1.0794,-0.045 1.3493,-0.11244 v -1.9227 c -0.1575,0.0337 -0.551,0.0562 -0.7984,0.0562 -0.9894,0 -1.4392,-0.461 -1.4392,-1.48419 v -6.52143 h 2.2488 v -1.9227 h -2.2488 v -2.79972 z m 6.7688,14.62825 h 2.4287 v -6.83626 c 0,-1.86648 1.1019,-3.1033 2.9009,-3.1033 1.7091,0 2.5861,1.04568 2.5861,2.78847 v 7.15109 h 2.4399 v -7.62333 c 0,-2.67603 -1.5517,-4.40759 -4.149,-4.40759 -1.799,0 -3.092,0.79832 -3.7442,2.18131 h -0.056 v -6.37526 h -2.4062 z m 17.6416,-10.08573 c 1.6978,0 2.8447,1.27055 2.9009,3.08081 h -5.9142 c 0.1236,-1.78777 1.3155,-3.08081 3.0133,-3.08081 z m 2.8897,6.61138 c -0.3261,1.03443 -1.3493,1.73155 -2.7323,1.73155 -1.9452,0 -3.182,-1.3605 -3.182,-3.41813 v -0.14617 h 8.3542 v -0.83204 c 0,-3.58679 -2.0464,-5.90302 -5.3296,-5.90302 -3.3394,0 -5.4757,2.47365 -5.4757,6.18412 0,3.73295 2.1026,6.08292 5.5769,6.08292 2.7098,0 4.7561,-1.54041 5.0935,-3.69923 z m 8.9838,3.47435 h 2.4287 v -7.08362 c 0,-1.67534 0.967,-2.72101 2.5299,-2.72101 0.4722,0 0.8995,0.0562 1.0906,0.13492 v -2.26001 c -0.1799,-0.0337 -0.4835,-0.0899 -0.832,-0.0899 -1.3943,0 -2.4512,0.8208 -2.8447,2.20379 h -0.056 v -2.0127 h -2.3162 z m 12.1321,0.22488 c 3.3844,0 5.6107,-2.32748 5.6107,-6.13914 0,-3.80042 -2.2375,-6.1279 -5.6107,-6.1279 -3.3731,0 -5.6107,2.32748 -5.6107,6.1279 0,3.81166 2.2263,6.13914 5.6107,6.13914 z m 0,-2.00141 c -1.9002,0 -3.137,-1.50667 -3.137,-4.13773 0,-2.61982 1.2368,-4.1265 3.137,-4.1265 1.9002,0 3.137,1.50668 3.137,4.1265 0,2.63106 -1.2255,4.13773 -3.137,4.13773 z m 13.785,1.97892 c 3.0021,0 4.936,-2.36121 4.936,-6.11665 0,-3.7442 -1.9452,-6.10541 -4.9248,-6.10541 -1.6753,0 -3.0246,0.83204 -3.7329,2.20379 h -0.056 v -6.40899 h -2.4287 v 16.22487 h 2.3612 v -2.01265 h 0.045 c 0.7308,1.37175 2.0688,2.21504 3.8004,2.21504 z m -0.6522,-10.17568 c 1.9115,0 3.0921,1.57414 3.0921,4.05903 0,2.50737 -1.1806,4.05902 -3.0921,4.05902 -1.844,0 -3.137,-1.59662 -3.137,-4.05902 0,-2.43992 1.293,-4.05903 3.137,-4.05903 z"
       id="text170"
       style="font-weight:500;font-size:23.0274px;font-family:'SF Pro Display';-inkscape-font-specification:'SF Pro Display Medium';fill:#42515b;stroke-width:0.507828;stroke-linejoin:round"
       transform="scale(1.0017378,0.99826519)"
       aria-label="Hey, are you joining the rob" /><path
       d="m 838.00693,897.823 v 16.6112 h 5.85939 c 4.94998,0 7.8624,-3.0851 7.8624,-8.33437 0,-5.23777 -2.92393,-8.27683 -7.8624,-8.27683 z m 2.57859,2.22174 h 3.03906 c 3.51103,0 5.46799,2.16417 5.46799,6.07811 0,3.92544 -1.94545,6.07811 -5.46799,6.07811 h -3.03906 z m 13.37645,14.38946 h 2.4865 v -12.11017 h -2.4865 z m 1.24325,-13.88295 c 0.80581,0 1.45046,-0.63314 1.45046,-1.41593 0,-0.79429 -0.64465,-1.42743 -1.45046,-1.42743 -0.7943,0 -1.43895,0.63314 -1.43895,1.42743 0,0.78279 0.64465,1.41593 1.43895,1.41593 z m 8.33438,14.09016 c 1.76127,0 3.14266,-0.88639 3.85637,-2.26778 h 0.046 v 2.06057 h 2.41743 V 897.823 h -2.49801 v 6.51555 h -0.0461 c -0.67918,-1.33534 -2.06057,-2.21022 -3.79882,-2.21022 -3.03905,0 -5.06509,2.42894 -5.06509,6.25079 0,3.82184 2.02604,6.26229 5.08812,6.26229 z m 0.65616,-10.41797 c 1.91092,0 3.1887,1.64615 3.1887,4.15568 0,2.53254 -1.27778,4.15567 -3.1887,4.15567 -1.96848,0 -3.20022,-1.6001 -3.20022,-4.15567 0,-2.54406 1.23174,-4.15568 3.20022,-4.15568 z m 14.18226,14.7233 c 2.52103,0 3.70672,-0.94395 4.74276,-3.8794 l 4.54707,-12.74331 h -2.62463 l -3.07359,9.85391 h -0.0345 l -3.07359,-9.85391 h -2.69371 l 4.3744,12.12169 c 0,0.0115 -0.21872,0.72522 -0.21872,0.74825 -0.37988,1.24325 -0.98999,1.72673 -2.15266,1.72673 -0.20721,0 -0.62163,0 -0.80581,-0.046 v 2.01452 c 0.18418,0.0345 0.81732,0.0576 1.01302,0.0576 z m 15.59818,-4.2823 c 3.46498,0 5.74427,-2.3829 5.74427,-6.28532 0,-3.89091 -2.2908,-6.27381 -5.74427,-6.27381 -3.45347,0 -5.74428,2.3829 -5.74428,6.27381 0,3.90242 2.27929,6.28532 5.74428,6.28532 z m 0,-2.04906 c -1.94546,0 -3.21173,-1.54256 -3.21173,-4.23626 0,-2.6822 1.26627,-4.22475 3.21173,-4.22475 1.94545,0 3.21173,1.54255 3.21173,4.22475 0,2.6937 -1.25476,4.23626 -3.21173,4.23626 z m 18.05014,-10.29135 h -2.4865 v 7.05659 c 0,1.8879 -1.08209,3.13115 -2.87789,3.13115 -1.71523,0 -2.59011,-0.98999 -2.59011,-2.83185 v -7.35589 h -2.4865 v 7.83938 c 0,2.77429 1.61162,4.48951 4.24777,4.48951 1.85337,0 3.08511,-0.81732 3.75278,-2.26778 h 0.0576 v 2.04906 h 2.3829 z m 7.9545,12.11017 h 2.49801 v -10.14169 h 2.41743 v -1.94546 h -2.45196 v -1.13964 c 0,-1.07058 0.50651,-1.61162 1.58859,-1.61162 0.33384,0 0.66767,0.023 0.90942,0.0691 V 897.823 c -0.32233,-0.0575 -0.88639,-0.11511 -1.3929,-0.11511 -2.46348,0 -3.56859,1.10511 -3.56859,3.45347 v 1.18569 h -1.66918 v 1.94546 h 1.66918 z m 6.95299,0 h 2.48649 v -12.11017 h -2.48649 z m 1.24324,-13.88295 c 0.80581,0 1.45046,-0.63314 1.45046,-1.41593 0,-0.79429 -0.64465,-1.42743 -1.45046,-1.42743 -0.79429,0 -1.43894,0.63314 -1.43894,1.42743 0,0.78279 0.64465,1.41593 1.43894,1.41593 z m 3.78732,13.88295 h 2.4865 v -7.05659 c 0,-1.87639 1.12813,-3.11964 2.87789,-3.11964 1.72674,0 2.57859,1.00151 2.57859,2.82034 v 7.35589 h 2.49802 v -7.83938 c 0,-2.77429 -1.53104,-4.478 -4.20173,-4.478 -1.86487,0 -3.15417,0.85186 -3.81033,2.23325 h -0.0576 v -2.02604 h -2.37138 z m 12.91598,0 h 2.4865 v -12.11017 h -2.4865 z m 1.24325,-13.88295 c 0.80581,0 1.45046,-0.63314 1.45046,-1.41593 0,-0.79429 -0.64465,-1.42743 -1.45046,-1.42743 -0.7943,0 -1.43894,0.63314 -1.43894,1.42743 0,0.78279 0.64464,1.41593 1.43894,1.41593 z m 3.56859,5.20323 c 0,1.6922 1.10511,2.83185 3.29231,3.36138 l 2.16418,0.52953 c 1.26627,0.32232 1.72673,0.74825 1.72673,1.51953 0,0.97848 -0.92092,1.60011 -2.41743,1.60011 -1.51953,0 -2.41743,-0.64465 -2.61313,-1.80732 h -2.46347 c 0.19569,2.22173 2.0951,3.70673 4.96149,3.70673 2.96998,0 5.03055,-1.51953 5.03055,-3.72975 0,-1.7843 -0.92092,-2.70522 -3.36138,-3.29231 l -2.03754,-0.47198 c -1.25477,-0.31081 -1.85337,-0.81732 -1.85337,-1.56557 0,-0.95546 0.8979,-1.61162 2.24476,-1.61162 1.3929,0 2.27929,0.67918 2.39441,1.77278 h 2.33684 c -0.0806,-2.15266 -1.96847,-3.66068 -4.66218,-3.66068 -2.83185,0 -4.74277,1.48499 -4.74277,3.64917 z m 11.70727,8.67972 h 2.4865 v -6.99903 c 0,-1.91092 1.12813,-3.1772 2.96998,-3.1772 1.74976,0 2.64766,1.07058 2.64766,2.85487 v 7.32136 h 2.49801 v -7.80484 c 0,-2.73976 -1.58859,-4.51254 -4.24777,-4.51254 -1.84185,0 -3.16568,0.81732 -3.83335,2.23325 h -0.0576 V 897.823 h -2.46347 z m 18.49909,-14.97655 v 2.86638 h -1.76127 v 1.96848 h 1.76127 v 6.95299 c 0,2.33685 0.95546,3.26929 3.40743,3.26929 0.55255,0 1.10511,-0.046 1.38139,-0.11512 v -1.96848 c -0.16117,0.0345 -0.56407,0.0576 -0.81733,0.0576 -1.01301,0 -1.47348,-0.47198 -1.47348,-1.51953 v -6.67671 h 2.30232 v -1.96848 h -2.30232 v -2.86638 z m 6.92998,14.97655 h 2.4865 v -6.99903 c 0,-1.91092 1.12813,-3.1772 2.96998,-3.1772 1.74976,0 2.64766,1.07058 2.64766,2.85487 v 7.32136 h 2.49801 v -7.80484 c 0,-2.73976 -1.58859,-4.51254 -4.24777,-4.51254 -1.84185,0 -3.16568,0.81732 -3.83335,2.23325 h -0.0576 V 897.823 h -2.46347 z m 18.06165,-10.32588 c 1.7382,0 2.9124,1.30081 2.97,3.15417 h -6.0551 c 0.1266,-1.83034 1.3469,-3.15417 3.0851,-3.15417 z m 2.9585,6.76881 c -0.3339,1.05906 -1.3814,1.77278 -2.7973,1.77278 -1.9915,0 -3.2578,-1.3929 -3.2578,-3.49952 v -0.14965 h 8.5531 v -0.85185 c 0,-3.6722 -2.0951,-6.04358 -5.4565,-6.04358 -3.4189,0 -5.60614,2.53255 -5.60614,6.33136 0,3.82185 2.15264,6.22777 5.70974,6.22777 2.7743,0 4.8694,-1.57709 5.2147,-3.78731 z m 14.3549,1.54255 c -1.9109,0 -3.1542,-1.54255 -3.1542,-4.0751 0,-2.52103 1.2433,-4.12114 3.1542,-4.12114 1.9455,0 3.2232,1.63464 3.2232,4.12114 0,2.49801 -1.2777,4.0751 -3.2232,4.0751 z m 0.023,6.57311 c 3.4535,0 5.6867,-1.8879 5.6867,-4.77731 v -11.89145 h -2.4174 v 2.07208 h -0.046 c -0.7368,-1.40441 -2.1412,-2.26778 -3.8564,-2.26778 -3.1081,0 -5.0881,2.39441 -5.0881,6.20474 0,3.7758 1.9915,6.14718 5.0305,6.14718 1.7268,0 3.1542,-0.86337 3.8334,-2.17569 h 0.046 v 1.99151 c 0,1.65766 -1.1511,2.76277 -3.0966,2.76277 -1.4159,0 -2.521,-0.66767 -2.8779,-1.68069 h -2.498 c 0.3108,2.09511 2.429,3.61464 5.2838,3.61464 z m 8.1387,-4.55859 h 2.4865 v -7.25229 c 0,-1.71522 0.99,-2.7858 2.5901,-2.7858 0.4835,0 0.9209,0.0576 1.1166,0.13814 v -2.31382 c -0.1841,-0.0345 -0.495,-0.0921 -0.8518,-0.0921 -1.4275,0 -2.5095,0.84035 -2.9124,2.25627 h -0.058 v -2.06057 h -2.3714 z m 12.421,0.23024 c 3.465,0 5.7443,-2.3829 5.7443,-6.28532 0,-3.89091 -2.2908,-6.27381 -5.7443,-6.27381 -3.4535,0 -5.7443,2.3829 -5.7443,6.27381 0,3.90242 2.2793,6.28532 5.7443,6.28532 z m 0,-2.04906 c -1.9455,0 -3.2117,-1.54256 -3.2117,-4.23626 0,-2.6822 1.2662,-4.22475 3.2117,-4.22475 1.9455,0 3.2117,1.54255 3.2117,4.22475 0,2.6937 -1.2547,4.23626 -3.2117,4.23626 z m 18.0501,-10.29135 h -2.4865 v 7.05659 c 0,1.8879 -1.082,3.13115 -2.8778,3.13115 -1.7153,0 -2.5902,-0.98999 -2.5902,-2.83185 v -7.35589 h -2.4865 v 7.83938 c 0,2.77429 1.6117,4.48951 4.2478,4.48951 1.8534,0 3.0851,-0.81732 3.7528,-2.26778 h 0.058 v 2.04906 h 2.3829 z m 8.7604,-0.1957 c -1.7498,0 -3.1427,0.88639 -3.8564,2.27929 h -0.046 v -2.08359 h -2.4059 v 16.1162 h 2.4865 v -5.99753 h 0.058 c 0.6907,1.34686 2.0721,2.19871 3.8103,2.19871 3.0391,0 5.0536,-2.42894 5.0536,-6.26229 0,-3.83336 -2.0261,-6.25079 -5.0996,-6.25079 z m -0.6562,10.40646 c -1.9109,0 -3.1772,-1.63464 -3.1772,-4.15567 0,-2.49801 1.2778,-4.15568 3.1772,-4.15568 1.9685,0 3.2002,1.62313 3.2002,4.15568 0,2.54405 -1.2317,4.15567 -3.2002,4.15567 z m 18.7523,-10.40646 c -1.7497,0 -3.1426,0.88639 -3.8563,2.27929 h -0.046 v -2.08359 h -2.4059 v 16.1162 h 2.4865 v -5.99753 h 0.058 c 0.6907,1.34686 2.072,2.19871 3.8103,2.19871 3.039,0 5.0536,-2.42894 5.0536,-6.26229 0,-3.83336 -2.0261,-6.25079 -5.0997,-6.25079 z m -0.6561,10.40646 c -1.9109,0 -3.1772,-1.63464 -3.1772,-4.15567 0,-2.49801 1.2778,-4.15568 3.1772,-4.15568 1.9685,0 3.2002,1.62313 3.2002,4.15568 0,2.54405 -1.2317,4.15567 -3.2002,4.15567 z m 7.6667,1.89941 h 2.4865 v -7.25229 c 0,-1.71522 0.99,-2.7858 2.5901,-2.7858 0.4835,0 0.9209,0.0576 1.1166,0.13814 v -2.31382 c -0.1842,-0.0345 -0.495,-0.0921 -0.8519,-0.0921 -1.4274,0 -2.5095,0.84035 -2.9124,2.25627 h -0.057 v -2.06057 h -2.3714 z m 12.421,0.23024 c 3.465,0 5.7443,-2.3829 5.7443,-6.28532 0,-3.89091 -2.2908,-6.27381 -5.7443,-6.27381 -3.4535,0 -5.7443,2.3829 -5.7443,6.27381 0,3.90242 2.2793,6.28532 5.7443,6.28532 z m 0,-2.04906 c -1.9455,0 -3.2117,-1.54256 -3.2117,-4.23626 0,-2.6822 1.2662,-4.22475 3.2117,-4.22475 1.9454,0 3.2117,1.54255 3.2117,4.22475 0,2.6937 -1.2547,4.23626 -3.2117,4.23626 z m 10.2338,-10.29135 h -2.4865 v 12.67424 c 0,1.22023 -0.4605,1.68069 -1.6922,1.68069 -0.046,0 -0.3108,-0.0115 -0.3569,-0.0115 v 1.95697 c 0.069,0.023 0.4605,0.023 0.5756,0.023 2.6822,0 3.96,-1.17418 3.96,-3.63766 z m -1.2433,-1.77278 c 0.8058,0 1.4505,-0.63314 1.4505,-1.41593 0,-0.79429 -0.6447,-1.42743 -1.4505,-1.42743 -0.7943,0 -1.4389,0.63314 -1.4389,1.42743 0,0.78279 0.6446,1.41593 1.4389,1.41593 z"
       id="text171"
       style="font-weight:500;font-size:23.5757px;font-family:'SF Pro Display';-inkscape-font-specification:'SF Pro Display Medium';fill:#42515b;stroke-width:0.519918;stroke-linejoin:round"
       transform="scale(0.97844256,1.0220324)"
       aria-label="Did you finish the group proj" /><path
       style="fill:#f0f0f0;fill-opacity:1;stroke-width:1.35558"
       id="rect10"
       width="490.44211"
       height="739.46991"
       x="1068.9122"
       y="367.68188"
       ry="0"
       rx="0"
       d="m 1086.5178,367.68188 h 472.8365 V 1107.1518 H 1068.9122 V 385.2875 a 17.605614,17.605614 135 0 1 17.6056,-17.60562 z"
       transform="translate(14)" /><path
       d="m 144.28972,476.75137 c 18.87261,0 31.71963,-9.94791 34.84612,-26.88779 h -12.67648 c -2.55804,9.89107 -10.6869,15.74613 -22.11279,15.74613 -15.06398,0 -24.61398,-12.10803 -24.61398,-31.26487 0,-18.9863 9.66369,-31.20802 24.55713,-31.20802 11.14166,0 19.89583,6.87827 22.16964,17.39463 h 12.61963 c -2.16012,-17.11041 -16.20088,-28.53629 -34.78927,-28.53629 -22.90862,0 -37.57468,16.37142 -37.57468,42.34968 0,26.1488 14.55237,42.40653 37.57468,42.40653 z m 65.76992,-10.0616 c -6.59405,0 -10.91429,-3.41072 -10.91429,-8.64048 0,-5.11606 4.14971,-8.35624 11.48274,-8.86785 l 14.72291,-0.90952 v 4.71815 c 0,7.78779 -6.70774,13.6997 -15.29136,13.6997 z m -3.41072,9.72053 c 7.84464,0 15.40506,-4.20655 18.87261,-10.85744 h 0.28423 v 9.83422 h 11.76696 V 434.1743 c 0,-11.99434 -9.26577,-19.66844 -23.7613,-19.66844 -14.77976,0 -23.98868,7.95833 -24.67082,18.75892 h 11.59642 c 1.08006,-5.34345 5.51399,-8.75416 12.61964,-8.75416 7.50357,0 11.99434,3.97916 11.99434,10.63005 v 4.60447 l -16.37142,0.96636 c -14.21131,0.79584 -22.22648,7.21935 -22.22648,17.67887 0,10.74374 8.18571,18.01993 19.89582,18.01993 z m 42.80445,-1.02322 h 12.27857 V 438.4377 c 0,-7.67411 5.17291,-13.35863 12.4491,-13.35863 6.93512,0 11.3122,4.37708 11.3122,11.25535 v 39.05266 h 12.05118 v -37.3473 c 0,-7.56041 5.05923,-12.96071 12.33541,-12.96071 7.27619,0 11.42589,4.43393 11.42589,12.16488 v 38.14313 h 12.33541 V 434.288 c 0,-11.88065 -7.73095,-19.72529 -19.55475,-19.72529 -8.52678,0 -15.57559,4.43392 -18.64523,11.71011 h -0.28423 c -2.3875,-7.44672 -8.41309,-11.71011 -16.71249,-11.71011 -8.07202,0 -14.32499,4.43392 -16.99672,11.08481 h -0.28422 v -10.0616 h -11.71012 z m 127.16275,-60.76753 c -8.64048,0 -15.51875,4.37708 -19.04315,11.25535 h -0.22738 v -10.28898 h -11.88065 v 79.5833 h 12.27856 v -29.61636 h 0.28423 c 3.41071,6.65089 10.23214,10.85744 18.81577,10.85744 15.00713,0 24.95504,-11.99434 24.95504,-30.9238 0,-18.92945 -10.00475,-30.86695 -25.18242,-30.86695 z m -3.24018,51.38807 c -9.43631,0 -15.68928,-8.07202 -15.68928,-20.52112 0,-12.33541 6.30982,-20.52112 15.68928,-20.52112 9.72053,0 15.80297,8.01518 15.80297,20.52112 0,12.56279 -6.08244,20.52112 -15.80297,20.52112 z m 89.13329,-50.4217 h -12.27856 v 34.84612 c 0,9.32261 -5.34345,15.46189 -14.21131,15.46189 -8.46993,0 -12.79017,-4.88868 -12.79017,-13.98392 v -36.32409 h -12.27857 v 38.71159 c 0,13.6997 7.95833,22.16963 20.97589,22.16963 9.15208,0 15.23452,-4.03601 18.53154,-11.1985 h 0.28422 v 10.11844 h 11.76696 z m 11.02798,16.93987 c 0,8.35625 5.45714,13.98393 16.25773,16.59881 l 10.6869,2.61488 c 6.25297,1.59166 8.52678,3.69493 8.52678,7.50356 0,4.83185 -4.54762,7.90149 -11.93749,7.90149 -7.50357,0 -11.9375,-3.18333 -12.90387,-8.9247 h -12.16487 c 0.96636,10.97113 10.34583,18.30416 24.50028,18.30416 14.66607,0 24.84136,-7.50357 24.84136,-18.41785 0,-8.81101 -4.54761,-13.35863 -16.5988,-16.25773 l -10.0616,-2.33066 c -6.19613,-1.53482 -9.15208,-4.03601 -9.15208,-7.73094 0,-4.71816 4.43392,-7.95833 11.08481,-7.95833 6.87827,0 11.25536,3.35386 11.82381,8.75416 h 11.53958 c -0.39792,-10.63006 -9.72053,-18.07678 -23.02231,-18.07678 -13.98393,0 -23.42023,7.33303 -23.42023,18.01993 z"
       id="text151"
       style="font-weight:500;font-size:116.419px;font-family:'SF Pro Display';-inkscape-font-specification:'SF Pro Display Medium';fill:#10375b;stroke:#10375b;stroke-width:2.146;stroke-linejoin:round;stroke-dasharray:none;stroke-opacity:1"
       transform="scale(1.0383783,0.96304016)"
       aria-label="Campus" /><path
       d="m 142.27128,595.51754 c 18.87261,0 31.71963,-9.94791 34.84612,-26.88778 h -12.67648 c -2.55804,9.89107 -10.68691,15.74612 -22.11279,15.74612 -15.06399,0 -24.61398,-12.10803 -24.61398,-31.26487 0,-18.9863 9.66369,-31.20802 24.55713,-31.20802 11.14166,0 19.89583,6.87827 22.16964,17.39464 h 12.61963 c -2.16012,-17.11041 -16.20088,-28.5363 -34.78927,-28.5363 -22.90862,0 -37.57469,16.37142 -37.57469,42.34968 0,26.1488 14.55238,42.40653 37.57469,42.40653 z m 70.54491,-0.22738 c 17.11041,0 28.36577,-11.76696 28.36577,-31.03748 0,-19.21369 -11.3122,-30.98065 -28.36577,-30.98065 -17.05356,0 -28.36576,11.76696 -28.36576,30.98065 0,19.27052 11.25535,31.03748 28.36576,31.03748 z m 0,-10.11844 c -9.60684,0 -15.85981,-7.61726 -15.85981,-20.91904 0,-13.24494 6.25297,-20.8622 15.85981,-20.8622 9.60684,0 15.85982,7.61726 15.85982,20.8622 0,13.30178 -6.19613,20.91904 -15.85982,20.91904 z m 37.85891,8.98154 h 12.27857 v -34.84612 c 0,-9.26577 5.57083,-15.40505 14.2113,-15.40505 8.52679,0 12.73333,4.94553 12.73333,13.92708 v 36.32409 h 12.33541 v -38.71159 c 0,-13.6997 -7.56041,-22.11279 -20.7485,-22.11279 -9.20892,0 -15.57559,4.20655 -18.81577,11.02797 h -0.28422 V 534.35209 H 250.6751 Z m 63.38242,0 h 12.27857 v -34.84612 c 0,-9.26577 5.57083,-15.40505 14.2113,-15.40505 8.52678,0 12.73333,4.94553 12.73333,13.92708 v 36.32409 h 12.33541 v -38.71159 c 0,-13.6997 -7.56041,-22.11279 -20.7485,-22.11279 -9.20893,0 -15.57559,4.20655 -18.81577,11.02797 h -0.28423 v -10.00476 h -11.71011 z m 88.3943,-50.99016 c 8.58362,0 14.38183,6.42351 14.66606,15.57559 H 387.2173 c 0.6253,-9.03839 6.65089,-15.57559 15.23452,-15.57559 z m 14.60922,33.42499 c -1.64852,5.22976 -6.82143,8.75416 -13.81339,8.75416 -9.83422,0 -16.0872,-6.87827 -16.0872,-17.28094 v -0.73899 h 42.236 v -4.20655 c 0,-18.13362 -10.34583,-29.84374 -26.94463,-29.84374 -16.88303,0 -27.68362,12.50595 -27.68362,31.26487 0,18.87261 10.63005,30.75326 28.19522,30.75326 13.6997,0 24.04553,-7.78779 25.75088,-18.70207 z m 73.15979,-21.65803 c -1.08006,-11.76696 -10.45952,-21.65803 -25.86458,-21.65803 -16.99672,0 -28.13838,11.99435 -28.13838,30.98065 0,19.32737 11.14166,31.03748 28.25207,31.03748 14.38184,0 24.55714,-8.64047 25.86458,-21.3738 h -11.82381 c -1.42113,6.93512 -6.36666,11.08482 -13.92708,11.08482 -9.54999,0 -15.85981,-7.61726 -15.85981,-20.7485 0,-12.84702 6.25297,-20.74851 15.74612,-20.74851 8.01518,0 12.79018,5.05923 14.04077,11.42589 z m 12.39226,-34.73242 v 14.15445 h -8.69732 v 9.72054 h 8.69732 v 34.3345 c 0,11.53958 4.71815,16.14405 16.82618,16.14405 2.72857,0 5.45714,-0.22739 6.82143,-0.56846 v -9.72053 c -0.79584,0.17054 -2.78542,0.28423 -4.03601,0.28423 -5.00238,0 -7.27619,-2.33066 -7.27619,-7.50357 v -32.97022 h 11.36904 v -9.72054 H 514.9485 v -14.15445 z"
       id="text153"
       style="font-weight:500;font-size:116.419px;font-family:'SF Pro Display';-inkscape-font-specification:'SF Pro Display Medium';fill:#10375b;stroke:#10375b;stroke-width:2.146;stroke-linejoin:round;stroke-dasharray:none;stroke-opacity:1"
       transform="scale(1.0383783,0.96304016)"
       aria-label="Connect" /><path
       style="font-weight:500;font-size:47.3132px;font-family:'SF Pro Display';-inkscape-font-specification:'SF Pro Display Medium';fill:#1f353a;stroke-width:2.1153;stroke-linejoin:round"
       d="m 104.47116,642.16734 c 0.32343,6.02966 5.3135,9.84152 12.70618,9.84152 7.90094,0 12.8679,-3.90426 12.8679,-10.14185 0,-4.87455 -2.84156,-7.6237 -9.6798,-9.24085 l -3.67324,-0.90099 c -4.297,-1.0627 -6.05276,-2.44883 -6.05276,-4.80525 0,-2.95707 2.74915,-4.99006 6.76893,-4.99006 4.01977,0 6.76893,2.00989 7.06925,5.3366 h 5.03627 c -0.16171,-5.75244 -4.99006,-9.70291 -12.03622,-9.70291 -7.11546,0 -12.12863,3.95047 -12.12863,9.70291 0,4.64353 2.84157,7.50819 8.96364,8.98673 l 4.3201,1.0396 c 4.3201,1.0627 6.14517,2.61054 6.14517,5.19798 0,2.98018 -3.02638,5.15178 -7.23097,5.15178 -4.38941,0 -7.60061,-2.1716 -7.97024,-5.47521 z m 31.07239,-20.76883 v 5.75244 h -3.53463 v 3.95046 h 3.53463 v 13.9537 c 0,4.68974 1.91748,6.56101 6.83824,6.56101 1.1089,0 2.21781,-0.0924 2.77226,-0.23102 v -3.95047 c -0.32343,0.0693 -1.13201,0.11551 -1.64026,0.11551 -2.03298,0 -2.95707,-0.94718 -2.95707,-3.04948 v -13.39925 h 4.62043 v -3.95046 h -4.62043 v -5.75244 z m 34.56082,5.75244 h -4.99007 v 14.16161 c 0,3.78876 -2.1716,6.28379 -5.77553,6.28379 -3.44222,0 -5.19799,-1.98679 -5.19799,-5.68313 v -14.76227 h -4.99006 v 15.73256 c 0,5.56762 3.2343,9.00984 8.52469,9.00984 3.71945,0 6.19138,-1.64026 7.5313,-4.55113 h 0.11551 v 4.11219 h 4.78215 z m 14.04611,24.7193 c 3.53463,0 6.30689,-1.77887 7.73922,-4.55113 h 0.0924 v 4.13529 h 4.85145 v -33.3364 h -5.01317 v 13.07581 h -0.0924 c -1.36302,-2.67985 -4.13528,-4.43561 -7.62371,-4.43561 -6.09896,0 -10.16494,4.87455 -10.16494,12.54447 0,7.66991 4.06598,12.56757 10.21115,12.56757 z m 1.31682,-20.90745 c 3.83496,0 6.3993,3.30361 6.3993,8.33988 0,5.08247 -2.56434,8.33987 -6.3993,8.33987 -3.95047,0 -6.4224,-3.2112 -6.4224,-8.33987 0,-5.10558 2.47193,-8.33988 6.4224,-8.33988 z m 26.63678,-0.23102 c 3.48842,0 5.84484,2.61054 5.96035,6.32999 H 205.9127 c 0.25412,-3.67324 2.70295,-6.32999 6.19138,-6.32999 z m 5.93725,13.58406 c -0.66996,2.1254 -2.77226,3.55773 -5.61382,3.55773 -3.99667,0 -6.53791,-2.79536 -6.53791,-7.02305 v -0.30033 h 17.1649 v -1.70956 c 0,-7.36958 -4.2046,-12.12863 -10.95042,-12.12863 -6.86134,0 -11.25075,5.08248 -11.25075,12.70619 0,7.66991 4.3201,12.49826 11.45867,12.49826 5.56761,0 9.77221,-3.16499 10.46527,-7.60061 z m 8.87122,7.13857 h 4.99006 v -14.16162 c 0,-3.76565 2.26402,-6.26068 5.77554,-6.26068 3.46532,0 5.17488,2.00988 5.17488,5.66002 v 14.76228 h 5.01317 v -15.73257 c 0,-5.56761 -3.07259,-8.98673 -8.43228,-8.98673 -3.74255,0 -6.32999,1.70956 -7.64682,4.48181 h -0.11551 v -4.06597 h -4.75904 z m 27.21433,-30.0559 v 5.75244 h -3.53463 v 3.95046 h 3.53463 v 13.9537 c 0,4.68974 1.91748,6.56101 6.83824,6.56101 1.1089,0 2.2178,-0.0924 2.77226,-0.23102 v -3.95047 c -0.32343,0.0693 -1.13201,0.11551 -1.64026,0.11551 -2.03299,0 -2.95707,-0.94718 -2.95707,-3.04948 v -13.39925 h 4.62043 v -3.95046 h -4.62043 v -5.75244 z m 28.94699,30.0559 v -24.55759 h 0.20792 l 17.28041,24.55759 h 4.66663 v -33.3364 h -5.03626 v 24.58068 h -0.18482 l -17.28041,-24.58068 h -4.68973 v 33.3364 z m 37.86444,-20.72263 c 3.48842,0 5.84484,2.61054 5.96035,6.32999 h -12.15173 c 0.25412,-3.67324 2.70295,-6.32999 6.19138,-6.32999 z m 5.93725,13.58406 c -0.66996,2.1254 -2.77226,3.55773 -5.61382,3.55773 -3.99668,0 -6.53791,-2.79536 -6.53791,-7.02305 v -0.30033 h 17.16489 v -1.70956 c 0,-7.36958 -4.20459,-12.12863 -10.95041,-12.12863 -6.86134,0 -11.25075,5.08248 -11.25075,12.70619 0,7.66991 4.3201,12.49826 11.45866,12.49826 5.56762,0 9.77221,-3.16499 10.46528,-7.60061 z m 10.32665,-22.91733 v 5.75244 h -3.53462 v 3.95046 h 3.53462 v 13.9537 c 0,4.68974 1.91748,6.56101 6.83824,6.56101 1.1089,0 2.21781,-0.0924 2.77226,-0.23102 v -3.95047 c -0.32343,0.0693 -1.13201,0.11551 -1.64025,0.11551 -2.03299,0 -2.95708,-0.94718 -2.95708,-3.04948 v -13.39925 h 4.62043 v -3.95046 h -4.62043 v -5.75244 z m 45.78847,5.75244 h -4.94386 l -4.43561,19.12858 h -0.11552 l -5.08247,-19.12858 h -4.80525 l -5.05937,19.12858 h -0.0924 l -4.43562,-19.12858 h -4.99006 l 6.67652,24.30346 h 5.15178 l 5.05937,-18.2045 h 0.11551 l 5.10558,18.2045 h 5.19798 z m 13.37613,24.7655 c 6.95374,0 11.52797,-4.78215 11.52797,-12.61377 0,-7.80853 -4.59733,-12.59068 -11.52797,-12.59068 -6.93065,0 -11.52798,4.78215 -11.52798,12.59068 0,7.83162 4.57423,12.61377 11.52798,12.61377 z m 0,-4.11218 c -3.90427,0 -6.4455,-3.09569 -6.4455,-8.50159 0,-5.3828 2.54123,-8.47849 6.4455,-8.47849 3.90426,0 6.4455,3.09569 6.4455,8.47849 0,5.4059 -2.51814,8.50159 -6.4455,8.50159 z m 15.38604,3.65014 h 4.99007 v -14.55436 c 0,-3.44222 1.98678,-5.59072 5.19798,-5.59072 0.97029,0 1.84817,0.11551 2.24091,0.27723 v -4.64353 c -0.36964,-0.0693 -0.99339,-0.18482 -1.70956,-0.18482 -2.86467,0 -5.03627,1.68646 -5.84484,4.52802 h -0.11552 v -4.13528 h -4.75904 z m 20.74572,-13.8844 h -0.0462 v -19.452 h -4.99006 v 33.3364 h 4.99006 v -8.73262 l 2.07919,-2.05609 8.24747,10.78871 h 5.79864 l -10.46527,-13.83819 10.07253,-10.46527 h -5.86794 z m 18.80516,13.8844 h 4.99006 v -24.30346 h -4.99006 z m 2.49503,-27.8612 c 1.61715,0 2.91087,-1.27061 2.91087,-2.84156 0,-1.59405 -1.29372,-2.86467 -2.91087,-2.86467 -1.59405,0 -2.88777,1.27062 -2.88777,2.86467 0,1.57095 1.29372,2.84156 2.88777,2.84156 z m 7.60061,27.8612 h 4.99006 v -14.16162 c 0,-3.76565 2.26401,-6.26068 5.77554,-6.26068 3.46532,0 5.17488,2.00988 5.17488,5.66002 v 14.76228 h 5.01317 v -15.73257 c 0,-5.56761 -3.07259,-8.98673 -8.43229,-8.98673 -3.74255,0 -6.32999,1.70956 -7.64681,4.48181 h -0.11551 v -4.06597 h -4.75904 z m 36.10867,-4.04288 c -3.83496,0 -6.32999,-3.09569 -6.32999,-8.17816 0,-5.05937 2.49503,-8.27057 6.32999,-8.27057 3.90426,0 6.4686,3.28051 6.4686,8.27057 0,5.01317 -2.56434,8.17816 -6.4686,8.17816 z m 0.0462,13.19133 c 6.93064,0 11.41246,-3.78875 11.41246,-9.58739 v -23.86452 h -4.85145 v 4.15838 h -0.0924 c -1.47854,-2.81846 -4.297,-4.55112 -7.73922,-4.55112 -6.23758,0 -10.21115,4.80525 -10.21115,12.45206 0,7.5775 3.99667,12.33655 10.09564,12.33655 3.46532,0 6.32999,-1.73267 7.69301,-4.36631 h 0.0924 v 3.99667 c 0,3.32671 -2.31021,5.54452 -6.21448,5.54452 -2.84156,0 -5.05937,-1.33993 -5.77553,-3.37292 h -5.01317 c 0.62376,4.20459 4.87455,7.25408 10.60389,7.25408 z m 48.23726,-9.14845 h 5.47521 l -12.03622,-33.3364 h -5.59072 l -12.03622,33.3364 h 5.3828 l 3.04949,-9.00984 h 12.70618 z m -9.47188,-27.79189 h 0.13861 l 4.96697,14.62366 h -10.07254 z m 30.67966,3.09569 c -3.51153,0 -6.30689,1.77886 -7.73922,4.57422 h -0.0924 v -4.18148 h -4.82835 v 32.343 h 4.99006 v -12.03622 h 0.11551 c 1.38613,2.70296 4.15839,4.41252 7.64681,4.41252 6.09897,0 10.14185,-4.87456 10.14185,-12.56757 0,-7.69302 -4.06598,-12.54447 -10.23425,-12.54447 z m -1.31683,20.88434 c -3.83495,0 -6.37619,-3.2805 -6.37619,-8.33987 0,-5.01317 2.56434,-8.33988 6.37619,-8.33988 3.95047,0 6.4224,3.2574 6.4224,8.33988 0,5.10557 -2.47193,8.33987 -6.4224,8.33987 z m 28.04601,-20.88434 c -3.51152,0 -6.30688,1.77886 -7.73922,4.57422 h -0.0924 v -4.18148 h -4.82834 v 32.343 h 4.99006 v -12.03622 h 0.11551 c 1.38613,2.70296 4.15839,4.41252 7.64681,4.41252 6.09897,0 10.14185,-4.87456 10.14185,-12.56757 0,-7.69302 -4.06598,-12.54447 -10.23426,-12.54447 z m -1.31682,20.88434 c -3.83496,0 -6.37619,-3.2805 -6.37619,-8.33987 0,-5.01317 2.56434,-8.33988 6.37619,-8.33988 3.95047,0 6.4224,3.2574 6.4224,8.33988 0,5.10557 -2.47193,8.33987 -6.4224,8.33987 z"
       id="text154"
       transform="scale(0.98569234,1.0145153)"
       aria-label="Student Networking App" /><circle
       style="fill:#f4c006;fill-opacity:1;stroke-width:1.13281"
       id="circle154"
       cx="766.94153"
       cy="628.06299"
       r="15.349592" /><path
       style="display:inline;fill:#6e8297;fill-opacity:1;stroke:none;stroke-width:2.146;stroke-linejoin:round;stroke-dasharray:none;stroke-opacity:1"
       d="m 758.79918,545.81035 c -2.01133,0 -4.55195,1.90546 -4.55195,3.81093 l -0.10585,16.09061 c -0.0877,2.29789 2.31495,4.63322 4.54552,4.63322 l 13.38212,0.0749 c 2.28304,0.22456 6.84764,4.5991 7.27805,4.28097 0.0748,-0.59884 -2.14066,-4.78348 -2.1968,-5.79401 1.5345,-0.0749 3.42946,-2.26878 3.45592,-5.20637 l 0.21172,-11.96209 c 0.0529,-3.20224 -2.80527,-5.7958 -4.55195,-5.82226 z"
       id="path154" /><circle
       style="fill:#ffffff;fill-opacity:1;stroke:none;stroke-width:2.146;stroke-linejoin:round;stroke-dasharray:none;stroke-opacity:1"
       id="path155"
       cx="764.07019"
       cy="555.86432"
       r="2.3578947" /><circle
       style="fill:#ffffff;fill-opacity:1;stroke:none;stroke-width:2.146;stroke-linejoin:round;stroke-dasharray:none;stroke-opacity:1"
       id="circle155"
       cx="770.3205"
       cy="555.93915"
       r="2.3578947" /><path
       style="display:inline;fill:#6e8297;fill-opacity:1;stroke:none;stroke-width:2.146;stroke-linejoin:round;stroke-dasharray:none;stroke-opacity:1"
       d="m 758.39766,490.30001 8.83925,0.002 c 3.27059,-0.0152 6.30505,2.53847 6.30505,4.44394 l -0.006,4.97538 -21.80701,-0.10586 0.004,-4.92245 c -0.01,-1.80713 2.74804,-4.38995 6.66483,-4.39316 z"
       id="path156" /><path
       id="path157"
       style="fill:#6e8297;fill-opacity:1;stroke:none;stroke-width:2.146;stroke-linejoin:round;stroke-dasharray:none;stroke-opacity:1"
       d="m 776.23633,499.68555 7.29883,0.0352 0.006,-4.97461 c 0,-1.90547 -3.0341,-4.45856 -6.30469,-4.44336 h -7.29883 c 3.27059,-0.0152 6.30469,2.53789 6.30469,4.44336 z" /><path
       style="fill:#6e8297;fill-opacity:1;stroke:none;stroke-width:2.48865;stroke-linejoin:round;stroke-dasharray:none;stroke-opacity:1"
       id="path158"
       d="m 766.63636,482.02588 c 0,2.88012 -1.82035,5.21491 -4.06586,5.21491 -2.24552,0 -4.06587,-2.33479 -4.06587,-5.21491 0,-2.88012 1.82035,-5.21491 4.06587,-5.21491 2.24551,0 4.06586,2.33479 4.06586,5.21491 z" /><path
       style="fill:#6e8297;fill-opacity:1;stroke:none;stroke-width:2.48865;stroke-linejoin:round;stroke-dasharray:none;stroke-opacity:1"
       id="path159"
       d="m 766.63636,482.02588 c 0,2.88012 -1.82035,5.21491 -4.06586,5.21491 -2.24552,0 -4.06587,-2.33479 -4.06587,-5.21491 0,-2.88012 1.82035,-5.21491 4.06587,-5.21491 2.24551,0 4.06586,2.33479 4.06586,5.21491 z"
       transform="translate(10.5625,-0.0625)" /><path
       style="display:inline;fill:#ebebeb;fill-opacity:1;stroke:none;stroke-width:2.146;stroke-linejoin:round;stroke-dasharray:none;stroke-opacity:1"
       id="rect161"
       width="48"
       height="47.625"
       x="744.125"
       y="392.75"
       d="M 759.25,392.75 H 777 c 8.37925,0 15.125,6.74575 15.125,15.125 v 17.375 c 0,8.37925 -6.74575,15.125 -15.125,15.125 h -17.75 c -8.37925,0 -15.125,-6.74575 -15.125,-15.125 v -17.375 c 0,-8.37925 6.74575,-15.125 15.125,-15.125 z"
       ry="15.125" /><path
       style="display:inline;fill:#2a2d2e;fill-opacity:1;stroke:#000000;stroke-width:0.446;stroke-linejoin:round;stroke-dasharray:none;stroke-opacity:1"
       d="m 759.21171,414.54081 c 0,0 8.20472,-8.2687 8.66206,-8.26431 0.45734,0.004 8.83923,8.26431 8.83923,8.26431 v 10.03208 c 0,0.48437 -0.63919,0.88388 -1.06106,0.88388 l -4.28683,-0.0442 c -0.32041,0.0221 -1.01667,-0.26517 -1.17135,-0.91703 0,0 -0.0381,-5.17789 -0.0331,-5.62404 0.005,-0.44615 -0.75081,-0.99785 -2.08148,-1.03707 -1.33067,-0.0392 -2.18333,0.65209 -2.19417,1.03707 -0.0108,0.38498 0,5.61304 0,5.61304 0,0.84389 -0.41196,1.10485 -1.19321,1.10485 l -4.11006,-0.0442 c -0.96875,0.0469 -1.42983,-0.38388 -1.41421,-0.88388 z"
       id="path162" /><path
       style="font-weight:500;font-size:37.0066px;font-family:'SF Pro Display';-inkscape-font-specification:'SF Pro Display Medium';fill:#02060a;stroke-width:0.442097;stroke-linejoin:round"
       d="m 874.02145,292.95002 h 0.1807 l 5.63772,19.65975 h 3.81269 l 7.04716,-26.07447 h -4.21022 l -4.82459,20.41868 h -0.14456 l -5.52931,-20.41868 h -3.75848 l -5.51124,20.41868 h -0.14455 l -4.8246,-20.41868 h -4.21022 l 7.02909,26.07447 h 3.83076 z m 25.29748,3.45129 c 2.72852,0 4.57162,2.04187 4.66197,4.95108 h -9.50463 c 0.19877,-2.87307 2.11415,-4.95108 4.84266,-4.95108 z m 4.6439,10.62495 c -0.52402,1.6624 -2.16836,2.78272 -4.39092,2.78272 -3.12605,0 -5.11371,-2.18643 -5.11371,-5.49317 v -0.2349 h 13.42574 v -1.33716 c 0,-5.76421 -3.28868,-9.48655 -8.56501,-9.48655 -5.36668,0 -8.79991,3.97532 -8.79991,9.9383 0,5.99911 3.37902,9.77566 8.96254,9.77566 4.35478,0 7.64345,-2.47553 8.18554,-5.9449 z m 7.08329,5.58351 h 3.90304 V 286.5353 h -3.90304 z m 24.23137,-12.46804 c -0.34332,-3.74042 -3.32481,-6.88453 -8.22168,-6.88453 -5.40282,0 -8.94446,3.81269 -8.94446,9.84795 0,6.14367 3.54164,9.86601 8.9806,9.86601 4.57162,0 7.80608,-2.74658 8.22168,-6.79418 h -3.75848 c -0.45174,2.2045 -2.0238,3.52358 -4.42706,3.52358 -3.0357,0 -5.04143,-2.42133 -5.04143,-6.59541 0,-4.08374 1.98766,-6.59542 5.00529,-6.59542 2.54782,0 4.06567,1.6082 4.4632,3.632 z m 10.96827,12.82943 c 5.43896,0 9.01674,-3.74041 9.01674,-9.86601 0,-6.10754 -3.59585,-9.84795 -9.01674,-9.84795 -5.42089,0 -9.01675,3.74041 -9.01675,9.84795 0,6.1256 3.57779,9.86601 9.01675,9.86601 z m 0,-3.21639 c -3.05377,0 -5.04143,-2.42133 -5.04143,-6.64962 0,-4.21023 1.98766,-6.63156 5.04143,-6.63156 3.05377,0 5.04143,2.42133 5.04143,6.63156 0,4.22829 -1.96959,6.64962 -5.04143,6.64962 z m 12.03437,2.855 h 3.90304 v -11.74526 c 0,-2.4394 1.64434,-4.24636 3.95725,-4.24636 2.20449,0 3.59585,1.39136 3.59585,3.57779 v 12.41383 h 3.83077 v -11.87174 c 0,-2.40326 1.60819,-4.11988 3.92111,-4.11988 2.31291,0 3.63199,1.40943 3.63199,3.8669 v 12.12472 h 3.92111 v -13.06434 c 0,-3.77655 -2.45747,-6.27016 -6.21595,-6.27016 -2.71045,0 -4.95108,1.40943 -5.92684,3.72234 h -0.0903 c -0.75892,-2.36712 -2.6743,-3.72234 -5.31247,-3.72234 -2.56589,0 -4.55355,1.40943 -5.40282,3.52358 h -0.0903 v -3.19833 h -3.72234 z m 38.47024,-16.20846 c 2.72852,0 4.57163,2.04187 4.66193,4.95108 h -9.50459 c 0.19877,-2.87307 2.11415,-4.95108 4.84266,-4.95108 z m 4.64393,10.62495 c -0.5241,1.6624 -2.16839,2.78272 -4.39095,2.78272 -3.12605,0 -5.11371,-2.18643 -5.11371,-5.49317 v -0.2349 h 13.42576 v -1.33716 c 0,-5.76421 -3.2887,-9.48655 -8.56503,-9.48655 -5.36668,0 -8.79991,3.97532 -8.79991,9.9383 0,5.99911 3.37903,9.77566 8.96254,9.77566 4.3548,0 7.6435,-2.47553 8.1855,-5.9449 z m 9.7034,10.95019 2.4574,-9.54076 h -3.9392 l -1.6262,9.54076 z m 29.9775,-5.36668 h 4.2825 l -9.4143,-26.07447 h -4.3729 l -9.4142,26.07447 h 4.2102 l 2.3852,-7.04715 h 9.9383 z m -7.4086,-21.73776 h 0.1084 l 3.885,11.43807 h -7.8784 z m 14.2389,21.73776 h 3.903 V 286.5353 h -3.903 z m 15.8651,-16.20846 c 2.7285,0 4.5716,2.04187 4.662,4.95108 h -9.5046 c 0.1987,-2.87307 2.1141,-4.95108 4.8426,-4.95108 z m 4.6439,10.62495 c -0.524,1.6624 -2.1683,2.78272 -4.3909,2.78272 -3.126,0 -5.1137,-2.18643 -5.1137,-5.49317 v -0.2349 h 13.4257 v -1.33716 c 0,-5.76421 -3.2886,-9.48655 -8.565,-9.48655 -5.3667,0 -8.7999,3.97532 -8.7999,9.9383 0,5.99911 3.379,9.77566 8.9625,9.77566 4.3548,0 7.6435,-2.47553 8.1856,-5.9449 z m 13.7329,-1.40943 4.1922,6.99294 h 4.3006 l -6.1618,-9.61304 6.234,-9.39621 h -4.3005 l -4.1018,6.88453 h -0.072 l -4.156,-6.88453 h -4.3729 l 6.1798,9.5227 -6.2701,9.48655 h 4.2283 l 4.2102,-6.99294 z m 12.3416,-19.08153 0.2891,17.43719 h 3.4513 l 0.2891,-17.43719 z m 2.0057,26.34552 c 1.3552,0 2.3852,-1.0119 2.3852,-2.33099 0,-1.31908 -1.03,-2.33098 -2.3852,-2.33098 -1.3191,0 -2.3671,1.0119 -2.3671,2.33098 0,1.31909 1.048,2.33099 2.3671,2.33099 z"
       id="text162"
       transform="scale(0.99124877,1.0088285)"
       aria-label="Welcome, Alex!" /><path
       style="font-weight:500;font-size:28.4411px;font-family:'SF Pro Display';-inkscape-font-specification:'SF Pro Display Medium';fill:#02060a;stroke:#02060a;stroke-width:0.475676;stroke-linejoin:round"
       d="m 815.08315,435.12971 c 4.61057,0 7.74909,-2.43027 8.51289,-6.56867 h -3.09686 c -0.62492,2.41638 -2.6108,3.84677 -5.40214,3.84677 -3.68012,0 -6.01318,-2.95799 -6.01318,-7.63799 0,-4.63834 2.36083,-7.6241 5.99929,-7.6241 2.7219,0 4.86054,1.68035 5.41603,4.2495 h 3.08297 c -0.52771,-4.18007 -3.95787,-6.97141 -8.499,-6.97141 -5.59656,0 -9.17947,3.99953 -9.17947,10.34601 0,6.38814 3.55513,10.35989 9.17947,10.35989 z m 11.06814,-0.33329 h 2.99965 v -8.44345 c 0,-2.30529 1.36095,-3.83289 3.58291,-3.83289 2.11087,0 3.19407,1.29152 3.19407,3.44404 v 8.8323 h 3.01354 v -9.41556 c 0,-3.30517 -1.91644,-5.44381 -5.1244,-5.44381 -2.22196,0 -3.819,0.986 -4.62446,2.69413 h -0.0694 v -7.87407 h -2.97188 z m 20.78923,-2.12475 c -1.61092,0 -2.66636,-0.83324 -2.66636,-2.11087 0,-1.24985 1.01377,-2.04142 2.80523,-2.16641 l 3.5968,-0.22219 v 1.15264 c 0,1.90255 -1.6387,3.34683 -3.73567,3.34683 z m -0.83324,2.37472 c 1.91644,0 3.76345,-1.02766 4.61057,-2.65247 h 0.0694 v 2.4025 h 2.87466 v -10.06826 c 0,-2.93021 -2.26362,-4.80499 -5.80487,-4.80499 -3.61069,0 -5.86043,1.94421 -6.02707,4.58279 h 2.833 c 0.26385,-1.3054 1.34706,-2.13864 3.08297,-2.13864 1.83312,0 2.93021,0.97211 2.93021,2.59692 v 1.12487 l -3.99953,0.23608 c -3.47181,0.19442 -5.42992,1.76368 -5.42992,4.31894 0,2.62469 1.99977,4.40226 4.86054,4.40226 z m 10.4571,-0.24997 h 2.99965 v -8.51289 c 0,-2.26362 1.36095,-3.76345 3.47181,-3.76345 2.08309,0 3.11075,1.20819 3.11075,3.40238 v 8.87396 h 3.01353 v -9.45722 c 0,-3.34683 -1.847,-5.40215 -5.06885,-5.40215 -2.24973,0 -3.8051,1.02766 -4.59668,2.69413 h -0.0694 v -2.44416 h -2.86078 z m 15.48429,0 h 2.99965 v -8.51289 c 0,-2.26362 1.36095,-3.76345 3.47181,-3.76345 2.08309,0 3.11075,1.20819 3.11075,3.40238 v 8.87396 h 3.01353 v -9.45722 c 0,-3.34683 -1.847,-5.40215 -5.06884,-5.40215 -2.24974,0 -3.80511,1.02766 -4.59669,2.69413 h -0.0694 v -2.44416 h -2.86078 z m 21.59469,-12.45687 c 2.09697,0 3.51347,1.56926 3.58291,3.80511 h -7.3047 c 0.15276,-2.20808 1.62481,-3.80511 3.72179,-3.80511 z m 3.56902,8.16571 c -0.40273,1.27762 -1.66647,2.13863 -3.3746,2.13863 -2.4025,0 -3.9301,-1.68036 -3.9301,-4.22172 v -0.18054 h 10.31824 v -1.02765 c 0,-4.43004 -2.52749,-7.29081 -6.58256,-7.29081 -4.12452,0 -6.7631,3.05519 -6.7631,7.63799 0,4.61057 2.59692,7.513 6.88808,7.513 3.34683,0 5.87431,-1.90255 6.29093,-4.5689 z m 5.44381,4.29116 h 2.99964 v -20.03931 h -2.99964 z m 5.81876,-10.47099 c 0,2.04142 1.33317,3.41626 3.97175,4.05508 l 2.61081,0.63881 c 1.52759,0.38884 2.08308,0.90267 2.08308,1.83312 0,1.18041 -1.11098,1.93033 -2.91632,1.93033 -1.83312,0 -2.91632,-0.77769 -3.15241,-2.1803 h -2.97187 c 0.23608,2.68024 2.52748,4.47169 5.98541,4.47169 3.58291,0 6.06873,-1.83312 6.06873,-4.49947 0,-2.15252 -1.11098,-3.2635 -4.05508,-3.97175 l -2.45804,-0.56938 c -1.51371,-0.37496 -2.23585,-0.986 -2.23585,-1.88867 0,-1.15264 1.0832,-1.94421 2.70801,-1.94421 1.68036,0 2.74968,0.81934 2.88855,2.13863 h 2.81911 c -0.0972,-2.59691 -2.37472,-4.41614 -5.62433,-4.41614 -3.41627,0 -5.72155,1.79145 -5.72155,4.40226 z"
       id="text163"
       transform="scale(1.0148733,0.98534465)"
       aria-label="Channels" /><path
       d="m 798.79781,515.37512 c 4.46637,0 7.50673,-2.35427 8.24664,-6.36324 h -3 c -0.60538,2.34081 -2.52915,3.72646 -5.23319,3.72646 -3.56502,0 -5.82512,-2.86547 -5.82512,-7.39911 0,-4.49328 2.287,-7.38566 5.81167,-7.38566 2.63677,0 4.70852,1.62781 5.24664,4.1166 h 2.98655 c -0.51121,-4.04933 -3.83408,-6.75337 -8.23319,-6.75337 -5.42153,0 -8.89239,3.87444 -8.89239,10.02243 0,6.18835 3.44395,10.03589 8.89239,10.03589 z m 16.69508,-0.0538 c 4.04934,0 6.71302,-2.78475 6.71302,-7.34529 0,-4.54709 -2.67714,-7.33185 -6.71302,-7.33185 -4.03588,0 -6.71301,2.78476 -6.71301,7.33185 0,4.56054 2.66368,7.34529 6.71301,7.34529 z m 0,-2.39462 c -2.27354,0 -3.75336,-1.80269 -3.75336,-4.95067 0,-3.13454 1.47982,-4.93723 3.75336,-4.93723 2.27355,0 3.75337,1.80269 3.75337,4.93723 0,3.14798 -1.46637,4.95067 -3.75337,4.95067 z m 8.95965,2.12557 h 2.90584 v -8.74441 c 0,-1.81614 1.22421,-3.16144 2.94619,-3.16144 1.64126,0 2.67713,1.03588 2.67713,2.66368 v 9.24217 h 2.85202 v -8.83858 c 0,-1.78924 1.19731,-3.06727 2.91929,-3.06727 1.72197,0 2.70404,1.04933 2.70404,2.87893 v 9.02692 h 2.91928 v -9.72647 c 0,-2.81166 -1.8296,-4.66817 -4.62781,-4.66817 -2.01793,0 -3.6861,1.04933 -4.41256,2.77131 h -0.0673 c -0.56502,-1.76234 -1.99103,-2.77131 -3.95516,-2.77131 -1.91032,0 -3.39014,1.04933 -4.02243,2.62332 h -0.0673 v -2.38117 h -2.77131 z m 30.09421,-14.38119 c -2.04485,0 -3.67265,1.03588 -4.50674,2.66368 h -0.0538 v -2.43498 h -2.81166 v 18.83411 h 2.90583 v -7.00898 h 0.0673 c 0.80717,1.57399 2.42153,2.56951 4.45292,2.56951 3.55157,0 5.90583,-2.83857 5.90583,-7.31839 0,-4.47983 -2.36771,-7.30495 -5.95964,-7.30495 z m -0.76682,12.16145 c -2.23319,0 -3.71301,-1.91031 -3.71301,-4.8565 0,-2.91929 1.49328,-4.85651 3.71301,-4.85651 2.30045,0 3.73991,1.89686 3.73991,4.85651 0,2.97309 -1.43946,4.8565 -3.73991,4.8565 z m 21.09419,-11.93275 h -2.90583 v 8.24665 c 0,2.20628 -1.26457,3.6592 -3.36323,3.6592 -2.00449,0 -3.02691,-1.15696 -3.02691,-3.30942 v -8.59643 h -2.90583 v 9.16145 c 0,3.24216 1.88341,5.24664 4.96413,5.24664 2.16592,0 3.60538,-0.95516 4.38565,-2.65023 h 0.0673 v 2.39463 h 2.78475 z m 3.71301,-3.34978 v 3.34978 h -2.0583 v 2.30046 h 2.0583 v 8.12556 c 0,2.73095 1.11659,3.82064 3.98207,3.82064 0.64574,0 1.29148,-0.0538 1.61435,-0.13453 v -2.30045 c -0.18834,0.0404 -0.65919,0.0673 -0.95516,0.0673 -1.18386,0 -1.72197,-0.55157 -1.72197,-1.77579 v -7.80269 h 2.69058 v -2.30046 h -2.69058 v -3.34978 z m 13.57401,5.43499 c 2.03139,0 3.40359,1.52018 3.47085,3.6861 h -7.07624 c 0.14798,-2.13901 1.57399,-3.6861 3.60539,-3.6861 z m 3.4574,7.91032 c -0.39014,1.23767 -1.61435,2.07175 -3.26906,2.07175 -2.32736,0 -3.80718,-1.6278 -3.80718,-4.08969 v -0.17489 h 9.99552 v -0.99551 c 0,-4.29149 -2.44843,-7.06279 -6.37668,-7.06279 -3.99552,0 -6.55158,2.95964 -6.55158,7.39911 0,4.46637 2.5157,7.27803 6.67265,7.27803 3.24216,0 5.69059,-1.84305 6.09418,-4.42601 z m 5.16592,4.15696 h 2.90584 v -8.47535 c 0,-2.00449 1.15695,-3.25561 3.02691,-3.25561 0.56502,0 1.07623,0.0673 1.30493,0.16144 v -2.70404 c -0.21525,-0.0404 -0.57848,-0.10763 -0.99552,-0.10763 -1.66816,0 -2.93273,0.98207 -3.40359,2.63678 h -0.0673 v -2.40808 h -2.77131 z m 14.11213,-5.40808 c 0.18834,3.51121 3.09417,5.73095 7.39911,5.73095 4.6009,0 7.49328,-2.27355 7.49328,-5.90584 0,-2.83857 -1.65471,-4.43947 -5.63677,-5.38117 l -2.13902,-0.52467 c -2.50225,-0.61883 -3.52467,-1.42601 -3.52467,-2.7982 0,-1.72198 1.6009,-2.90584 3.94171,-2.90584 2.34081,0 3.94171,1.17041 4.1166,3.10763 h 2.93274 c -0.0942,-3.34978 -2.90584,-5.65023 -7.00898,-5.65023 -4.1435,0 -7.06279,2.30045 -7.06279,5.65023 0,2.70404 1.65471,4.3722 5.21974,5.23319 l 2.5157,0.60538 c 2.51569,0.61884 3.57848,1.52018 3.57848,3.02691 0,1.73543 -1.76234,3 -4.21077,3 -2.55606,0 -4.42602,-1.26457 -4.64126,-3.18834 z m 29.39465,-3.87445 c -0.25561,-2.78475 -2.47534,-5.12556 -6.12108,-5.12556 -4.02243,0 -6.6592,2.83857 -6.6592,7.33185 0,4.57399 2.63677,7.34529 6.6861,7.34529 3.40359,0 5.81167,-2.04484 6.12109,-5.0583 h -2.79821 c -0.33633,1.64126 -1.50673,2.62332 -3.29597,2.62332 -2.26009,0 -3.75337,-1.80269 -3.75337,-4.91031 0,-3.04037 1.47982,-4.91032 3.72646,-4.91032 1.89687,0 3.02691,1.19731 3.32288,2.70403 z m 2.17938,9.28253 h 2.90583 v -14.15249 h -2.90583 z m 1.45291,-16.22424 c 0.94171,0 1.69507,-0.73991 1.69507,-1.65471 0,-0.92825 -0.75336,-1.66816 -1.69507,-1.66816 -0.92825,0 -1.68161,0.73991 -1.68161,1.66816 0,0.9148 0.75336,1.65471 1.68161,1.65471 z m 10.3453,4.15696 c 2.03139,0 3.40359,1.52018 3.47086,3.6861 h -7.07624 c 0.14798,-2.13901 1.57399,-3.6861 3.60538,-3.6861 z m 3.45741,7.91032 c -0.39014,1.23767 -1.61436,2.07175 -3.26907,2.07175 -2.32735,0 -3.80718,-1.6278 -3.80718,-4.08969 v -0.17489 h 9.99553 v -0.99551 c 0,-4.29149 -2.44843,-7.06279 -6.37669,-7.06279 -3.99552,0 -6.55157,2.95964 -6.55157,7.39911 0,4.46637 2.51569,7.27803 6.67265,7.27803 3.24215,0 5.69059,-1.84305 6.09418,-4.42601 z m 5.16592,4.15696 h 2.90583 v -8.24665 c 0,-2.19283 1.31839,-3.64574 3.36324,-3.64574 2.01794,0 3.01345,1.1704 3.01345,3.29596 v 8.59643 h 2.91929 v -9.16145 c 0,-3.24215 -1.78924,-5.23319 -4.91032,-5.23319 -2.17938,0 -3.6861,0.99552 -4.45292,2.60987 h -0.0673 v -2.36772 h -2.7713 z m 27.14801,-9.28253 c -0.2556,-2.78475 -2.47534,-5.12556 -6.12108,-5.12556 -4.02243,0 -6.6592,2.83857 -6.6592,7.33185 0,4.57399 2.63677,7.34529 6.6861,7.34529 3.4036,0 5.81167,-2.04484 6.12109,-5.0583 h -2.79821 c -0.33632,1.64126 -1.50673,2.62332 -3.29597,2.62332 -2.26009,0 -3.75337,-1.80269 -3.75337,-4.91031 0,-3.04037 1.47983,-4.91032 3.72646,-4.91032 1.89687,0 3.02691,1.19731 3.32288,2.70403 z m 8.00453,-2.78475 c 2.0314,0 3.4036,1.52018 3.4708,3.6861 h -7.07622 c 0.14798,-2.13901 1.57402,-3.6861 3.60542,-3.6861 z m 3.4574,7.91032 c -0.3902,1.23767 -1.6144,2.07175 -3.2691,2.07175 -2.32735,0 -3.80717,-1.6278 -3.80717,-4.08969 v -0.17489 h 9.99557 v -0.99551 c 0,-4.29149 -2.4485,-7.06279 -6.3767,-7.06279 -3.99555,0 -6.55161,2.95964 -6.55161,7.39911 0,4.46637 2.5157,7.27803 6.67261,7.27803 3.2422,0 5.6906,-1.84305 6.0942,-4.42601 z"
       id="text164"
       style="font-weight:500;font-size:27.5516px;font-family:'SF Pro Display';-inkscape-font-specification:'SF Pro Display Medium';fill:#02060a;stroke-width:0.460799;stroke-linejoin:round"
       transform="scale(1.0331827,0.96788303)"
       aria-label="Computer Science" /><path
       d="m 799.15771,592.15009 h 3.21074 l -7.0582,-19.54892 h -3.27848 l -7.0582,19.54892 h 3.15655 l 1.78826,-5.2835 h 7.45107 z m -5.55444,-16.29754 h 0.0813 l 2.91269,8.57551 h -5.90667 z m 10.56698,16.29754 h 2.92624 v -8.53487 c 0,-2.01857 1.16508,-3.27848 3.04817,-3.27848 0.56899,0 1.0838,0.0677 1.3141,0.16257 v -2.72303 c -0.21676,-0.0406 -0.58254,-0.10838 -1.00251,-0.10838 -1.67988,0 -2.95333,0.98896 -3.42749,2.65529 h -0.0677 v -2.42498 h -2.79077 z m 9.95735,-17.62519 v 3.37331 h -2.07275 v 2.31661 h 2.07275 v 8.18263 c 0,2.75013 1.12444,3.84747 4.01004,3.84747 0.65027,0 1.30055,-0.0542 1.62568,-0.13548 v -2.3166 c -0.18966,0.0406 -0.66382,0.0677 -0.96186,0.0677 -1.19217,0 -1.73407,-0.55544 -1.73407,-1.78826 v -7.85749 h 2.70948 v -2.31661 h -2.70948 v -3.37331 z m 22.27195,17.95032 c 4.49774,0 7.55945,-2.37079 8.30456,-6.40792 h -3.02107 c -0.60964,2.35725 -2.54692,3.75263 -5.26995,3.75263 -3.59006,0 -5.86603,-2.8856 -5.86603,-7.45108 0,-4.52483 2.30306,-7.43753 5.85249,-7.43753 2.65529,0 4.74159,1.63924 5.28349,4.14551 h 3.00752 c -0.5148,-4.07777 -3.86101,-6.8008 -8.29101,-6.8008 -5.45961,0 -8.95484,3.90166 -8.95484,10.09282 0,6.23181 3.46813,10.10637 8.95484,10.10637 z m 10.79728,-0.32513 h 2.92625 v -19.54892 h -2.92625 z m 18.15354,-14.25188 h -2.92624 v 8.30456 c 0,2.22178 -1.27346,3.6849 -3.38685,3.6849 -2.01857,0 -3.04817,-1.16508 -3.04817,-3.33267 v -8.65679 h -2.92624 v 9.22579 c 0,3.26492 1.89663,5.28349 4.99899,5.28349 2.18113,0 3.63071,-0.96187 4.41646,-2.66884 h 0.0677 v 2.41144 h 2.80432 z m 10.47215,14.49573 c 3.61716,0 5.94731,-2.84496 5.94731,-7.36979 0,-4.51129 -2.3437,-7.35625 -5.93377,-7.35625 -2.01856,0 -3.64425,1.00251 -4.49774,2.65529 h -0.0677 v -7.72202 h -2.92625 v 19.54892 h 2.84496 v -2.42499 h 0.0542 c 0.88058,1.65278 2.49272,2.66884 4.57903,2.66884 z m -0.78575,-12.26041 c 2.30306,0 3.72553,1.89664 3.72553,4.89062 0,3.02107 -1.42247,4.89061 -3.72553,4.89061 -2.22178,0 -3.77973,-1.92373 -3.77973,-4.89061 0,-2.93979 1.55795,-4.89062 3.77973,-4.89062 z"
       id="text165"
       style="font-weight:500;font-size:27.7451px;font-family:'SF Pro Display';-inkscape-font-specification:'SF Pro Display Medium';fill:#02060a;stroke-width:0.464035;stroke-linejoin:round"
       transform="scale(1.0404381,0.96113358)"
       aria-label="Art Club" /><path
       d="m 791.01786,643.41689 v 19.4409 h 3.01786 v -6.64197 h 4.17649 c 3.81273,0 6.49377,-2.61368 6.49377,-6.41294 0,-3.78579 -2.62715,-6.38599 -6.39946,-6.38599 z m 3.01786,2.54631 h 3.47592 c 2.61367,0 4.10913,1.40115 4.10913,3.85315 0,2.45201 -1.49546,3.86663 -4.12261,3.86663 h -3.46244 z m 13.06838,16.89459 h 2.91007 v -8.19132 c 0,-2.23644 1.32031,-3.71842 3.47592,-3.71842 2.04783,0 3.09869,1.25294 3.09869,3.34119 v 8.56855 h 2.92355 v -9.1344 c 0,-3.20647 -1.85922,-5.28124 -4.97138,-5.28124 -2.15561,0 -3.70495,0.95655 -4.48636,2.61368 h -0.0674 v -7.63894 h -2.88313 z m 21.30011,0.26945 c 4.05525,0 6.72281,-2.78882 6.72281,-7.35602 0,-4.55372 -2.68104,-7.34254 -6.72281,-7.34254 -4.04176,0 -6.7228,2.78882 -6.7228,7.34254 0,4.5672 2.66756,7.35602 6.7228,7.35602 z m 0,-2.39812 c -2.27686,0 -3.75884,-1.80532 -3.75884,-4.9579 0,-3.1391 1.48198,-4.94443 3.75884,-4.94443 2.27687,0 3.75885,1.80533 3.75885,4.94443 0,3.15258 -1.46851,4.9579 -3.75885,4.9579 z m 9.8215,-15.39913 v 3.35467 h -2.0613 v 2.3038 h 2.0613 v 8.13743 c 0,2.73493 1.11822,3.82621 3.98788,3.82621 0.64668,0 1.29336,-0.0539 1.6167,-0.13473 v -2.30381 c -0.18861,0.0404 -0.66015,0.0674 -0.95655,0.0674 -1.18558,0 -1.72448,-0.55238 -1.72448,-1.77838 v -7.81409 h 2.69451 v -2.3038 h -2.69451 v -3.35467 z m 13.75548,17.79725 c 4.05524,0 6.72281,-2.78882 6.72281,-7.35602 0,-4.55372 -2.68104,-7.34254 -6.72281,-7.34254 -4.04177,0 -6.72281,2.78882 -6.72281,7.34254 0,4.5672 2.66757,7.35602 6.72281,7.35602 z m 0,-2.39812 c -2.27686,0 -3.75884,-1.80532 -3.75884,-4.9579 0,-3.1391 1.48198,-4.94443 3.75884,-4.94443 2.27686,0 3.75885,1.80533 3.75885,4.94443 0,3.15258 -1.46851,4.9579 -3.75885,4.9579 z m 15.00843,-0.22903 c -2.23644,0 -3.69148,-1.80532 -3.69148,-4.76929 0,-2.95049 1.45504,-4.82317 3.69148,-4.82317 2.27686,0 3.77232,1.9131 3.77232,4.82317 0,2.92355 -1.49546,4.76929 -3.77232,4.76929 z m 0.027,7.69283 c 4.04176,0 6.65544,-2.2095 6.65544,-5.59111 v -13.91715 h -2.82924 v 2.42506 h -0.0539 c -0.86224,-1.64366 -2.50589,-2.6541 -4.5133,-2.6541 -3.63759,0 -5.95487,2.80229 -5.95487,7.26171 0,4.419 2.33075,7.19435 5.8875,7.19435 2.02089,0 3.69148,-1.01044 4.48637,-2.54632 h 0.0539 v 2.33076 c 0,1.94005 -1.34726,3.23341 -3.62412,3.23341 -1.65713,0 -2.95049,-0.78141 -3.36814,-1.96699 h -2.92355 c 0.36376,2.452 2.84271,4.23038 6.18391,4.23038 z m 9.5251,-5.33513 h 2.91007 v -8.48771 c 0,-2.00742 1.15864,-3.26036 3.03133,-3.26036 0.56585,0 1.0778,0.0674 1.30684,0.16167 v -2.70799 c -0.21557,-0.0404 -0.57932,-0.10778 -0.99697,-0.10778 -1.6706,0 -2.93702,0.9835 -3.40856,2.64062 h -0.0674 v -2.41158 h -2.77535 z m 13.71506,-2.0613 c -1.56281,0 -2.58673,-0.80836 -2.58673,-2.04783 0,-1.21253 0.9835,-1.98047 2.72146,-2.10172 l 3.48939,-0.21556 v 1.11822 c 0,1.84574 -1.58976,3.24689 -3.62412,3.24689 z m -0.80835,2.3038 c 1.85921,0 3.65106,-0.99697 4.47289,-2.57325 h 0.0674 v 2.33075 h 2.78882 v -9.76761 c 0,-2.84271 -2.19602,-4.6615 -5.63153,-4.6615 -3.50286,0 -5.68542,1.88616 -5.84709,4.44594 h 2.74841 c 0.25597,-1.26642 1.30683,-2.07477 2.9909,-2.07477 1.77838,0 2.84271,0.94308 2.84271,2.51937 v 1.09127 l -3.88009,0.22904 c -3.36814,0.18861 -5.26777,1.71101 -5.26777,4.18996 0,2.54632 1.94004,4.2708 4.71539,4.2708 z m 17.5278,-14.64467 c -2.04783,0 -3.67801,1.03739 -4.51331,2.66757 h -0.0539 v -2.43853 h -2.81577 v 18.86158 h 2.91008 v -7.0192 h 0.0674 c 0.80835,1.57628 2.42506,2.57325 4.45942,2.57325 3.55675,0 5.91445,-2.84271 5.91445,-7.32907 0,-4.48636 -2.37117,-7.3156 -5.96834,-7.3156 z m -0.76794,12.1792 c -2.23645,0 -3.71843,-1.91311 -3.71843,-4.8636 0,-2.92354 1.49546,-4.86359 3.71843,-4.86359 2.30381,0 3.74537,1.89963 3.74537,4.86359 0,2.97744 -1.44156,4.8636 -3.74537,4.8636 z m 9.08051,2.22297 h 2.91007 v -8.19132 c 0,-2.23644 1.32031,-3.71842 3.47592,-3.71842 2.04783,0 3.09869,1.25294 3.09869,3.34119 v 8.56855 h 2.92354 v -9.1344 c 0,-3.20647 -1.85921,-5.28124 -4.97137,-5.28124 -2.15561,0 -3.70495,0.95655 -4.48636,2.61368 h -0.0674 v -7.63894 h -2.88312 z m 16.61165,5.28124 c 2.95049,0 4.33817,-1.10475 5.5507,-4.54025 l 5.32166,-14.91412 h -3.07174 l -3.59718,11.53251 h -0.0404 l -3.59717,-11.53251 h -3.15258 l 5.11957,14.1866 c 0,0.0135 -0.25597,0.84877 -0.25597,0.87572 -0.4446,1.45503 -1.15864,2.02088 -2.51937,2.02088 -0.24251,0 -0.72752,0 -0.94308,-0.0539 v 2.3577 c 0.21556,0.0404 0.95655,0.0674 1.18558,0.0674 z"
       id="text166"
       style="font-weight:500;font-size:27.5918px;font-family:'SF Pro Display';-inkscape-font-specification:'SF Pro Display Medium';fill:#02060a;stroke-width:0.461471;stroke-linejoin:round"
       transform="scale(1.0346882,0.96647473)"
       aria-label="Photography" /><path
       style="font-weight:500;font-size:29.5461px;font-family:'SF Pro Display';-inkscape-font-specification:'SF Pro Display Medium';fill:#02060a;stroke:#02060a;stroke-width:0.494156;stroke-linejoin:round"
       d="m 771.88651,729.02985 v -20.81789 h -3.75097 l -6.7229,16.43214 h -0.11541 l -6.73732,-16.43214 h -3.73654 v 20.81789 h 2.94307 v -15.32127 h 0.10098 l 6.29009,15.16257 h 2.39485 l 6.27566,-15.16257 h 0.10099 v 15.32127 z m 9.81022,-12.94085 c 2.17845,0 3.64999,1.63023 3.72212,3.95295 h -7.5885 c 0.1587,-2.29387 1.68794,-3.95295 3.86638,-3.95295 z m 3.70769,8.48296 c -0.41837,1.32727 -1.73121,2.22173 -3.50571,2.22173 -2.49584,0 -4.08279,-1.74564 -4.08279,-4.38575 v -0.18755 h 10.71912 v -1.06758 c 0,-4.60215 -2.62568,-7.57407 -6.83831,-7.57407 -4.28476,0 -7.02585,3.17389 -7.02585,7.93474 0,4.7897 2.69781,7.8049 7.1557,7.8049 3.47686,0 6.10254,-1.97647 6.53534,-4.74642 z m 5.26579,-6.41993 c 0,2.12074 1.38497,3.549 4.12607,4.21263 l 2.71224,0.66363 c 1.58694,0.40396 2.16402,0.93775 2.16402,1.90434 0,1.22628 -1.15415,2.00533 -3.02963,2.00533 -1.90434,0 -3.02963,-0.8079 -3.27489,-2.26501 h -3.08733 c 0.24525,2.78437 2.62567,4.64543 6.21795,4.64543 3.72212,0 6.30451,-1.90434 6.30451,-4.67428 0,-2.23616 -1.15414,-3.3903 -4.21262,-4.12607 l -2.55355,-0.5915 c -1.57252,-0.38952 -2.32271,-1.0243 -2.32271,-1.96204 0,-1.19743 1.12529,-2.01976 2.81322,-2.01976 1.74565,0 2.85651,0.85118 3.00078,2.22173 h 2.92864 c -0.10099,-2.69781 -2.46698,-4.58772 -5.84286,-4.58772 -3.54899,0 -5.94384,1.86105 -5.94384,4.57329 z m 14.28254,0 c 0,2.12074 1.38497,3.549 4.12607,4.21263 l 2.71223,0.66363 c 1.58695,0.40396 2.16403,0.93775 2.16403,1.90434 0,1.22628 -1.15415,2.00533 -3.02963,2.00533 -1.90434,0 -3.02963,-0.8079 -3.27489,-2.26501 h -3.08734 c 0.24526,2.78437 2.62568,4.64543 6.21796,4.64543 3.72211,0 6.30451,-1.90434 6.30451,-4.67428 0,-2.23616 -1.15414,-3.3903 -4.21262,-4.12607 l -2.55355,-0.5915 c -1.57252,-0.38952 -2.32272,-1.0243 -2.32272,-1.96204 0,-1.19743 1.1253,-2.01976 2.81323,-2.01976 1.74565,0 2.85651,0.85118 3.00078,2.22173 h 2.92864 c -0.10099,-2.69781 -2.46698,-4.58772 -5.84286,-4.58772 -3.54899,0 -5.94384,1.86105 -5.94384,4.57329 z m 19.86571,8.67051 c -1.67351,0 -2.76994,-0.8656 -2.76994,-2.19287 0,-1.29841 1.05315,-2.12074 2.91421,-2.25058 l 3.73654,-0.23083 v 1.19742 c 0,1.97648 -1.70236,3.47686 -3.88081,3.47686 z m -0.86561,2.46699 c 1.9909,0 3.90967,-1.06758 4.7897,-2.75552 h 0.0721 v 2.49584 h 2.98635 v -10.45944 c 0,-3.04406 -2.35157,-4.99167 -6.03041,-4.99167 -3.75097,0 -6.08811,2.01975 -6.26123,4.76084 h 2.94307 c 0.27411,-1.35612 1.3994,-2.22173 3.20275,-2.22173 1.90434,0 3.04405,1.00988 3.04405,2.69782 v 1.16857 l -4.15492,0.24525 c -3.6067,0.20198 -5.64088,1.83221 -5.64088,4.48674 0,2.72667 2.07746,4.5733 5.04938,4.5733 z m 17.3266,-2.78438 c -2.39485,0 -3.95295,-1.93319 -3.95295,-5.10708 0,-3.15948 1.5581,-5.1648 3.95295,-5.1648 2.43813,0 4.0395,2.04861 4.0395,5.1648 0,3.13061 -1.60137,5.10708 -4.0395,5.10708 z m 0.0289,8.23771 c 4.32804,0 7.12684,-2.36599 7.12684,-5.98712 v -14.90289 h -3.02963 v 2.59682 h -0.0577 c -0.92332,-1.76007 -2.68339,-2.84208 -4.83299,-2.84208 -3.89523,0 -6.37664,3.00078 -6.37664,7.77605 0,4.73199 2.49583,7.70391 6.30451,7.70391 2.16402,0 3.95295,-1.08201 4.80413,-2.72666 h 0.0577 v 2.49583 c 0,2.07746 -1.44268,3.46244 -3.88081,3.46244 -1.77449,0 -3.15947,-0.83676 -3.6067,-2.10632 h -3.13062 c 0.38953,2.62568 3.04406,4.53002 6.62191,4.53002 z m 16.5475,-18.65386 c 2.17845,0 3.64998,1.63023 3.72212,3.95295 h -7.5885 c 0.15869,-2.29387 1.68793,-3.95295 3.86638,-3.95295 z m 3.70769,8.48296 c -0.41838,1.32727 -1.73122,2.22173 -3.50572,2.22173 -2.49583,0 -4.08278,-1.74564 -4.08278,-4.38575 v -0.18755 h 10.71912 v -1.06758 c 0,-4.60215 -2.62568,-7.57407 -6.83831,-7.57407 -4.28476,0 -7.02586,3.17389 -7.02586,7.93474 0,4.7897 2.69782,7.8049 7.1557,7.8049 3.47686,0 6.10254,-1.97647 6.53534,-4.74642 z m 5.26578,-6.41993 c 0,2.12074 1.38497,3.549 4.12607,4.21263 l 2.71224,0.66363 c 1.58695,0.40396 2.16402,0.93775 2.16402,1.90434 0,1.22628 -1.15415,2.00533 -3.02963,2.00533 -1.90434,0 -3.02963,-0.8079 -3.27489,-2.26501 h -3.08733 c 0.24525,2.78437 2.62568,4.64543 6.21795,4.64543 3.72212,0 6.30451,-1.90434 6.30451,-4.67428 0,-2.23616 -1.15414,-3.3903 -4.21262,-4.12607 l -2.55355,-0.5915 c -1.57252,-0.38952 -2.32271,-1.0243 -2.32271,-1.96204 0,-1.19743 1.12529,-2.01976 2.81322,-2.01976 1.74565,0 2.85651,0.85118 3.00078,2.22173 h 2.92864 c -0.10099,-2.69781 -2.46698,-4.58772 -5.84286,-4.58772 -3.54899,0 -5.94384,1.86105 -5.94384,4.57329 z"
       id="text167"
       transform="scale(1.0043758,0.99564327)"
       aria-label="Messages" /><path
       style="font-weight:500;font-size:28.1297px;font-family:'SF Pro Display';-inkscape-font-specification:'SF Pro Display Medium';fill:#02060a;stroke:#02060a;stroke-width:0.470467;stroke-linejoin:round"
       d="m 774.93844,833.01624 c 0,3.29645 2.43113,5.52155 6.00229,5.52155 3.85959,0 6.1671,-2.28004 6.1671,-6.20831 v -14.05111 h -3.07668 v 14.03738 c 0,2.2663 -1.09882,3.475 -3.11789,3.475 -1.7169,0 -2.91187,-1.12628 -2.95307,-2.77451 z m 20.5616,2.98054 c -1.59328,0 -2.63716,-0.82411 -2.63716,-2.08775 0,-1.23617 1.00267,-2.01908 2.77452,-2.14269 l 3.55741,-0.21977 v 1.14003 c 0,1.88172 -1.62075,3.31018 -3.69477,3.31018 z m -0.82411,2.34872 c 1.89546,0 3.72224,-1.0164 4.56009,-2.62342 h 0.0687 v 2.37619 h 2.84318 v -9.95803 c 0,-2.89813 -2.23884,-4.75238 -5.74131,-4.75238 -3.57116,0 -5.79626,1.92293 -5.96108,4.53262 h 2.80198 c 0.26097,-1.29111 1.33232,-2.11522 3.04922,-2.11522 1.81304,0 2.89812,0.96146 2.89812,2.56848 v 1.11255 l -3.95574,0.2335 c -3.4338,0.19229 -5.37046,1.74437 -5.37046,4.27165 0,2.59595 1.97787,4.35406 4.80732,4.35406 z m 10.34261,-0.24723 h 2.96681 v -8.92789 c 0,-1.85425 1.2499,-3.22777 3.008,-3.22777 1.6757,0 2.73331,1.05761 2.73331,2.71957 v 9.43609 h 2.91186 v -9.02403 c 0,-1.82679 1.22244,-3.13163 2.98054,-3.13163 1.75811,0 2.76078,1.07135 2.76078,2.93933 v 9.21633 h 2.98054 v -9.93056 c 0,-2.87065 -1.86799,-4.76611 -4.72491,-4.76611 -2.06028,0 -3.76345,1.07134 -4.50515,2.82945 h -0.0687 c -0.57688,-1.79931 -2.03281,-2.82945 -4.03815,-2.82945 -1.9504,0 -3.46128,1.07134 -4.10683,2.67836 h -0.0687 v -2.43113 h -2.82945 z m 23.29491,0 h 2.9668 v -14.44944 h -2.9668 z m 1.4834,-16.56466 c 0.96146,0 1.73064,-0.75544 1.73064,-1.68943 0,-0.94773 -0.76918,-1.70317 -1.73064,-1.70317 -0.94773,0 -1.7169,0.75544 -1.7169,1.70317 0,0.93399 0.76917,1.68943 1.7169,1.68943 z m 10.56237,4.24418 c 2.07402,0 3.47501,1.55208 3.54369,3.76344 h -7.22472 c 0.15108,-2.18389 1.60702,-3.76344 3.68103,-3.76344 z m 3.52995,8.0763 c -0.39832,1.26364 -1.64822,2.11522 -3.33765,2.11522 -2.37619,0 -3.88707,-1.66196 -3.88707,-4.1755 v -0.17856 h 10.20526 v -1.01641 c 0,-4.38153 -2.49981,-7.21098 -6.51049,-7.21098 -4.07935,0 -6.68904,3.02175 -6.68904,7.55436 0,4.56009 2.56848,7.43075 6.81266,7.43075 3.31018,0 5.80999,-1.88172 6.22205,-4.51888 z"
       id="text168"
       transform="scale(1.0551424,0.94773938)"
       aria-label="Jamie" /><path
       style="font-weight:500;font-size:28.1297px;font-family:'SF Pro Display';-inkscape-font-specification:'SF Pro Display Medium';fill:#02060a;stroke:#02060a;stroke-width:0.470467;stroke-linejoin:round"
       d="m 774.89042,940.72881 c 0.19229,3.58489 3.15909,5.8512 7.55436,5.8512 4.69744,0 7.65051,-2.32125 7.65051,-6.02975 0,-2.89813 -1.68943,-4.53262 -5.75505,-5.49409 l -2.1839,-0.53567 c -2.55475,-0.63182 -3.59862,-1.45593 -3.59862,-2.85692 0,-1.75811 1.63449,-2.96681 4.02441,-2.96681 2.38993,0 4.02442,1.19497 4.20297,3.17284 h 2.99428 c -0.0961,-3.42007 -2.9668,-5.76879 -7.15604,-5.76879 -4.23045,0 -7.21099,2.34872 -7.21099,5.76879 0,2.76077 1.68944,4.46394 5.32926,5.34299 l 2.56849,0.61809 c 2.56848,0.63182 3.65356,1.55207 3.65356,3.09042 0,1.77184 -1.79931,3.06295 -4.29912,3.06295 -2.60969,0 -4.51888,-1.29111 -4.73864,-3.25525 z m 22.66309,3.42007 c -1.59329,0 -2.63716,-0.82411 -2.63716,-2.08775 0,-1.23617 1.00267,-2.01908 2.77451,-2.14269 l 3.55742,-0.21977 v 1.14003 c 0,1.88172 -1.62076,3.31018 -3.69477,3.31018 z m -0.82412,2.34872 c 1.89546,0 3.72224,-1.01641 4.56009,-2.62342 h 0.0687 v 2.37619 h 2.84319 v -9.95803 c 0,-2.89813 -2.23884,-4.75238 -5.74132,-4.75238 -3.57115,0 -5.79626,1.92293 -5.96108,4.53262 h 2.80198 c 0.26097,-1.29111 1.33232,-2.11522 3.04922,-2.11522 1.81304,0 2.89813,0.96146 2.89813,2.56848 v 1.11255 l -3.95574,0.2335 c -3.4338,0.19229 -5.37047,1.74437 -5.37047,4.27165 0,2.59595 1.97787,4.35406 4.80732,4.35406 z m 10.34261,-0.24723 h 2.96681 v -8.92789 c 0,-1.85425 1.2499,-3.22777 3.00801,-3.22777 1.67569,0 2.7333,1.05761 2.7333,2.71957 v 9.43609 h 2.91187 v -9.02403 c 0,-1.82679 1.22243,-3.13163 2.98054,-3.13163 1.7581,0 2.76077,1.07135 2.76077,2.93933 v 9.21633 h 2.98054 v -9.93056 c 0,-2.87065 -1.86799,-4.76611 -4.72491,-4.76611 -2.06028,0 -3.76344,1.07134 -4.50515,2.82945 h -0.0687 c -0.57688,-1.79931 -2.03281,-2.82945 -4.03815,-2.82945 -1.9504,0 -3.46127,1.07134 -4.10683,2.67836 h -0.0687 v -2.43113 h -2.8294 z"
       id="text169"
       transform="scale(1.0551424,0.94773938)"
       aria-label="Sam" /><rect
       style="fill:#ffffff;fill-opacity:1;stroke:none;stroke-width:0.446;stroke-linejoin:round;stroke-dasharray:none;stroke-opacity:1"
       id="rect171"
       width="425"
       height="202.5"
       x="1121"
       y="416"
       ry="14" /><rect
       style="fill:#ffffff;fill-opacity:1;stroke:none;stroke-width:0.463189;stroke-linejoin:round;stroke-dasharray:none;stroke-opacity:1"
       id="rect172"
       width="425"
       height="218.4099"
       x="1121"
       y="652.09009"
       ry="15.099944" /><rect
       style="fill:#ffffff;fill-opacity:1;stroke:none;stroke-width:0.463189;stroke-linejoin:round;stroke-dasharray:none;stroke-opacity:1"
       id="rect174"
       width="425"
       height="218.4099"
       x="1121"
       y="904.09003"
       ry="15.099944" /><path
       d="m 1250.9142,474.40878 c 0,3.74408 2.7613,6.27134 6.8174,6.27134 4.3837,0 7.0045,-2.58966 7.0045,-7.05136 v -15.95914 h -3.4944 v 15.94354 c 0,2.57406 -1.2481,3.94689 -3.5413,3.94689 -1.9501,0 -3.3073,-1.27923 -3.3541,-3.15127 z m 24.6642,6.08414 c 4.6957,0 7.7845,-3.22928 7.7845,-8.51779 0,-5.27292 -3.1044,-8.50219 -7.7845,-8.50219 -4.6801,0 -7.7846,3.22927 -7.7846,8.50219 0,5.28851 3.0889,8.51779 7.7846,8.51779 z m 0,-2.77687 c -2.6365,0 -4.3525,-2.09044 -4.3525,-5.74092 0,-3.63488 1.716,-5.72533 4.3525,-5.72533 2.6364,0 4.3525,2.09045 4.3525,5.72533 0,3.65048 -1.7005,5.74092 -4.3525,5.74092 z m 10.3898,2.46486 h 3.3697 v -9.82822 c 0,-2.32445 1.3416,-3.77528 3.51,-3.77528 0.6553,0 1.2481,0.078 1.5133,0.1872 v -3.13566 c -0.2496,-0.0468 -0.6708,-0.12481 -1.1545,-0.12481 -1.9344,0 -3.4008,1.13883 -3.9468,3.05767 h -0.078 v -2.79246 h -3.2137 z m 15.9435,0.2808 c 2.3869,0 4.2589,-1.20122 5.2262,-3.07326 h 0.062 v 2.79246 h 3.276 v -22.51129 h -3.3852 v 8.82979 h -0.062 c -0.9205,-1.80964 -2.7925,-2.99527 -5.1482,-2.99527 -4.1185,0 -6.8641,3.29168 -6.8641,8.47099 0,5.17931 2.7456,8.48658 6.8953,8.48658 z m 0.8893,-14.1183 c 2.5896,0 4.3213,2.23084 4.3213,5.63172 0,3.43207 -1.7317,5.63172 -4.3213,5.63172 -2.6677,0 -4.3369,-2.16845 -4.3369,-5.63172 0,-3.44768 1.6692,-5.63172 4.3369,-5.63172 z m 16.8639,11.45065 c -1.8096,0 -2.9952,-0.93602 -2.9952,-2.37126 0,-1.40403 1.1388,-2.29325 3.1512,-2.43365 l 4.0405,-0.2496 v 1.29482 c 0,2.13725 -1.8408,3.75969 -4.1965,3.75969 z m -0.936,2.66765 c 2.1529,0 4.2277,-1.15442 5.1793,-2.97966 h 0.078 v 2.69886 h 3.2293 v -11.31025 c 0,-3.29167 -2.5429,-5.39772 -6.5209,-5.39772 -4.0561,0 -6.5834,2.18405 -6.7706,5.14812 h 3.1825 c 0.2964,-1.46644 1.5132,-2.40246 3.4633,-2.40246 2.0592,0 3.2916,1.09203 3.2916,2.91727 v 1.26362 l -4.4929,0.26521 c -3.9001,0.2184 -6.0997,1.98124 -6.0997,4.85171 0,2.94846 2.2464,4.9453 5.4601,4.9453 z m 11.7471,-0.2808 h 3.3696 v -9.56301 c 0,-2.54286 1.5289,-4.22769 3.9001,-4.22769 2.3401,0 3.4945,1.35723 3.4945,3.82208 v 9.96862 h 3.3853 v -10.62383 c 0,-3.75969 -2.0749,-6.06854 -5.6941,-6.06854 -2.5273,0 -4.2745,1.15443 -5.1638,3.02647 h -0.078 v -2.74566 h -3.2136 z"
       id="text174"
       style="font-weight:500;font-size:31.9495px;font-family:'SF Pro Display';-inkscape-font-specification:'SF Pro Display Medium';fill:#000205;stroke-width:0.667944;stroke-linejoin:round"
       aria-label="Jordan" /><path
       style="font-weight:500;font-size:28.6288px;font-family:'SF Pro Display';-inkscape-font-specification:'SF Pro Display Medium';fill:#353337;stroke-width:0.896365;stroke-linejoin:round"
       d="m 1262.0462,522.1264 h 3.313 l -7.283,-20.17156 h -3.3829 l -7.283,20.17156 h 3.2571 l 1.8452,-5.45177 h 7.6884 z m -5.7313,-16.81662 h 0.084 l 3.0054,8.84865 h -6.0948 z m 10.9035,16.81662 h 3.0195 v -8.56907 c 0,-2.27856 1.3699,-3.78828 3.4947,-3.78828 2.0968,0 3.1313,1.21617 3.1313,3.42483 v 8.93252 h 3.0334 v -9.51963 c 0,-3.36892 -1.8592,-5.4378 -5.1023,-5.4378 -2.2646,0 -3.8302,1.03444 -4.627,2.71191 h -0.07 v -2.46029 h -2.8797 z m 17.0403,5.47973 c 3.0614,0 4.5012,-1.14627 5.7593,-4.71089 l 5.5217,-15.47465 h -3.1872 l -3.7324,11.96595 h -0.042 l -3.7324,-11.96595 h -3.271 l 5.312,14.71979 c 0,0.014 -0.2656,0.88067 -0.2656,0.90863 -0.4613,1.50972 -1.2022,2.09684 -2.6141,2.09684 -0.2516,0 -0.7549,0 -0.9785,-0.0559 v 2.44631 c 0.2236,0.0419 0.9925,0.0699 1.2301,0.0699 z m 18.9414,-5.20015 c 4.2077,0 6.9755,-2.89363 6.9755,-7.63248 0,-4.72487 -2.7818,-7.6185 -6.9755,-7.6185 -4.1936,0 -6.9754,2.89363 -6.9754,7.6185 0,4.73885 2.7678,7.63248 6.9754,7.63248 z m 0,-2.48824 c -2.3624,0 -3.9001,-1.87318 -3.9001,-5.14424 0,-3.25709 1.5377,-5.13026 3.9001,-5.13026 2.3625,0 3.9002,1.87317 3.9002,5.13026 0,3.27106 -1.5237,5.14424 -3.9002,5.14424 z m 9.31,2.20866 h 3.0194 v -8.56907 c 0,-2.27856 1.37,-3.78828 3.4948,-3.78828 2.0968,0 3.1312,1.21617 3.1312,3.42483 v 8.93252 h 3.0335 v -9.51963 c 0,-3.36892 -1.8592,-5.4378 -5.1023,-5.4378 -2.2646,0 -3.8303,1.03444 -4.6271,2.71191 h -0.07 v -2.46029 h -2.8796 z m 21.7372,-12.53907 c 2.1108,0 3.5367,1.57961 3.6065,3.83022 h -7.3529 c 0.1538,-2.22265 1.6356,-3.83022 3.7464,-3.83022 z m 3.5926,8.21959 c -0.4054,1.28606 -1.6775,2.15275 -3.3969,2.15275 -2.4184,0 -3.956,-1.69144 -3.956,-4.24958 v -0.18173 h 10.3863 v -1.03444 c 0,-4.45927 -2.5442,-7.33892 -6.626,-7.33892 -4.1517,0 -6.8077,3.07535 -6.8077,7.68839 0,4.641 2.614,7.56259 6.9335,7.56259 3.3689,0 5.9131,-1.91511 6.3324,-4.59906 z m 30.5718,-10.38633 h -2.9914 l -2.684,11.57454 h -0.07 l -3.0754,-11.57454 h -2.9076 l -3.0613,11.57454 h -0.056 l -2.6839,-11.57454 h -3.0195 l 4.04,14.70581 h 3.1172 l 3.0614,-11.01537 h 0.07 l 3.0894,11.01537 h 3.1452 z m 6.7379,12.56704 c -1.6216,0 -2.684,-0.83873 -2.684,-2.12479 0,-1.2581 1.0205,-2.0549 2.8238,-2.18071 l 3.6205,-0.22366 v 1.16024 c 0,1.91511 -1.6495,3.36892 -3.7603,3.36892 z m -0.8388,2.39039 c 1.9291,0 3.7883,-1.03443 4.641,-2.66997 h 0.07 v 2.41835 h 2.8937 v -10.1347 c 0,-2.94955 -2.2786,-4.8367 -5.8432,-4.8367 -3.6345,0 -5.8991,1.95704 -6.0669,4.61303 h 2.8517 c 0.2656,-1.31401 1.356,-2.15275 3.1033,-2.15275 1.8453,0 2.9496,0.97853 2.9496,2.61406 v 1.13229 l -4.0259,0.23764 c -3.4948,0.19571 -5.4658,1.77532 -5.4658,4.34744 0,2.64201 2.013,4.43131 4.8926,4.43131 z m 10.5261,-0.25162 h 3.0195 v -8.56907 c 0,-2.27856 1.3699,-3.78828 3.4947,-3.78828 2.0969,0 3.1313,1.21617 3.1313,3.42483 v 8.93252 h 3.0334 v -9.51963 c 0,-3.36892 -1.8592,-5.4378 -5.1023,-5.4378 -2.2646,0 -3.8302,1.03444 -4.627,2.71191 h -0.07 v -2.46029 h -2.8797 z m 16.4672,-18.18655 v 3.48074 h -2.1388 v 2.3904 h 2.1388 v 8.44326 c 0,2.83771 1.1603,3.97001 4.1378,3.97001 0.6709,0 1.3419,-0.0559 1.6774,-0.13979 v -2.3904 c -0.1957,0.0419 -0.6849,0.0699 -0.9925,0.0699 -1.2301,0 -1.7893,-0.57314 -1.7893,-1.84522 v -8.10776 h 2.7958 v -2.3904 h -2.7958 v -3.48074 z m 14.9854,0 v 3.48074 h -2.1388 v 2.3904 h 2.1388 v 8.44326 c 0,2.83771 1.1602,3.97001 4.1377,3.97001 0.671,0 1.342,-0.0559 1.6775,-0.13979 v -2.3904 c -0.1957,0.0419 -0.685,0.0699 -0.9925,0.0699 -1.2301,0 -1.7893,-0.57314 -1.7893,-1.84522 v -8.10776 h 2.7958 v -2.3904 h -2.7958 v -3.48074 z m 14.2725,18.46613 c 4.2076,0 6.9754,-2.89363 6.9754,-7.63248 0,-4.72487 -2.7818,-7.6185 -6.9754,-7.6185 -4.1937,0 -6.9755,2.89363 -6.9755,7.6185 0,4.73885 2.7678,7.63248 6.9755,7.63248 z m 0,-2.48824 c -2.3625,0 -3.9002,-1.87318 -3.9002,-5.14424 0,-3.25709 1.5377,-5.13026 3.9002,-5.13026 2.3624,0 3.9001,1.87317 3.9001,5.13026 0,3.27106 -1.5237,5.14424 -3.9001,5.14424 z m 14.8456,-8.33143 c 0,2.0549 1.3419,3.43881 3.9979,4.08184 l 2.6281,0.64303 c 1.5376,0.39141 2.0968,0.90863 2.0968,1.84521 0,1.18821 -1.1183,1.94307 -2.9356,1.94307 -1.8452,0 -2.9355,-0.78282 -3.1732,-2.19469 h -2.9915 c 0.2377,2.69793 2.5442,4.50121 6.0249,4.50121 3.6066,0 6.1088,-1.84521 6.1088,-4.52916 0,-2.16673 -1.1183,-3.28505 -4.0818,-3.99797 l -2.4743,-0.57314 c -1.5237,-0.37743 -2.2506,-0.9925 -2.2506,-1.90113 0,-1.16025 1.0904,-1.95704 2.7259,-1.95704 1.6914,0 2.7678,0.82475 2.9076,2.15275 h 2.8377 c -0.098,-2.61406 -2.3904,-4.44529 -5.6614,-4.44529 -3.4388,0 -5.7593,1.80327 -5.7593,4.43131 z m 14.9853,-7.64646 v 3.48074 h -2.1387 v 2.3904 h 2.1387 v 8.44326 c 0,2.83771 1.1603,3.97001 4.1378,3.97001 0.671,0 1.342,-0.0559 1.6775,-0.13979 v -2.3904 c -0.1957,0.0419 -0.685,0.0699 -0.9925,0.0699 -1.2302,0 -1.7893,-0.57314 -1.7893,-1.84522 v -8.10776 h 2.7957 v -2.3904 h -2.7957 v -3.48074 z m 20.9125,3.48074 h -3.0195 v 8.56907 c 0,2.29254 -1.314,3.80227 -3.4947,3.80227 -2.0828,0 -3.1452,-1.20219 -3.1452,-3.43881 v -8.93253 h -3.0195 v 9.51964 c 0,3.36892 1.9571,5.45177 5.1582,5.45177 2.2506,0 3.7464,-0.9925 4.5572,-2.75384 h 0.07 v 2.48824 h 2.8936 z m 8.4992,14.95743 c 2.1387,0 3.8162,-1.07637 4.6829,-2.75384 h 0.056 v 2.50222 h 2.9356 v -20.17156 h -3.0335 v 7.91206 h -0.056 c -0.8247,-1.62155 -2.5022,-2.68395 -4.613,-2.68395 -3.6904,0 -6.1507,2.94955 -6.1507,7.59055 0,4.641 2.4603,7.60452 6.1787,7.60452 z m 0.7967,-12.65091 c 2.3205,0 3.8722,1.99899 3.8722,5.04639 0,3.07536 -1.5517,5.04638 -3.8722,5.04638 -2.3903,0 -3.8861,-1.94306 -3.8861,-5.04638 0,-3.08934 1.4958,-5.04639 3.8861,-5.04639 z m 11.4208,17.87902 c 3.0614,0 4.5012,-1.14627 5.7593,-4.71089 l 5.5217,-15.47465 h -3.1872 l -3.7324,11.96595 h -0.042 l -3.7324,-11.96595 h -3.271 l 5.312,14.71979 c 0,0.014 -0.2656,0.88067 -0.2656,0.90863 -0.4613,1.50972 -1.2022,2.09684 -2.6141,2.09684 -0.2516,0 -0.7549,0 -0.9785,-0.0559 v 2.44631 c 0.2236,0.0419 0.9925,0.0699 1.2301,0.0699 z m 19.7242,-5.47973 h 3.0335 v -12.31541 h 2.9355 v -2.36244 h -2.9775 v -1.38391 c 0,-1.30004 0.6151,-1.95705 1.9291,-1.95705 0.4054,0 0.8108,0.028 1.1044,0.0839 v -2.23663 c -0.3915,-0.0699 -1.0764,-0.13979 -1.6915,-0.13979 -2.9915,0 -4.3335,1.34198 -4.3335,4.19368 v 1.43982 h -2.0269 v 2.36244 h 2.0269 z m 14.0628,0.27958 c 4.2077,0 6.9755,-2.89363 6.9755,-7.63248 0,-4.72487 -2.7818,-7.6185 -6.9755,-7.6185 -4.1936,0 -6.9754,2.89363 -6.9754,7.6185 0,4.73885 2.7678,7.63248 6.9754,7.63248 z m 0,-2.48824 c -2.3624,0 -3.9001,-1.87318 -3.9001,-5.14424 0,-3.25709 1.5377,-5.13026 3.9001,-5.13026 2.3625,0 3.9002,1.87317 3.9002,5.13026 0,3.27106 -1.5237,5.14424 -3.9002,5.14424 z m 9.31,2.20866 h 3.0194 v -8.80671 c 0,-2.08285 1.2022,-3.38289 3.1453,-3.38289 0.5871,0 1.1183,0.0699 1.3559,0.16774 v -2.80976 c -0.2236,-0.0419 -0.601,-0.11183 -1.0344,-0.11183 -1.7334,0 -3.0474,1.02046 -3.5367,2.73987 h -0.07 v -2.50223 h -2.8796 z"
       id="text175"
       aria-label="Anyone want to study for" /><path
       d="m 1253.8907,696.66962 h -3.4944 v 14.60192 c 0,4.8517 3.4632,8.28378 9.1106,8.28378 5.6473,0 9.1106,-3.43208 9.1106,-8.28378 v -14.60192 h -3.4789 v 14.30551 c 0,3.21367 -2.0437,5.47572 -5.6317,5.47572 -3.5881,0 -5.6162,-2.26205 -5.6162,-5.47572 z m 27.0198,5.83452 c -2.3712,0 -4.2589,1.20123 -5.2261,3.08887 h -0.062 v -2.82366 h -3.2605 v 21.84048 h 3.3697 v -8.12778 h 0.078 c 0.936,1.82524 2.8081,2.97966 5.1637,2.97966 4.1185,0 6.8486,-3.29167 6.8486,-8.48658 0,-5.19492 -2.7457,-8.47099 -6.911,-8.47099 z m -0.8892,14.10271 c -2.5897,0 -4.3057,-2.21525 -4.3057,-5.63172 0,-3.38528 1.7316,-5.63172 4.3057,-5.63172 2.6677,0 4.3369,2.19964 4.3369,5.63172 0,3.44767 -1.6692,5.63172 -4.3369,5.63172 z m 17.254,-11.41945 c 2.3556,0 3.9469,1.76284 4.0249,4.2745 h -8.2058 c 0.1716,-2.48046 1.8252,-4.2745 4.1809,-4.2745 z m 4.0093,9.173 c -0.4524,1.43523 -1.8721,2.40246 -3.7909,2.40246 -2.6989,0 -4.4149,-1.88765 -4.4149,-4.74251 v -0.2028 h 11.591 v -1.15443 c 0,-4.97651 -2.8392,-8.19018 -7.3945,-8.19018 -4.6333,0 -7.5974,3.43208 -7.5974,8.58019 0,5.17931 2.9173,8.43979 7.7378,8.43979 3.7597,0 6.5989,-2.13725 7.0669,-5.13252 z m 12.8547,-9.173 c 2.3556,0 3.9468,1.76284 4.0248,4.2745 h -8.2057 c 0.1716,-2.48046 1.8252,-4.2745 4.1809,-4.2745 z m 4.0092,9.173 c -0.4524,1.43523 -1.872,2.40246 -3.7908,2.40246 -2.6989,0 -4.4149,-1.88765 -4.4149,-4.74251 v -0.2028 h 11.591 v -1.15443 c 0,-4.97651 -2.8392,-8.19018 -7.3945,-8.19018 -4.6333,0 -7.5974,3.43208 -7.5974,8.58019 0,5.17931 2.9172,8.43979 7.7378,8.43979 3.7596,0 6.5989,-2.13725 7.0669,-5.13252 z m 5.9906,4.82051 h 3.3696 v -9.82822 c 0,-2.32445 1.3417,-3.77528 3.5101,-3.77528 0.6552,0 1.248,0.078 1.5133,0.1872 v -3.13566 c -0.2497,-0.0468 -0.6709,-0.12481 -1.1545,-0.12481 -1.9344,0 -3.4008,1.13883 -3.9469,3.05767 h -0.078 v -2.79246 h -3.2136 z"
       id="text176"
       style="font-weight:500;font-size:31.9495px;font-family:'SF Pro Display';-inkscape-font-specification:'SF Pro Display Medium';fill:#000205;stroke-width:0.667944;stroke-linejoin:round"
       aria-label="Upeer" /><path
       d="m 1254.09,971.388 v -16.58316 h 0.1404 l 11.669,16.58316 h 3.1513 v -22.51129 h -3.4009 v 16.59876 h -0.1248 l -11.669,-16.59876 h -3.1669 V 971.388 Z m 25.5689,-13.99351 c 2.3557,0 3.9469,1.76284 4.0249,4.2745 h -8.2058 c 0.1717,-2.48046 1.8253,-4.2745 4.1809,-4.2745 z m 4.0093,9.17301 c -0.4524,1.43523 -1.872,2.40245 -3.7909,2.40245 -2.6988,0 -4.4149,-1.88764 -4.4149,-4.74251 v -0.2028 h 11.5911 v -1.15443 c 0,-4.9765 -2.8393,-8.19018 -7.3946,-8.19018 -4.6333,0 -7.5973,3.43208 -7.5973,8.58019 0,5.17932 2.9172,8.43979 7.7377,8.43979 3.7597,0 6.599,-2.13725 7.067,-5.13251 z m 13.0419,5.13251 c 4.6957,0 7.7846,-3.22927 7.7846,-8.51779 0,-5.27291 -3.1045,-8.50219 -7.7846,-8.50219 -4.6801,0 -7.7846,3.22928 -7.7846,8.50219 0,5.28852 3.0889,8.51779 7.7846,8.51779 z m 0,-2.77686 c -2.6364,0 -4.3525,-2.09045 -4.3525,-5.74093 0,-3.63488 1.7161,-5.72532 4.3525,-5.72532 2.6365,0 4.3525,2.09044 4.3525,5.72532 0,3.65048 -1.7004,5.74093 -4.3525,5.74093 z m 10.3898,2.46485 h 3.3697 v -9.56301 c 0,-2.54285 1.5288,-4.22769 3.9001,-4.22769 2.34,0 3.4945,1.35723 3.4945,3.82208 v 9.96862 h 3.3852 v -10.62383 c 0,-3.75968 -2.0748,-6.06853 -5.6941,-6.06853 -2.5272,0 -4.2745,1.15442 -5.1637,3.02646 h -0.078 v -2.74566 h -3.2137 z"
       id="text177"
       style="font-weight:500;font-size:31.9495px;font-family:'SF Pro Display';-inkscape-font-specification:'SF Pro Display Medium';fill:#000205;stroke-width:0.667944;stroke-linejoin:round"
       aria-label="Neon" /><path
       style="display:inline;fill:none;fill-opacity:1;stroke:#5a6774;stroke-width:2.046;stroke-linejoin:round;stroke-dasharray:none;stroke-opacity:1"
       d="m 1264.0418,567.3648 c 0,0 -2.5597,-5.03814 -6.0988,-5.03814 -8.039,0 -7.8666,6.27558 -7.8666,7.24785 -0.088,8.04333 13.4351,16.61701 13.4351,16.61701 0,0 13.5233,-7.95495 13.6117,-16.44023 0,-1.23744 0.4422,-7.37971 -7.071,-7.33623 -4.5975,-0.14395 -6.0104,4.94974 -6.0104,4.94974 z"
       id="path177" /><path
       d="m 1296.4961,583.86652 h 2.7269 v -17.96775 h -2.7518 l -4.7317,3.36195 v 2.73936 l 4.6943,-3.33704 h 0.062 z m 13.647,0.33619 c 4.3083,0 6.836,-3.62343 6.836,-9.3512 0,-5.6904 -2.5402,-9.28893 -6.836,-9.28893 -4.2834,0 -6.8609,3.61098 -6.8609,9.30139 0,5.72776 2.5526,9.33874 6.8609,9.33874 z m 0,-2.34091 c -2.565,0 -4.0343,-2.66466 -4.0343,-6.99783 0,-4.27092 1.4942,-6.96048 4.0343,-6.96048 2.5401,0 4.0219,2.67711 4.0219,6.96048 0,4.34563 -1.4569,6.99783 -4.0219,6.99783 z"
       id="text178"
       style="font-weight:500;font-size:25.501px;font-family:'SF Pro Display';-inkscape-font-specification:'SF Pro Display Medium';fill:#5a6774;stroke-width:2.44571;stroke-linejoin:round"
       aria-label="10" /><path
       d="m 1398.0518,571.04082 v 0.0249 h 2.6398 v -0.0374 c 0,-1.86775 1.4817,-3.28724 3.4491,-3.28724 1.8677,0 3.3121,1.27007 3.3121,2.86388 0,1.40704 -0.5728,2.35337 -2.7643,4.63202 l -6.4873,6.61183 v 1.89266 h 12.2898 v -2.35337 h -8.5294 v -0.0623 l 4.4951,-4.51995 c 2.6273,-2.68956 3.7479,-4.24601 3.7479,-6.33789 0,-2.85143 -2.5526,-5.03047 -5.9768,-5.03047 -3.5736,0 -6.176,2.36581 -6.176,5.60324 z"
       id="text179"
       style="font-weight:500;font-size:25.501px;font-family:'SF Pro Display';-inkscape-font-specification:'SF Pro Display Medium';fill:#5a6774;stroke-width:2.44571;stroke-linejoin:round"
       aria-label="2" /><path
       style="fill:none;fill-opacity:1;stroke:#5a6774;stroke-width:2.046;stroke-linejoin:round;stroke-dasharray:none;stroke-opacity:1"
       d="m 1364.9813,563.652 c -4.1543,0.0884 -7.2037,2.65188 -7.4247,6.32 l 0.044,7.69004 c 0.1326,2.20971 3.4472,5.03814 4.6846,5.08233 l -1.0164,5.08233 5.0823,-4.24264 8.8389,0.0442 c 2.8842,0.0442 6.3196,-2.46637 6.3487,-5.62561 l 0.059,-8.03065 c 0.044,-3.24318 -2.4305,-6.23161 -6.408,-6.32 z"
       id="path179" /><rect
       style="fill:#f5f7f6;fill-opacity:1;stroke:none;stroke-width:2.046;stroke-linejoin:round;stroke-dasharray:none;stroke-opacity:1"
       id="rect179"
       width="299.81326"
       height="22.627417"
       x="1247.6899"
       y="756.00067"
       ry="11.313708" /><rect
       style="fill:#f5f7f6;fill-opacity:1;stroke:none;stroke-width:2.046;stroke-linejoin:round;stroke-dasharray:none;stroke-opacity:1"
       id="rect180"
       width="299.81326"
       height="22.627417"
       x="1247.6899"
       y="798.00067"
       ry="11.313708" /><rect
       style="fill:#f5f7f6;fill-opacity:1;stroke:none;stroke-width:2.13451;stroke-linejoin:round;stroke-dasharray:none;stroke-opacity:1"
       id="rect181"
       width="299.81326"
       height="24.627417"
       x="1247.6899"
       y="999.00067"
       ry="12.313708" /><path
       d="m 783.20898,264.63477 a 40.393475,40.393475 0 0 0 -40.39257,40.39257 40.393475,40.393475 0 0 0 11.85937,28.59375 l 0.0742,-0.30859 c 0.1875,-1.34375 5.75,-5.40625 7.4375,-5.5 l 10.0625,-2 c 0,0 2.84494,5.84911 6.78125,6.0625 l 7.90625,-0.0625 c 4.15102,0 6.875,-5.4375 6.875,-5.4375 l 8.0625,0.46875 c 5.77365,0.78477 9.21019,5.76781 9.85742,6.78711 a 40.393475,40.393475 0 0 0 11.8711,-28.60352 40.393475,40.393475 0 0 0 -40.39454,-40.39257 z"
       style="display:inline;fill:#a9dcfd;stroke-width:2.046;stroke-linejoin:round"
       id="path183" /><path
       style="display:inline;fill:#1b2b30;fill-opacity:1;stroke:none;stroke-width:2.046;stroke-linejoin:round;stroke-dasharray:none;stroke-opacity:1"
       d="m 763.0625,329.9375 -2.875,-9.375 c 0,0 0.9375,-23.125 3.0625,-30.625 0,0 5.4375,-10.5625 11.75,-12.5 0,0 2.6063,-1.08678 6.08073,-1.16765 3.47443,-0.0809 6.90227,0.69733 6.90227,0.69733 5.65272,1.41042 11.8295,10.09532 11.8295,10.09532 2.8125,6.8125 6.625,27.1875 6.625,27.1875 C 807.1875,321.8125 803,328 803,328 Z"
       id="path187" /><path
       style="display:inline;fill:#e9a97b;fill-opacity:1;stroke:none;stroke-width:2.046;stroke-linejoin:round;stroke-dasharray:none;stroke-opacity:1"
       d="m 771.05575,298.841 c 1.12695,-0.19887 9.51768,-5.78499 18.48075,-6.47379 2.8125,-0.125 7.3837,-0.10163 8.21253,0.77274 0.82883,0.87437 2.87262,4.92766 2.56326,9.25869 -0.0884,1.98874 -3.97747,14.07583 -10.07627,15.62263 0,0 -0.0838,2.77144 0.48615,4.28684 0.56999,1.5154 3.09359,4.15425 3.09359,4.15425 0,0 -1.06066,12.59534 -1.14905,12.41856 -0.0884,-0.17677 -23.15775,-3.18198 -23.15775,-3.18198 l 2.35026,-9.65577 c 0,0 4.17492,-2.0128 4.32307,-3.95603 0.14815,-1.94323 0.26516,-4.19845 0.26516,-4.19845 -4.64039,-2.38649 -5.83363,-9.98788 -5.83363,-9.98788 -0.7513,-1.01647 -2.12192,-1.48933 -2.51907,-2.16552 -0.39715,-0.67619 -0.15259,-4.67358 -0.0442,-5.17071 0.10839,-0.49713 1.02751,-1.25954 3.0052,-1.72358 z"
       id="path186" /><path
       d="m 811.73242,333.63086 c -0.64723,-1.0193 -4.08377,-6.00234 -9.85742,-6.78711 l -8.0625,-0.46875 c 0,0 -2.72398,5.4375 -6.875,5.4375 l -7.90625,0.0625 c -3.93631,-0.21339 -6.78125,-6.0625 -6.78125,-6.0625 -1.98874,-0.0221 -10.0625,1.84532 -10.0625,1.84532 -2.30622,0.71242 -7.25,4.31093 -7.4375,5.65468 l -0.0742,0.30859 c 7.573,7.557 17.83467,11.80103 28.5332,11.80078 10.69375,2.5e-4 20.95124,-4.23998 28.52344,-11.79101 z"
       style="display:inline;fill:#0267bb;stroke-width:2.046;stroke-linejoin:round"
       id="path185" /><circle
       style="display:inline;fill:#a4d8ee;fill-opacity:1;stroke:none;stroke-width:2.046;stroke-linejoin:round;stroke-dasharray:none;stroke-opacity:1"
       id="path188"
       cx="773.44226"
       cy="791.82703"
       r="29.565903" /><circle
       style="display:inline;fill:#9bdcc9;fill-opacity:1;stroke:none;stroke-width:2.046;stroke-linejoin:round;stroke-dasharray:none;stroke-opacity:1"
       id="circle188"
       cx="773.44226"
       cy="893.82703"
       r="29.565903" /><circle
       style="fill:#9bdcc9;fill-opacity:1;stroke:none;stroke-width:2.046;stroke-linejoin:round;stroke-dasharray:none;stroke-opacity:1"
       id="path189"
       cx="1188.75"
       cy="483.75"
       r="37.75" /><circle
       style="display:inline;fill:#aee0f0;fill-opacity:1;stroke:none;stroke-width:2.046;stroke-linejoin:round;stroke-dasharray:none;stroke-opacity:1"
       id="circle189"
       cx="1188.75"
       cy="717.75"
       r="37.75" /><path
       d="m 1188.75,932 a 37.75,37.75 0 0 0 -37.75,37.75 37.75,37.75 0 0 0 13.0332,28.5332 c 2.1358,-4.41334 8.011,-12.18408 22.9336,-12.31054 21.4448,-0.68079 25.6848,11.82949 25.9707,12.76171 A 37.75,37.75 0 0 0 1226.5,969.75 37.75,37.75 0 0 0 1188.75,932 Z"
       style="display:inline;fill:#9fd6f2;stroke-width:2.046;stroke-linejoin:round"
       id="path192" /><circle
       style="display:inline;fill:#0d83cf;fill-opacity:1;stroke:none;stroke-width:1.72141;stroke-linejoin:round;stroke-dasharray:none;stroke-opacity:1"
       id="path190"
       cx="1188.7009"
       cy="964.34723"
       r="16.406408" /><path
       d="m 1212.9375,998.73437 c -0.2859,-0.93222 -4.5259,-13.4425 -25.9707,-12.76171 -14.9226,0.12646 -20.7978,7.8972 -22.9336,12.31054 a 37.75,37.75 0 0 0 24.7168,9.2168 37.75,37.75 0 0 0 24.1875,-8.76563 z"
       style="fill:#0d83cf;stroke-width:2.046;stroke-linejoin:round"
       id="path194" /><circle
       style="display:inline;fill:#0d8fcf;fill-opacity:1;stroke:none;stroke-width:1.72141;stroke-linejoin:round;stroke-dasharray:none;stroke-opacity:1"
       id="circle194"
       cx="1188.7009"
       cy="712.34723"
       r="16.406408" /><path
       d="m 1212.9375,746.73437 c -0.2859,-0.93222 -4.5259,-13.4425 -25.9707,-12.76171 -14.9226,0.12646 -20.7978,7.8972 -22.9336,12.31054 a 37.75,37.75 0 0 0 24.7168,9.2168 37.75,37.75 0 0 0 24.1875,-8.76563 z"
       style="fill:#0d8fcf;fill-opacity:1;stroke-width:2.046;stroke-linejoin:round"
       id="path195" /><circle
       style="display:inline;fill:#25ad5b;fill-opacity:1;stroke:none;stroke-width:1.72141;stroke-linejoin:round;stroke-dasharray:none;stroke-opacity:1"
       id="circle195"
       cx="1188.7009"
       cy="478.34723"
       r="16.406408" /><path
       d="m 1212.9375,512.73437 c -0.2859,-0.93222 -4.5259,-13.4425 -25.9707,-12.76171 -14.9226,0.12646 -20.7978,7.8972 -22.9336,12.31054 a 37.75,37.75 0 0 0 24.7168,9.2168 37.75,37.75 0 0 0 24.1875,-8.76563 z"
       style="fill:#25ad5b;fill-opacity:1;stroke-width:2.046;stroke-linejoin:round"
       id="path196" /><path
       style="display:inline;fill:#0f171a;fill-opacity:1;stroke:none;stroke-width:1.49018;stroke-linejoin:round;stroke-dasharray:none;stroke-opacity:1"
       d="m 758.51811,912.20361 -2.09398,-6.82819 c 0,0 0.68282,-16.84286 2.23054,-22.30541 0,0 3.96035,-7.6931 8.558,-9.10425 0,0 1.89827,-0.79155 4.42884,-0.85045 2.53057,-0.0589 5.0272,0.50789 5.0272,0.50789 4.1171,1.02727 8.6159,7.35283 8.6159,7.35283 2.04846,4.96182 4.82525,19.80175 4.82525,19.80175 0.54626,5.50807 -2.50367,10.01467 -2.50367,10.01467 z"
       id="path197" /><path
       style="display:inline;fill:#854807;fill-opacity:1;stroke:none;stroke-width:1.49018;stroke-linejoin:round;stroke-dasharray:none;stroke-opacity:1"
       d="m 764.33991,889.55478 c 0.82081,-0.14484 6.93211,-4.21344 13.46028,-4.71512 2.04845,-0.091 5.37784,-0.074 5.98151,0.56282 0.60367,0.63684 2.09225,3.58901 1.86693,6.74348 -0.0644,1.44847 -2.89695,10.25199 -7.33896,11.37858 0,0 -0.061,2.01855 0.35409,3.12228 0.41514,1.10373 2.25318,3.02571 2.25318,3.02571 0,0 -0.77252,9.17369 -0.8369,9.04493 -0.0644,-0.12874 -16.86671,-2.31756 -16.86671,-2.31756 l 1.71178,-7.03268 c 0,0 3.04077,-1.46601 3.14867,-2.88134 0.1079,-1.41533 0.19313,-3.0579 0.19313,-3.0579 -3.37979,-1.73818 -4.24887,-7.27457 -4.24887,-7.27457 -0.5472,-0.74034 -1.54548,-1.08474 -1.83474,-1.57724 -0.28926,-0.49249 -0.11114,-3.40395 -0.0322,-3.76603 0.0789,-0.36208 0.74837,-0.91738 2.1888,-1.25536 z"
       id="path198" /><path
       d="m 793.96637,914.89363 c -0.47141,-0.74239 -2.97438,-4.37174 -7.17956,-4.94332 l -5.87224,-0.34141 c 0,0 -1.98399,3.96035 -5.00734,3.96035 l -5.75844,0.0455 c -2.86697,-0.15542 -4.93906,-4.41556 -4.93906,-4.41556 -1.44847,-0.0161 -7.32892,1.34402 -7.32892,1.34402 -1.67971,0.51888 -5.28046,3.13982 -5.41703,4.11853 l -0.054,0.22476 c 5.51572,5.50406 12.98971,8.59516 20.78187,8.59498 7.78869,1.8e-4 15.25963,-3.08815 20.77477,-8.58787 z"
       style="display:inline;fill:#d567bb;fill-opacity:1;stroke-width:1.49018;stroke-linejoin:round"
       id="path199" /><circle
       style="display:inline;fill:#0d8fcf;fill-opacity:1;stroke:none;stroke-width:1.37714;stroke-linejoin:round;stroke-dasharray:none;stroke-opacity:1"
       id="circle199"
       cx="773.61493"
       cy="786.82666"
       r="13.125305" /><path
       d="m 793.00445,814.33672 c -0.22872,-0.74578 -3.62077,-10.75414 -20.77684,-10.2095 -11.93824,0.10117 -16.63847,6.31784 -18.34713,9.84856 a 30.200409,30.200409 0 0 0 19.77371,7.37354 30.200409,30.200409 0 0 0 19.35026,-7.0126 z"
       style="fill:#0d8fcf;fill-opacity:1;stroke-width:1.63682;stroke-linejoin:round"
       id="path200" /></g></svg>
