<?xml version="1.0" encoding="UTF-8" standalone="no"?>
<!-- Created with Inkscape (http://www.inkscape.org/) -->

<svg
   width="56.887184mm"
   height="56.887188mm"
   viewBox="0 0 56.887184 56.887188"
   version="1.1"
   id="svg1"
   sodipodi:docname="Logo.svg"
   inkscape:version="1.4.2 (f4327f4, 2025-05-13)"
   xmlns:inkscape="http://www.inkscape.org/namespaces/inkscape"
   xmlns:sodipodi="http://sodipodi.sourceforge.net/DTD/sodipodi-0.dtd"
   xmlns:xlink="http://www.w3.org/1999/xlink"
   xmlns="http://www.w3.org/2000/svg"
   xmlns:svg="http://www.w3.org/2000/svg">
  <sodipodi:namedview
     id="namedview1"
     pagecolor="#ffffff"
     bordercolor="#000000"
     borderopacity="0.25"
     inkscape:showpageshadow="2"
     inkscape:pageopacity="0.0"
     inkscape:pagecheckerboard="0"
     inkscape:deskcolor="#d1d1d1"
     inkscape:document-units="mm"
     inkscape:zoom="1.9790081"
     inkscape:cx="31.834129"
     inkscape:cy="129.61038"
     inkscape:window-width="1920"
     inkscape:window-height="1111"
     inkscape:window-x="-9"
     inkscape:window-y="-9"
     inkscape:window-maximized="1"
     inkscape:current-layer="layer1" />
  <defs
     id="defs1">
    <linearGradient
       id="linearGradient2">
      <stop
         style="stop-color:#93ff32;stop-opacity:1;"
         offset="0"
         id="stop2" />
      <stop
         style="stop-color:#00ffe0;stop-opacity:1;"
         offset="1"
         id="stop3" />
    </linearGradient>
    <linearGradient
       xlink:href="#linearGradient2"
       id="linearGradient3"
       x1="66.284348"
       y1="93.858147"
       x2="98.095291"
       y2="141.01981"
       gradientUnits="userSpaceOnUse" />
  </defs>
  <g
     id="layer1"
     transform="translate(-76.556406,-120.05642)">
    <path
       id="rect1"
       style="display:inline;fill:url(#linearGradient3);stroke-width:0.264999;paint-order:markers fill stroke"
       d="m 81.994587,107.77505 -4.013192,12.81989 h 8.177796 l -4.012675,-12.81989 z"
       transform="translate(22.810224,31.061105)" />
    <path
       id="path5"
       style="display:none;fill:url(#linearGradient3);stroke-width:0.264999;paint-order:markers fill stroke"
       d="m 78.328661,101.78833 -10.867554,31.30093 h 6.724654 l 2.385901,-7.59178 H 87.56944 l 2.385901,7.59178 h 6.962883 L 86.028966,101.78833 Z m 3.665926,5.98672 h 0.151929 l 4.012675,12.81989 h -8.177796 z"
       transform="translate(22.810224,31.061105)" />
    <path
       id="path4"
       style="fill:url(#linearGradient3);stroke-width:0.264999;paint-order:markers fill stroke"
       d="M 63.176614 88.995315 A 9.430492 9.430492 0 0 0 53.746182 98.425747 L 53.746182 136.45185 A 9.430492 9.430492 0 0 0 63.176614 145.88228 L 101.20272 145.88228 A 9.430492 9.430492 0 0 0 110.63315 136.45185 L 110.63315 98.425747 A 9.430492 9.430492 0 0 0 101.20272 88.995315 L 63.176614 88.995315 z M 78.328661 101.78833 L 86.028966 101.78833 L 96.918224 133.08926 L 89.955341 133.08926 L 87.56944 125.49748 L 76.571662 125.49748 L 74.185761 133.08926 L 67.461107 133.08926 L 78.328661 101.78833 z "
       transform="translate(22.810224,31.061105)" />
  </g>
</svg>
