<?xml version="1.0" encoding="UTF-8" standalone="no"?>
<!-- Created with Inkscape (http://www.inkscape.org/) -->

<svg
   version="1.1"
   id="svg1"
   width="1536"
   height="1024"
   viewBox="0 0 1536 1024"
   xmlns="http://www.w3.org/2000/svg"
   xmlns:svg="http://www.w3.org/2000/svg">
  <defs
     id="defs1">
    <filter
       style="color-interpolation-filters:sRGB"
       id="filter65"
       x="-0.012193155"
       y="-0.026674844"
       width="1.0243863"
       height="1.081136">
      <feFlood
         result="flood"
         in="SourceGraphic"
         flood-opacity="0.309804"
         flood-color="rgb(0,0,0)"
         id="feFlood64" />
      <feGaussianBlur
         result="blur"
         in="SourceGraphic"
         stdDeviation="0.600000"
         id="feGaussianBlur64" />
      <feOffset
         result="offset"
         in="blur"
         dx="0.000000"
         dy="1.500000"
         id="feOffset64" />
      <feComposite
         result="comp1"
         operator="in"
         in="flood"
         in2="offset"
         id="feComposite64" />
      <feComposite
         result="comp2"
         operator="over"
         in="SourceGraphic"
         in2="comp1"
         id="feComposite65" />
    </filter>
    <filter
       style="color-interpolation-filters:sRGB"
       id="filter71"
       x="-0.039774742"
       y="-0.064776034"
       width="1.0795495"
       height="1.1295521">
      <feGaussianBlur
         stdDeviation="0.5 0.5"
         result="fbSourceGraphic"
         id="feGaussianBlur71" />
      <feColorMatrix
         result="fbSourceGraphicAlpha"
         in="fbSourceGraphic"
         values="0 0 0 -1 0 0 0 0 -1 0 0 0 0 -1 0 0 0 0 1 0"
         id="feColorMatrix71" />
      <feGaussianBlur
         id="feGaussianBlur72"
         stdDeviation="0.5 0.5"
         result="blur"
         in="fbSourceGraphic" />
    </filter>
    <filter
       style="color-interpolation-filters:sRGB"
       id="filter73"
       x="-0.091197007"
       y="-0.035670865"
       width="1.182394"
       height="1.0713417">
      <feGaussianBlur
         stdDeviation="0.5 0.5"
         result="blur"
         id="feGaussianBlur73" />
    </filter>
    <filter
       style="color-interpolation-filters:sRGB"
       id="filter92"
       x="-0.019611482"
       y="-0.2406819"
       width="1.039223"
       height="1.3649048">
      <feFlood
         result="flood"
         in="SourceGraphic"
         flood-opacity="0.309804"
         flood-color="rgb(0,0,0)"
         id="feFlood91" />
      <feGaussianBlur
         result="blur"
         in="SourceGraphic"
         stdDeviation="1.200000"
         id="feGaussianBlur91" />
      <feOffset
         result="offset"
         in="blur"
         dx="0.000000"
         dy="-2.700000"
         id="feOffset91" />
      <feComposite
         result="comp1"
         operator="in"
         in="flood"
         in2="offset"
         id="feComposite91" />
      <feComposite
         result="comp2"
         operator="over"
         in="SourceGraphic"
         in2="comp1"
         id="feComposite92" />
    </filter>
    <filter
       style="color-interpolation-filters:sRGB"
       id="filter132"
       x="-0.10040367"
       y="-0.096953946"
       width="1.1349689"
       height="1.1683937">
      <feFlood
         result="flood"
         in="SourceGraphic"
         flood-opacity="0.309804"
         flood-color="rgb(255,255,255)"
         id="feFlood131" />
      <feGaussianBlur
         result="blur"
         in="SourceGraphic"
         stdDeviation="2.100000"
         id="feGaussianBlur131" />
      <feOffset
         result="offset"
         in="blur"
         dx="-9.600000"
         dy="-1.800000"
         id="feOffset131" />
      <feComposite
         result="comp1"
         operator="out"
         in="flood"
         in2="offset"
         id="feComposite131" />
      <feComposite
         result="comp2"
         operator="atop"
         in="comp1"
         in2="SourceGraphic"
         id="feComposite132" />
    </filter>
    <filter
       style="color-interpolation-filters:sRGB"
       id="filter151"
       x="-0.015129306"
       y="-0.033393463"
       width="1.0397144"
       height="1.0533051">
      <feFlood
         result="flood"
         in="SourceGraphic"
         flood-opacity="0.168627"
         flood-color="rgb(0,0,0)"
         id="feFlood150" />
      <feGaussianBlur
         result="blur"
         in="SourceGraphic"
         stdDeviation="0.800000"
         id="feGaussianBlur150" />
      <feOffset
         result="offset"
         in="blur"
         dx="1.200000"
         dy="-1.300000"
         id="feOffset150" />
      <feComposite
         result="comp1"
         operator="out"
         in="flood"
         in2="offset"
         id="feComposite150" />
      <feComposite
         result="comp2"
         operator="atop"
         in="comp1"
         in2="SourceGraphic"
         id="feComposite151" />
    </filter>
  </defs>
  <g
     id="g1">
    <rect
       style="fill:#bd8fd0;fill-opacity:1"
       id="rect1"
       width="1568.9357"
       height="1058.7322"
       x="-14.37193"
       y="-16.767252" />
    <path
       style="fill:#ffffff;fill-opacity:1"
       id="rect2"
       width="870.6994"
       height="935.37311"
       x="706.61987"
       y="154.49825"
       d="m 723.02782,154.49825 854.29148,0 V 1089.8714 H 706.61987 V 170.9062 a 16.407951,16.407951 135 0 1 16.40795,-16.40795 z" />
    <circle
       style="fill:#ff341b;fill-opacity:1"
       id="path2"
       cx="746.7312"
       cy="190.97011"
       r="13.549985" />
    <circle
       style="fill:#ffc600;fill-opacity:1"
       id="circle2"
       cx="788.43097"
       cy="190.97011"
       r="13.549985" />
    <circle
       style="fill:#48e554;fill-opacity:1"
       id="circle3"
       cx="830.03101"
       cy="190.97011"
       r="13.549985" />
    <path
       style="fill:#f0f0f0;fill-opacity:1;stroke-width:1.05147"
       id="rect3"
       width="687.21869"
       height="41.319298"
       x="879.68188"
       y="171.2655"
       d="m 892.17001,171.2655 h 674.73059 v 41.3193 H 890.76108 a 11.079199,11.079199 45 0 1 -11.0792,-11.0792 v -17.75197 a 12.488123,12.488123 135 0 1 12.48813,-12.48813 z" />
    <rect
       style="fill:#c9cdcd;fill-opacity:1;stroke-width:4.77603"
       id="rect4"
       width="846.89587"
       height="1.5719298"
       x="706.61993"
       y="228.69707" />
    <path
       style="fill:#f0f0f0;fill-opacity:1"
       id="rect5"
       width="308.68561"
       height="190.54668"
       x="738.47418"
       y="368.39023"
       d="m 750.54213,368.39023 h 284.54967 c 6.6857,0 12.068,5.3823 12.068,12.06795 v 166.41078 c 0,6.68564 -5.3823,12.06794 -12.068,12.06794 H 750.54213 c -6.68564,0 -12.06795,-5.3823 -12.06795,-12.06794 V 380.45818 c 0,-6.68565 5.38231,-12.06795 12.06795,-12.06795 z"
       ry="12.067948" />
    <path
       style="fill:#f0f0f0;fill-opacity:1;stroke-width:1.35558"
       id="rect10"
       width="490.44211"
       height="739.46991"
       x="1068.9122"
       y="367.68188"
       ry="0"
       rx="0"
       d="m 1086.5178,367.68188 h 472.8365 V 1107.1518 H 1068.9122 V 385.2875 a 17.605614,17.605614 135 0 1 17.6056,-17.60562 z" />
    <path
       style="font-weight:500;font-size:117.184px;font-family:'SF Pro Display';-inkscape-font-specification:'SF Pro Display Medium';fill:#2c2e2b;stroke-width:1.09858"
       d="m 76.733357,449.44521 c 0.801062,14.93409 13.160312,24.37518 31.470313,24.37518 19.56881,0 31.87084,-9.66997 31.87084,-25.11903 0,-12.07315 -7.0379,-18.88218 -23.97465,-22.8875 l -9.09778,-2.23153 c -10.642692,-2.63206 -14.991317,-6.06519 -14.991317,-11.9015 0,-7.324 6.809031,-12.35925 16.765097,-12.35925 9.95606,0 16.76509,4.97803 17.50893,13.21753 h 12.47369 c -0.40053,-14.24747 -12.35925,-24.03187 -29.81097,-24.03187 -17.623372,0 -30.039841,9.7844 -30.039841,24.03187 0,11.50097 7.037906,18.5961 22.200871,22.2581 l 10.69991,2.57484 c 10.69991,2.63206 15.22019,6.46572 15.22019,12.87422 0,7.38122 -7.49566,12.75978 -17.90947,12.75978 -10.871564,0 -18.82497,-5.37856 -19.74047,-13.56084 z m 73.812183,23.00193 h 12.35925 v -34.789 c 0,-9.49831 5.60744,-15.79237 14.76244,-15.79237 8.69725,0 13.16031,5.32134 13.16031,14.19025 v 36.39112 h 12.41647 v -38.79431 c 0,-13.61806 -7.89619,-22.42975 -21.11372,-22.42975 -9.155,0 -15.73515,4.06253 -19.05384,11.10044 h -0.2861 v -32.44303 h -12.24481 z m 90.46284,1.14438 c 17.22285,0 28.55216,-11.84428 28.55216,-31.24144 0,-19.33994 -11.38653,-31.18422 -28.55216,-31.18422 -17.16562,0 -28.55215,11.84428 -28.55215,31.18422 0,19.39716 11.32931,31.24144 28.55215,31.24144 z m 0,-10.18494 c -9.66997,0 -15.96403,-7.66731 -15.96403,-21.0565 0,-13.33197 6.29406,-20.99928 15.96403,-20.99928 9.66997,0 15.96403,7.66731 15.96403,20.99928 0,13.38919 -6.23684,21.0565 -15.96403,21.0565 z m 69.46357,-52.12628 c -8.69725,0 -15.62072,4.40584 -19.16828,11.32931 h -0.22888 v -10.35659 h -11.95872 v 80.10625 h 12.35925 V 462.5483 h 0.2861 c 3.43312,6.69459 10.29937,10.92878 18.9394,10.92878 15.10575,0 25.11903,-12.07316 25.11903,-31.127 0,-19.05384 -10.0705,-31.06978 -25.3479,-31.06978 z m -3.26147,51.72575 c -9.49831,0 -15.79238,-8.12506 -15.79238,-20.65597 0,-12.41647 6.35129,-20.65597 15.79238,-20.65597 9.78441,0 15.90681,8.06785 15.90681,20.65597 0,12.64535 -6.1224,20.65597 -15.90681,20.65597 z m 35.93337,-13.56084 c 0.80106,14.93409 13.16031,24.37518 31.47031,24.37518 19.56881,0 31.87084,-9.66997 31.87084,-25.11903 0,-12.07315 -7.0379,-18.88218 -23.97465,-22.8875 l -9.09778,-2.23153 c -10.64269,-2.63206 -14.99132,-6.06519 -14.99132,-11.9015 0,-7.324 6.80904,-12.35925 16.7651,-12.35925 9.95606,0 16.76509,4.97803 17.50894,13.21753 h 12.47368 c -0.40053,-14.24747 -12.35925,-24.03187 -29.81097,-24.03187 -17.62337,0 -30.03984,9.7844 -30.03984,24.03187 0,11.50097 7.03791,18.5961 22.20088,22.2581 l 10.6999,2.57484 c 10.69991,2.63206 15.22019,6.46572 15.22019,12.87422 0,7.38122 -7.49566,12.75978 -17.90947,12.75978 -10.87156,0 -18.82497,-5.37856 -19.74047,-13.56084 z m 73.35443,23.00193 h 12.35925 v -37.19218 c 0,-7.72453 5.2069,-13.44641 12.5309,-13.44641 6.98069,0 11.38653,4.40584 11.38653,11.32931 v 39.30928 h 12.13038 v -37.59271 c 0,-7.6101 5.09247,-13.04588 12.41647,-13.04588 7.324,0 11.50096,4.46306 11.50096,12.24481 v 38.39378 h 12.41647 v -41.36915 c 0,-11.95872 -7.78175,-19.85491 -19.68325,-19.85491 -8.58281,0 -15.67793,4.46306 -18.76775,11.78706 h -0.28609 c -2.40319,-7.49565 -8.46837,-11.78706 -16.82231,-11.78706 -8.12506,0 -14.41913,4.46306 -17.10841,11.15766 h -0.28609 v -10.12772 h -11.78706 z m 117.69898,-8.75447 c -6.63737,0 -10.986,-3.43312 -10.986,-8.69724 0,-5.14969 4.17697,-8.41116 11.55819,-8.92613 l 14.81966,-0.9155 v 4.74916 c 0,7.83897 -6.75182,13.78971 -15.39185,13.78971 z m -3.43312,9.78441 c 7.89618,0 15.50628,-4.23419 18.99662,-10.92878 h 0.2861 v 9.89884 h 11.84428 v -41.48359 c 0,-12.07316 -9.32666,-19.79769 -23.91744,-19.79769 -14.87688,0 -24.14631,8.01063 -24.83294,18.88219 h 11.67263 c 1.08715,-5.37856 5.55022,-8.81169 12.70256,-8.81169 7.55287,0 12.07316,4.00532 12.07316,10.69991 v 4.63472 l -16.479,0.97272 c -14.30469,0.80106 -22.37253,7.26678 -22.37253,17.79503 0,10.81434 8.23949,18.13834 20.02656,18.13834 z m 43.0857,-1.02994 h 12.35925 v -36.04781 c 0,-8.52559 4.92081,-13.84694 12.87422,-13.84694 2.40318,0 4.5775,0.2861 5.55022,0.68663 v -11.50097 c -0.9155,-0.17166 -2.46041,-0.45775 -4.23419,-0.45775 -7.09513,0 -12.47369,4.17697 -14.47635,11.21488 h -0.28609 v -10.24216 h -11.78706 z m 42.0558,-74.44159 v 14.24747 h -8.75447 v 9.78441 h 8.75447 v 34.56012 c 0,11.61541 4.74916,16.25012 16.93675,16.25012 2.7465,0 5.493,-0.22887 6.86625,-0.57218 v -9.78441 c -0.80106,0.17166 -2.80372,0.28609 -4.06253,0.28609 -5.03525,0 -7.324,-2.34596 -7.324,-7.55287 v -33.18687 h 11.44375 v -9.78441 h -11.44375 v -14.24747 z"
       id="text12"
       transform="scale(0.99749357,1.0025127)"
       aria-label="ShopSmart" />
    <g
       id="text13"
       style="font-weight:500;font-size:64px;font-family:'SF Pro Display';-inkscape-font-specification:'SF Pro Display Medium';fill:#2c2e2b"
       aria-label="Mini eCommerce&#10;Platform">
      <path
         d="m 144.2305,585.18994 v -45.09375 h -8.125 l -14.5625,35.59375 h -0.25 l -14.59375,-35.59375 h -8.093751 v 45.09375 h 6.375001 v -33.1875 h 0.21875 l 13.625,32.84375 h 5.1875 l 13.59375,-32.84375 h 0.21875 v 33.1875 z m 7.71875,0 h 6.75 v -32.875 h -6.75 z m 3.375,-37.6875 c 2.1875,0 3.9375,-1.71875 3.9375,-3.84375 0,-2.15625 -1.75,-3.875 -3.9375,-3.875 -2.15625,0 -3.90625,1.71875 -3.90625,3.875 0,2.125 1.75,3.84375 3.90625,3.84375 z m 10.28125,37.6875 h 6.75 v -19.15625 c 0,-5.09375 3.0625,-8.46875 7.8125,-8.46875 4.6875,0 7,2.71875 7,7.65625 v 19.96875 h 6.78125 v -21.28125 c 0,-7.53125 -4.15625,-12.15625 -11.40625,-12.15625 -5.0625,0 -8.5625,2.3125 -10.34375,6.0625 H 172.043 v -5.5 h -6.4375 z m 35.0625,0 h 6.75 v -32.875 h -6.75 z m 3.375,-37.6875 c 2.1875,0 3.9375,-1.71875 3.9375,-3.84375 0,-2.15625 -1.75,-3.875 -3.9375,-3.875 -2.15625,0 -3.90625,1.71875 -3.90625,3.875 0,2.125 1.75,3.84375 3.90625,3.84375 z m 37,9.65625 c 4.71875,0 7.90625,3.53125 8.0625,8.5625 H 232.668 c 0.34375,-4.96875 3.65625,-8.5625 8.375,-8.5625 z m 8.03125,18.375 c -0.90625,2.875 -3.75,4.8125 -7.59375,4.8125 -5.40625,0 -8.84375,-3.78125 -8.84375,-9.5 v -0.40625 h 23.21875 v -2.3125 c 0,-9.96875 -5.6875,-16.40625 -14.8125,-16.40625 -9.28125,0 -15.21875,6.875 -15.21875,17.1875 0,10.375 5.84375,16.90625 15.5,16.90625 7.53125,0 13.21875,-4.28125 14.15625,-10.28125 z m 31.84375,10.40625 c 10.375,0 17.4375,-5.46875 19.15625,-14.78125 h -6.96875 c -1.40625,5.4375 -5.875,8.65625 -12.15625,8.65625 -8.28125,0 -13.53125,-6.65625 -13.53125,-17.1875 0,-10.4375 5.3125,-17.15625 13.5,-17.15625 6.125,0 10.9375,3.78125 12.1875,9.5625 h 6.9375 c -1.1875,-9.40625 -8.90625,-15.6875 -19.125,-15.6875 -12.59375,0 -20.65625,9 -20.65625,23.28125 0,14.375 8,23.3125 20.65625,23.3125 z m 38.78125,-0.125 c 9.40625,0 15.59375,-6.46875 15.59375,-17.0625 0,-10.5625 -6.21875,-17.03125 -15.59375,-17.03125 -9.375,0 -15.59375,6.46875 -15.59375,17.03125 0,10.59375 6.1875,17.0625 15.59375,17.0625 z m 0,-5.5625 c -5.28125,0 -8.71875,-4.1875 -8.71875,-11.5 0,-7.28125 3.4375,-11.46875 8.71875,-11.46875 5.28125,0 8.71875,4.1875 8.71875,11.46875 0,7.3125 -3.40625,11.5 -8.71875,11.5 z m 20.8125,4.9375 h 6.75 v -20.3125 c 0,-4.21875 2.84375,-7.34375 6.84375,-7.34375 3.8125,0 6.21875,2.40625 6.21875,6.1875 v 21.46875 h 6.625 v -20.53125 c 0,-4.15625 2.78125,-7.125 6.78125,-7.125 4,0 6.28125,2.4375 6.28125,6.6875 v 20.96875 h 6.78125 v -22.59375 c 0,-6.53125 -4.25,-10.84375 -10.75,-10.84375 -4.6875,0 -8.5625,2.4375 -10.25,6.4375 h -0.15625 c -1.3125,-4.09375 -4.625,-6.4375 -9.1875,-6.4375 -4.4375,0 -7.875,2.4375 -9.34375,6.09375 h -0.15625 v -5.53125 h -6.4375 z m 52.78125,0 h 6.75 v -20.3125 c 0,-4.21875 2.84375,-7.34375 6.84375,-7.34375 3.8125,0 6.21875,2.40625 6.21875,6.1875 v 21.46875 h 6.625 v -20.53125 c 0,-4.15625 2.78125,-7.125 6.78125,-7.125 4,0 6.28125,2.4375 6.28125,6.6875 v 20.96875 h 6.78125 v -22.59375 c 0,-6.53125 -4.25,-10.84375 -10.75,-10.84375 -4.6875,0 -8.5625,2.4375 -10.25,6.4375 H 418.418 c -1.3125,-4.09375 -4.625,-6.4375 -9.1875,-6.4375 -4.4375,0 -7.875,2.4375 -9.34375,6.09375 h -0.15625 v -5.53125 h -6.4375 z m 66.53125,-28.03125 c 4.71875,0 7.90625,3.53125 8.0625,8.5625 h -16.4375 c 0.34375,-4.96875 3.65625,-8.5625 8.375,-8.5625 z m 8.03125,18.375 c -0.90625,2.875 -3.75,4.8125 -7.59375,4.8125 -5.40625,0 -8.84375,-3.78125 -8.84375,-9.5 v -0.40625 h 23.21875 v -2.3125 c 0,-9.96875 -5.6875,-16.40625 -14.8125,-16.40625 -9.28125,0 -15.21875,6.875 -15.21875,17.1875 0,10.375 5.84375,16.90625 15.5,16.90625 7.53125,0 13.21875,-4.28125 14.15625,-10.28125 z m 12,9.65625 h 6.75 v -19.6875 c 0,-4.65625 2.6875,-7.5625 7.03125,-7.5625 1.3125,0 2.5,0.15625 3.03125,0.375 v -6.28125 c -0.5,-0.0937 -1.34375,-0.25 -2.3125,-0.25 -3.875,0 -6.8125,2.28125 -7.90625,6.125 H 486.293 v -5.59375 h -6.4375 z m 47.8125,-21.5625 c -0.59375,-6.46875 -5.75,-11.90625 -14.21875,-11.90625 -9.34375,0 -15.46875,6.59375 -15.46875,17.03125 0,10.625 6.125,17.0625 15.53125,17.0625 7.90625,0 13.5,-4.75 14.21875,-11.75 h -6.5 c -0.78125,3.8125 -3.5,6.09375 -7.65625,6.09375 -5.25,0 -8.71875,-4.1875 -8.71875,-11.40625 0,-7.0625 3.4375,-11.40625 8.65625,-11.40625 4.40625,0 7.03125,2.78125 7.71875,6.28125 z m 18.59375,-6.46875 c 4.71875,0 7.90625,3.53125 8.0625,8.5625 h -16.4375 c 0.34375,-4.96875 3.65625,-8.5625 8.375,-8.5625 z m 8.03125,18.375 c -0.90625,2.875 -3.75,4.8125 -7.59375,4.8125 -5.40625,0 -8.84375,-3.78125 -8.84375,-9.5 v -0.40625 h 23.21875 v -2.3125 c 0,-9.96875 -5.6875,-16.40625 -14.8125,-16.40625 -9.28125,0 -15.21875,6.875 -15.21875,17.1875 0,10.375 5.84375,16.90625 15.5,16.90625 7.53125,0 13.21875,-4.28125 14.15625,-10.28125 z"
         id="path15" />
      <path
         d="m 98.605499,620.09619 v 45.09375 h 7.000001 v -15.40625 h 9.6875 c 8.84375,0 15.0625,-6.0625 15.0625,-14.875 0,-8.78125 -6.09375,-14.8125 -14.84375,-14.8125 z m 7.000001,5.90625 h 8.0625 c 6.0625,0 9.53125,3.25 9.53125,8.9375 0,5.6875 -3.46875,8.96875 -9.5625,8.96875 h -8.03125 z m 30.3125,39.1875 h 6.75 v -45.09375 h -6.75 z m 25.1875,-4.78125 c -3.625,0 -6,-1.875 -6,-4.75 0,-2.8125 2.28125,-4.59375 6.3125,-4.875 l 8.09375,-0.5 v 2.59375 c 0,4.28125 -3.6875,7.53125 -8.40625,7.53125 z m -1.875,5.34375 c 4.3125,0 8.46875,-2.3125 10.375,-5.96875 h 0.15625 v 5.40625 h 6.46875 v -22.65625 c 0,-6.59375 -5.09375,-10.8125 -13.0625,-10.8125 -8.125,0 -13.1875,4.375 -13.5625,10.3125 h 6.375 c 0.59375,-2.9375 3.03125,-4.8125 6.9375,-4.8125 4.125,0 6.59375,2.1875 6.59375,5.84375 v 2.53125 l -9,0.53125 c -7.8125,0.4375 -12.21875,3.96875 -12.21875,9.71875 0,5.90625 4.5,9.90625 10.9375,9.90625 z m 25.5,-41.21875 v 7.78125 h -4.78125 v 5.34375 h 4.78125 v 18.875 c 0,6.34375 2.59375,8.875 9.25,8.875 1.5,0 3,-0.125 3.75,-0.3125 v -5.34375 c -0.4375,0.0937 -1.53125,0.15625 -2.21875,0.15625 -2.75,0 -4,-1.28125 -4,-4.125 v -18.125 h 6.25 v -5.34375 h -6.25 v -7.78125 z m 20.53125,40.65625 h 6.78125 v -27.53125 h 6.5625 v -5.28125 h -6.65625 v -3.09375 c 0,-2.90625 1.375,-4.375 4.3125,-4.375 0.90625,0 1.8125,0.0625 2.46875,0.1875 v -5 c -0.875,-0.15625 -2.40625,-0.3125 -3.78125,-0.3125 -6.6875,0 -9.6875,3 -9.6875,9.375 v 3.21875 h -4.53125 v 5.28125 h 4.53125 z m 31.4375,0.625 c 9.40625,0 15.59375,-6.46875 15.59375,-17.0625 0,-10.5625 -6.21875,-17.03125 -15.59375,-17.03125 -9.375,0 -15.59375,6.46875 -15.59375,17.03125 0,10.59375 6.1875,17.0625 15.59375,17.0625 z m 0,-5.5625 c -5.28125,0 -8.71875,-4.1875 -8.71875,-11.5 0,-7.28125 3.4375,-11.46875 8.71875,-11.46875 5.28125,0 8.71875,4.1875 8.71875,11.46875 0,7.3125 -3.40625,11.5 -8.71875,11.5 z m 20.8125,4.9375 h 6.75 v -19.6875 c 0,-4.65625 2.6875,-7.5625 7.03125,-7.5625 1.3125,0 2.5,0.15625 3.03125,0.375 v -6.28125 c -0.5,-0.0937 -1.34375,-0.25 -2.3125,-0.25 -3.875,0 -6.8125,2.28125 -7.90625,6.125 h -0.15625 v -5.59375 h -6.4375 z m 21,0 h 6.75 v -20.3125 c 0,-4.21875 2.84375,-7.34375 6.84375,-7.34375 3.8125,0 6.21875,2.40625 6.21875,6.1875 v 21.46875 h 6.625 v -20.53125 c 0,-4.15625 2.78125,-7.125 6.78125,-7.125 4,0 6.28125,2.4375 6.28125,6.6875 v 20.96875 h 6.78125 v -22.59375 c 0,-6.53125 -4.25,-10.84375 -10.75,-10.84375 -4.6875,0 -8.5625,2.4375 -10.25,6.4375 h -0.15625 c -1.3125,-4.09375 -4.625,-6.4375 -9.1875,-6.4375 -4.4375,0 -7.875,2.4375 -9.34375,6.09375 h -0.15625 v -5.53125 h -6.4375 z"
         id="path16" />
    </g>
    <rect
       style="fill:#2c2e2b;fill-opacity:1;stroke-width:1.0213"
       id="rect16"
       width="178.75089"
       height="65.272514"
       x="764.1076"
       y="397.02457"
       ry="13.897726" />
    <path
       d="m 732.93359,311.93134 c 0.4375,8.15625 7.1875,13.3125 17.1875,13.3125 10.6875,0 17.40625,-5.28125 17.40625,-13.71875 0,-6.59375 -3.84375,-10.3125 -13.09375,-12.5 l -4.96875,-1.21875 c -5.8125,-1.4375 -8.1875,-3.3125 -8.1875,-6.5 0,-4 3.71875,-6.75 9.15625,-6.75 5.4375,0 9.15625,2.71875 9.5625,7.21875 h 6.8125 c -0.21875,-7.78125 -6.75,-13.125 -16.28125,-13.125 -9.625,0 -16.40625,5.34375 -16.40625,13.125 0,6.28125 3.84375,10.15625 12.125,12.15625 l 5.84375,1.40625 c 5.84375,1.4375 8.3125,3.53125 8.3125,7.03125 0,4.03125 -4.09375,6.96875 -9.78125,6.96875 -5.9375,0 -10.28125,-2.9375 -10.78125,-7.40625 z m 40.3125,12.5625 h 6.75 v -19 c 0,-5.1875 3.0625,-8.625 8.0625,-8.625 4.75,0 7.1875,2.90625 7.1875,7.75 v 19.875 h 6.78125 v -21.1875 c 0,-7.4375 -4.3125,-12.25 -11.53125,-12.25 -5,0 -8.59375,2.21875 -10.40625,6.0625 h -0.15625 v -17.71875 h -6.6875 z m 49.40625,0.625 c 9.40625,0 15.59375,-6.46875 15.59375,-17.0625 0,-10.5625 -6.21875,-17.03125 -15.59375,-17.03125 -9.375,0 -15.59375,6.46875 -15.59375,17.03125 0,10.59375 6.1875,17.0625 15.59375,17.0625 z m 0,-5.5625 c -5.28125,0 -8.71875,-4.1875 -8.71875,-11.5 0,-7.28125 3.4375,-11.46875 8.71875,-11.46875 5.28125,0 8.71875,4.1875 8.71875,11.46875 0,7.3125 -3.40625,11.5 -8.71875,11.5 z m 37.9375,-28.46875 c -4.75,0 -8.53125,2.40625 -10.46875,6.1875 h -0.125 v -5.65625 h -6.53125 v 43.75 h 6.75 v -16.28125 h 0.15625 c 1.875,3.65625 5.625,5.96875 10.34375,5.96875 8.25,0 13.71875,-6.59375 13.71875,-17 0,-10.40625 -5.5,-16.96875 -13.84375,-16.96875 z m -1.78125,28.25 c -5.1875,0 -8.625,-4.4375 -8.625,-11.28125 0,-6.78125 3.46875,-11.28125 8.625,-11.28125 5.34375,0 8.6875,4.40625 8.6875,11.28125 0,6.90625 -3.34375,11.28125 -8.6875,11.28125 z m 19.625,-7.40625 c 0.4375,8.15625 7.1875,13.3125 17.1875,13.3125 10.6875,0 17.40625,-5.28125 17.40625,-13.71875 0,-6.59375 -3.84375,-10.3125 -13.09375,-12.5 l -4.96875,-1.21875 c -5.8125,-1.4375 -8.1875,-3.3125 -8.1875,-6.5 0,-4 3.71875,-6.75 9.15625,-6.75 5.4375,0 9.15625,2.71875 9.5625,7.21875 h 6.8125 c -0.21875,-7.78125 -6.75,-13.125 -16.28125,-13.125 -9.625,0 -16.40625,5.34375 -16.40625,13.125 0,6.28125 3.84375,10.15625 12.125,12.15625 l 5.84375,1.40625 c 5.84375,1.4375 8.3125,3.53125 8.3125,7.03125 0,4.03125 -4.09375,6.96875 -9.78125,6.96875 -5.9375,0 -10.28125,-2.9375 -10.78125,-7.40625 z m 40.0625,12.5625 h 6.75 v -20.3125 c 0,-4.21875 2.84375,-7.34375 6.84375,-7.34375 3.8125,0 6.21875,2.40625 6.21875,6.1875 v 21.46875 h 6.625 v -20.53125 c 0,-4.15625 2.78125,-7.125 6.78125,-7.125 4,0 6.28125,2.4375 6.28125,6.6875 v 20.96875 h 6.78125 v -22.59375 c 0,-6.53125 -4.25,-10.84375 -10.75,-10.84375 -4.6875,0 -8.5625,2.4375 -10.25,6.4375 h -0.15625 c -1.3125,-4.09375 -4.625,-6.4375 -9.1875,-6.4375 -4.4375,0 -7.875,2.4375 -9.34375,6.09375 h -0.15625 v -5.53125 h -6.4375 z m 64.28125,-4.78125 c -3.625,0 -6,-1.875 -6,-4.75 0,-2.8125 2.28125,-4.59375 6.3125,-4.875 l 8.09375,-0.5 v 2.59375 c 0,4.28125 -3.6875,7.53125 -8.40625,7.53125 z m -1.875,5.34375 c 4.3125,0 8.46875,-2.3125 10.375,-5.96875 h 0.15625 v 5.40625 h 6.46875 v -22.65625 c 0,-6.59375 -5.09375,-10.8125 -13.0625,-10.8125 -8.125,0 -13.1875,4.375 -13.5625,10.3125 h 6.375 c 0.59375,-2.9375 3.03125,-4.8125 6.9375,-4.8125 4.125,0 6.59375,2.1875 6.59375,5.84375 v 2.53125 l -9,0.53125 c -7.8125,0.4375 -12.21875,3.96875 -12.21875,9.71875 0,5.90625 4.5,9.90625 10.9375,9.90625 z m 23.53126,-0.5625 h 6.75 v -19.6875 c 0,-4.65625 2.6875,-7.5625 7.0312,-7.5625 1.3125,0 2.5,0.15625 3.0313,0.375 v -6.28125 c -0.5,-0.0937 -1.3438,-0.25 -2.3125,-0.25 -3.875,0 -6.8125,2.28125 -7.9063,6.125 h -0.1562 v -5.59375 h -6.4375 z m 22.9687,-40.65625 v 7.78125 h -4.7812 v 5.34375 h 4.7812 v 18.875 c 0,6.34375 2.5938,8.875 9.25,8.875 1.5,0 3,-0.125 3.75,-0.3125 v -5.34375 c -0.4375,0.0937 -1.5312,0.15625 -2.2187,0.15625 -2.75,0 -4,-1.28125 -4,-4.125 v -18.125 h 6.25 v -5.34375 h -6.25 v -7.78125 z"
       id="text16"
       style="font-weight:500;font-size:64px;font-family:'SF Pro Display';-inkscape-font-specification:'SF Pro Display Medium';fill:#2c2e2b;stroke-width:1.02315"
       transform="scale(1.0231417,0.97738169)"
       aria-label="ShopSmart" />
    <rect
       style="fill:#ffffff;fill-opacity:1"
       id="rect17"
       width="10.956433"
       height="10.850574"
       x="781.5589"
       y="419.0968"
       ry="2.4612336" />
    <rect
       style="fill:#ffffff;fill-opacity:1"
       id="rect18"
       width="10.956433"
       height="10.850574"
       x="794.20911"
       y="419.09698"
       ry="2.4612336" />
    <rect
       style="fill:#ffffff;fill-opacity:1"
       id="rect19"
       width="10.956433"
       height="10.850574"
       x="781.5589"
       y="431.69699"
       ry="2.4612336" />
    <rect
       style="fill:#ffffff;fill-opacity:1"
       id="rect20"
       width="10.956433"
       height="10.850574"
       x="794.20911"
       y="431.69717"
       ry="2.4612336" />
    <path
       d="m 821.7561,422.19406 v 16.91016 h 2.625 v -5.77735 h 3.63282 c 3.3164,0 5.64843,-2.27343 5.64843,-5.57812 0,-3.29297 -2.28515,-5.55469 -5.5664,-5.55469 z m 2.625,2.21485 h 3.02344 c 2.27344,0 3.57422,1.21875 3.57422,3.35156 0,2.13281 -1.30078,3.36328 -3.58594,3.36328 h -3.01172 z m 11.27344,14.69531 h 2.53125 v -7.38281 c 0,-1.7461 1.00781,-2.83594 2.63672,-2.83594 0.49219,0 0.9375,0.0586 1.13672,0.14062 v -2.35547 c -0.1875,-0.0351 -0.50391,-0.0937 -0.86719,-0.0937 -1.45312,0 -2.55469,0.85547 -2.96484,2.29688 h -0.0586 v -2.09766 h -2.41406 z m 12.64453,0.23437 c 3.52735,0 5.84766,-2.42578 5.84766,-6.39843 0,-3.96094 -2.33203,-6.38672 -5.84766,-6.38672 -3.51562,0 -5.84765,2.42578 -5.84765,6.38672 0,3.97265 2.32031,6.39843 5.84765,6.39843 z m 0,-2.08593 c -1.98047,0 -3.26953,-1.57032 -3.26953,-4.3125 0,-2.73047 1.28906,-4.30079 3.26953,-4.30079 1.98047,0 3.26953,1.57032 3.26953,4.30079 0,2.74218 -1.27734,4.3125 -3.26953,4.3125 z m 12.4336,2.0625 c 1.79296,0 3.19921,-0.90235 3.92578,-2.3086 h 0.0469 v 2.09766 h 2.46094 v -16.91016 h -2.54297 v 6.63281 h -0.0469 c -0.69141,-1.35937 -2.09766,-2.25 -3.86719,-2.25 -3.09375,0 -5.15625,2.47266 -5.15625,6.36329 0,3.89062 2.0625,6.375 5.17969,6.375 z m 0.66796,-10.60547 c 1.94532,0 3.2461,1.67578 3.2461,4.23047 0,2.57812 -1.30078,4.23046 -3.2461,4.23046 -2.0039,0 -3.25781,-1.6289 -3.25781,-4.23046 0,-2.58985 1.25391,-4.23047 3.25781,-4.23047 z m 18.92579,-1.9336 h -2.53125 v 7.1836 c 0,1.92187 -1.10157,3.1875 -2.92969,3.1875 -1.7461,0 -2.63672,-1.00782 -2.63672,-2.88282 v -7.48828 h -2.53125 v 7.98047 c 0,2.82422 1.64062,4.57031 4.32422,4.57031 1.88672,0 3.14062,-0.83203 3.82031,-2.30859 h 0.0586 v 2.08594 h 2.42579 z m 13.07812,4.24219 c -0.22266,-2.42578 -2.15625,-4.46484 -5.33203,-4.46484 -3.50391,0 -5.80078,2.47265 -5.80078,6.38672 0,3.98437 2.29687,6.39843 5.82422,6.39843 2.96484,0 5.0625,-1.78125 5.33203,-4.40625 h -2.4375 c -0.29297,1.42969 -1.3125,2.28516 -2.8711,2.28516 -1.96875,0 -3.26953,-1.57031 -3.26953,-4.27734 0,-2.64844 1.28907,-4.27735 3.2461,-4.27735 1.65234,0 2.63672,1.04297 2.89453,2.35547 z m 2.55469,-7.16016 v 2.91797 h -1.79297 V 428.78 h 1.79297 v 7.07812 c 0,2.37891 0.97265,3.32813 3.46875,3.32813 0.5625,0 1.125,-0.0469 1.40625,-0.11719 v -2.0039 c -0.16406,0.0351 -0.57422,0.0586 -0.83203,0.0586 -1.03125,0 -1.5,-0.48047 -1.5,-1.54688 V 428.78 h 2.34375 v -2.00391 h -2.34375 v -2.91797 z m 6.73828,6.41016 c 0,1.72266 1.125,2.88281 3.35156,3.42188 l 2.20313,0.53906 c 1.28906,0.32812 1.75781,0.76172 1.75781,1.54687 0,0.9961 -0.9375,1.62891 -2.46094,1.62891 -1.54687,0 -2.46094,-0.65625 -2.66015,-1.83984 h -2.50782 c 0.19922,2.26171 2.13282,3.77343 5.05078,3.77343 3.02344,0 5.1211,-1.54687 5.1211,-3.79687 0,-1.81641 -0.9375,-2.75391 -3.42188,-3.35156 l -2.07422,-0.48047 c -1.27734,-0.31641 -1.88671,-0.83203 -1.88671,-1.59375 0,-0.97266 0.91406,-1.64063 2.28515,-1.64063 1.41797,0 2.32031,0.69141 2.4375,1.80469 h 2.37891 c -0.082,-2.19141 -2.00391,-3.72656 -4.7461,-3.72656 -2.88281,0 -4.82812,1.51172 -4.82812,3.71484 z"
       id="text20"
       style="font-weight:500;font-size:24px;font-family:'SF Pro Display';-inkscape-font-specification:'SF Pro Display Medium';fill:#ffffff"
       aria-label="Products" />
    <path
       id="rect21"
       style="fill:#2c2e2b;fill-opacity:1"
       d="m 801.77734,508.33594 h -23.76562 v 8.23047 c 0,1.36352 1.09937,2.46093 2.46289,2.46093 h 18.8418 c 1.36352,0 2.46093,-1.09741 2.46093,-2.46093 z" />
    <path
       id="path22"
       style="fill:#2c2e2b;fill-opacity:1"
       d="m 780.47461,497.85547 c -1.36352,0 -2.46289,1.09741 -2.46289,2.46094 v 4.41992 h 23.76562 v -4.41992 c 0,-1.36353 -1.09741,-2.46094 -2.46093,-2.46094 z" />
    <path
       d="m 829.0686,499.91284 c -4.875,0 -7.92187,3.36328 -7.92187,8.74219 0,5.37891 3.04687,8.73047 7.92187,8.73047 4.86328,0 7.92188,-3.35156 7.92188,-8.73047 0,-5.37891 -3.0586,-8.74219 -7.92188,-8.74219 z m 0,2.3086 c 3.21094,0 5.22657,2.48437 5.22657,6.43359 0,3.9375 -2.01563,6.42187 -5.22657,6.42187 -3.21093,0 -5.23828,-2.48437 -5.23828,-6.42187 0,-3.94922 2.02735,-6.43359 5.23828,-6.43359 z m 10.11328,14.88281 h 2.53125 v -7.38281 c 0,-1.7461 1.00782,-2.83594 2.63672,-2.83594 0.49219,0 0.9375,0.0586 1.13672,0.14062 v -2.35547 c -0.1875,-0.0352 -0.5039,-0.0937 -0.86719,-0.0937 -1.45312,0 -2.55468,0.85547 -2.96484,2.29688 h -0.0586 v -2.09766 h -2.41407 z m 11.97657,0.21094 c 1.79297,0 3.19922,-0.90235 3.92578,-2.3086 h 0.0469 v 2.09766 h 2.46094 v -16.91016 h -2.54297 v 6.63281 h -0.0469 c -0.69141,-1.35937 -2.09766,-2.25 -3.86719,-2.25 -3.09375,0 -5.15625,2.47266 -5.15625,6.36329 0,3.89062 2.0625,6.375 5.17969,6.375 z m 0.66797,-10.60547 c 1.94531,0 3.24609,1.67578 3.24609,4.23047 0,2.57812 -1.30078,4.23046 -3.24609,4.23046 -2.00391,0 -3.25782,-1.6289 -3.25782,-4.23046 0,-2.58985 1.25391,-4.23047 3.25782,-4.23047 z m 13.51171,-0.11719 c 1.76954,0 2.96485,1.32422 3.02344,3.21094 h -6.16406 c 0.12891,-1.86328 1.37109,-3.21094 3.14062,-3.21094 z m 3.01172,6.89062 c -0.33984,1.07813 -1.40625,1.80469 -2.84765,1.80469 -2.02735,0 -3.31641,-1.41797 -3.31641,-3.5625 V 511.573 h 8.70703 v -0.86719 c 0,-3.73828 -2.13281,-6.15234 -5.55469,-6.15234 -3.48046,0 -5.70703,2.57812 -5.70703,6.44531 0,3.89062 2.19141,6.33984 5.8125,6.33984 2.82422,0 4.95703,-1.60547 5.3086,-3.85547 z m 4.5,3.6211 h 2.53125 v -7.38281 c 0,-1.7461 1.00782,-2.83594 2.63672,-2.83594 0.49219,0 0.9375,0.0586 1.13672,0.14062 v -2.35547 c -0.1875,-0.0352 -0.50391,-0.0937 -0.86719,-0.0937 -1.45312,0 -2.55468,0.85547 -2.96484,2.29688 h -0.0586 v -2.09766 h -2.41407 z m 7.65235,-8.83594 c 0,1.72266 1.125,2.88281 3.35156,3.42188 l 2.20312,0.53906 c 1.28907,0.32812 1.75782,0.76172 1.75782,1.54687 0,0.9961 -0.9375,1.62891 -2.46094,1.62891 -1.54688,0 -2.46094,-0.65625 -2.66016,-1.83984 h -2.50781 c 0.19922,2.26171 2.13281,3.77343 5.05078,3.77343 3.02344,0 5.1211,-1.54687 5.1211,-3.79687 0,-1.81641 -0.9375,-2.75391 -3.42188,-3.35156 l -2.07422,-0.48047 c -1.27734,-0.31641 -1.88672,-0.83203 -1.88672,-1.59375 0,-0.97266 0.91407,-1.64063 2.28516,-1.64063 1.41797,0 2.32031,0.69141 2.4375,1.80469 h 2.37891 c -0.082,-2.19141 -2.00391,-3.72656 -4.7461,-3.72656 -2.88281,0 -4.82812,1.51172 -4.82812,3.71484 z"
       id="text23"
       style="font-weight:500;font-size:24px;font-family:'SF Pro Display';-inkscape-font-specification:'SF Pro Display Medium';fill:#2c2e2b"
       aria-label="Orders" />
    <rect
       style="fill:#ffffff;fill-opacity:1;stroke:none;stroke-width:1.02665;stroke-opacity:1"
       id="rect23"
       width="218.24704"
       height="279.32773"
       x="1096.1724"
       y="402.42737"
       ry="14.863845" />
    <rect
       style="fill:#ffffff;fill-opacity:1;stroke:none;stroke-width:1.02665;stroke-opacity:1"
       id="rect24"
       width="218.24704"
       height="279.32773"
       x="1342.1724"
       y="402.42737"
       ry="14.863845" />
    <rect
       style="fill:#ffffff;fill-opacity:1;stroke:none;stroke-width:1.02665;stroke-opacity:1"
       id="rect25"
       width="218.24704"
       height="279.32773"
       x="1096.1724"
       y="708.42737"
       ry="14.863845" />
    <rect
       style="fill:#ffffff;fill-opacity:1;stroke:none;stroke-width:1.02665;stroke-opacity:1"
       id="rect26"
       width="218.24704"
       height="279.32773"
       x="1342.1724"
       y="708.42737"
       ry="14.863845" />
    <path
       style="font-weight:500;font-size:29.3333px;font-family:'SF Pro Display';-inkscape-font-specification:'SF Pro Display Medium';fill:#2c2e2b"
       d="m 1140.8327,609.0105 v -17.90363 h 6.3164 v -2.76432 h -15.8555 v 2.76432 h 6.3307 v 17.90363 z m 16.1562,-6.98958 v -2.79296 h -9.3958 v 2.79296 z m 2.6497,1.23177 c 0.2006,3.73828 3.2943,6.10156 7.8776,6.10156 4.8985,0 7.9779,-2.42057 7.9779,-6.28776 0,-3.02213 -1.7617,-4.72655 -6.0013,-5.72916 l -2.2773,-0.55859 c -2.6641,-0.65885 -3.7526,-1.51823 -3.7526,-2.97916 0,-1.83333 1.7044,-3.09375 4.1966,-3.09375 2.4921,0 4.1966,1.24609 4.3828,3.30859 h 3.1224 c -0.1003,-3.5664 -3.0938,-6.01562 -7.4623,-6.01562 -4.4114,0 -7.5195,2.44922 -7.5195,6.01562 0,2.8789 1.7617,4.65494 5.5573,5.57161 l 2.6784,0.64453 c 2.6784,0.65885 3.8099,1.61849 3.8099,3.22265 0,1.84766 -1.8763,3.19401 -4.4831,3.19401 -2.7213,0 -4.7122,-1.34635 -4.9414,-3.39453 z m 18.4766,5.75781 h 3.0937 v -8.70833 c 0,-2.3776 1.4037,-3.95312 3.6953,-3.95312 2.1771,0 3.2943,1.33203 3.2943,3.55208 v 9.10937 h 3.1081 v -9.71093 c 0,-3.40885 -1.9766,-5.61458 -5.2852,-5.61458 -2.2916,0 -3.9388,1.01693 -4.7695,2.77865 h -0.072 v -8.12109 h -3.0651 z m 16.2708,0 h 3.0937 v -15.06769 h -3.0937 z m 1.5469,-17.27342 c 1.0026,0 1.8047,-0.78776 1.8047,-1.76172 0,-0.98828 -0.8021,-1.77604 -1.8047,-1.77604 -0.9883,0 -1.7904,0.78776 -1.7904,1.77604 0,0.97396 0.8021,1.76172 1.7904,1.76172 z m 4.7122,17.27342 h 3.0937 v -9.02343 c 0,-2.13411 1.2318,-3.46614 3.2227,-3.46614 0.6016,0 1.1458,0.0716 1.3893,0.17187 v -2.8789 c -0.2291,-0.043 -0.6159,-0.11458 -1.0599,-0.11458 -1.776,0 -3.1224,1.04557 -3.6237,2.80729 h -0.072 v -2.5638 h -2.9505 z m 10.5273,-18.6341 v 3.56641 h -2.1914 v 2.44921 h 2.1914 v 8.65103 c 0,2.90755 1.1888,4.06771 4.2396,4.06771 0.6875,0 1.375,-0.0573 1.7188,-0.14323 v -2.44922 c -0.2006,0.043 -0.7019,0.0716 -1.017,0.0716 -1.2604,0 -1.8333,-0.58724 -1.8333,-1.89062 V 596.392 h 2.8646 v -2.44921 h -2.8646 v -3.56641 z"
       id="text26"
       aria-label="T-Shirt" />
    <path
       style="font-weight:500;font-size:29.3333px;font-family:'SF Pro Display';-inkscape-font-specification:'SF Pro Display Medium'"
       d="m 1140.5064,655.85707 v -1.90494 c 4.1966,-0.34375 6.6172,-2.53516 6.6172,-6.01562 0,-2.97916 -1.7331,-4.76953 -5.2852,-5.65755 l -1.332,-0.30078 v -6.40233 c 1.905,0.24349 3.2083,1.51822 3.2656,3.13671 h 2.9935 c -0.086,-3.16536 -2.5208,-5.42838 -6.2591,-5.74348 v -1.99088 h -1.9622 v 1.99088 c -3.8815,0.35807 -6.2448,2.53515 -6.2448,5.80077 0,2.77865 1.7617,4.69792 4.97,5.5 l 1.2748,0.32942 v 6.77474 c -2.1628,-0.24349 -3.5378,-1.46094 -3.681,-3.22266 h -3.0365 c 0.014,3.30859 2.6355,5.54297 6.7175,5.8151 v 1.89062 z m 3.5807,-7.6341 c 0,1.89062 -1.3033,3.0651 -3.5807,3.194 v -6.4453 c 2.4636,0.51562 3.5807,1.54687 3.5807,3.2513 z m -8.7226,-9.66796 c 0,-1.64713 1.3463,-2.8789 3.1797,-2.97916 v 5.98697 c -2.0625,-0.42969 -3.1797,-1.46094 -3.1797,-3.00781 z m 14.638,0.73047 v 0.0286 h 3.0365 v -0.043 c 0,-2.14844 1.7044,-3.78125 3.9674,-3.78125 2.1484,0 3.8099,1.46094 3.8099,3.29427 0,1.61848 -0.6589,2.70702 -3.1797,5.32812 l -7.4622,7.60546 v 2.17708 h 14.1367 v -2.70703 h -9.8112 v -0.0716 l 5.1706,-5.19921 c 3.0221,-3.09375 4.3112,-4.88411 4.3112,-7.29036 0,-3.27994 -2.9362,-5.78645 -6.875,-5.78645 -4.1107,0 -7.1042,2.72135 -7.1042,6.44531 z m 24.6927,14.99607 c 4.9557,0 7.8632,-4.16796 7.8632,-10.75649 0,-6.54557 -2.9218,-10.68489 -7.8632,-10.68489 -4.9271,0 -7.8919,4.15364 -7.8919,10.69921 0,6.58853 2.9362,10.74217 7.8919,10.74217 z m 0,-2.6927 c -2.9505,0 -4.6406,-3.0651 -4.6406,-8.04947 0,-4.91276 1.7187,-8.0065 4.6406,-8.0065 2.9218,0 4.6263,3.07942 4.6263,8.0065 0,4.99869 -1.6758,8.04947 -4.6263,8.04947 z"
       id="text27"
       aria-label="$20" />
    <path
       style="font-weight:500;font-size:29.3333px;font-family:'SF Pro Display';-inkscape-font-specification:'SF Pro Display Medium';fill:#2c2e2b"
       d="m 1383.5951,606.40721 h -9.625 v -17.8893 h -3.2083 v 20.66794 h 12.8333 z m 8.3216,-10.069 c 2.1627,0 3.6237,1.61849 3.6953,3.92448 h -7.5339 c 0.1576,-2.27735 1.6758,-3.92448 3.8386,-3.92448 z m 3.681,8.42187 c -0.4154,1.3177 -1.7188,2.20572 -3.4805,2.20572 -2.4779,0 -4.0534,-1.73307 -4.0534,-4.35416 v -0.1862 h 10.6419 v -1.05989 c 0,-4.56901 -2.6067,-7.51952 -6.789,-7.51952 -4.2539,0 -6.9753,3.15103 -6.9753,7.87759 0,4.7552 2.6784,7.74869 7.1042,7.74869 3.4518,0 6.0586,-1.96224 6.4883,-4.71223 z m 10.7708,2.23437 c -1.6615,0 -2.75,-0.85938 -2.75,-2.17708 0,-1.28906 1.0456,-2.10547 2.8932,-2.23437 l 3.7096,-0.22917 v 1.1888 c 0,1.96224 -1.6901,3.45182 -3.8528,3.45182 z m -0.8594,2.44921 c 1.9766,0 3.8815,-1.05989 4.7552,-2.73567 h 0.072 v 2.47786 h 2.9649 v -10.3841 c 0,-3.02213 -2.3347,-4.95572 -5.987,-4.95572 -3.724,0 -6.0443,2.0052 -6.2161,4.72655 h 2.9218 c 0.2722,-1.34635 1.3894,-2.20572 3.1797,-2.20572 1.8906,0 3.0221,1.0026 3.0221,2.67838 v 1.16015 l -4.1249,0.24349 c -3.5808,0.20052 -5.6003,1.81901 -5.6003,4.45442 0,2.70703 2.0625,4.54036 5.013,4.54036 z m 11.6875,-18.8919 v 3.5664 h -2.1914 v 2.44922 h 2.1914 v 8.65103 c 0,2.90755 1.1888,4.0677 4.2396,4.0677 0.6875,0 1.375,-0.0573 1.7187,-0.14323 v -2.44921 c -0.2005,0.043 -0.7018,0.0716 -1.0169,0.0716 -1.2604,0 -1.8333,-0.58724 -1.8333,-1.89062 v -8.30728 h 2.8645 v -2.44922 h -2.8645 v -3.5664 z m 8.6224,18.63409 h 3.0937 v -8.70832 c 0,-2.3776 1.4037,-3.95312 3.6953,-3.95312 2.1771,0 3.2943,1.33203 3.2943,3.55208 v 9.10936 h 3.1081 v -9.71092 c 0,-3.40885 -1.9766,-5.61458 -5.2852,-5.61458 -2.2916,0 -3.9388,1.01692 -4.7695,2.77864 h -0.072 v -8.12108 h -3.0651 z m 22.4726,-12.84764 c 2.1628,0 3.6237,1.61849 3.6953,3.92448 h -7.5338 c 0.1575,-2.27735 1.6758,-3.92448 3.8385,-3.92448 z m 3.681,8.42187 c -0.4154,1.3177 -1.7188,2.20572 -3.4805,2.20572 -2.4778,0 -4.0533,-1.73307 -4.0533,-4.35416 v -0.1862 h 10.6419 v -1.05989 c 0,-4.56901 -2.6068,-7.51952 -6.7891,-7.51952 -4.2539,0 -6.9752,3.15103 -6.9752,7.87759 0,4.7552 2.6783,7.74869 7.1041,7.74869 3.4518,0 6.0586,-1.96224 6.4883,-4.71223 z m 5.5,4.42577 h 3.0937 v -9.02343 c 0,-2.13411 1.2318,-3.46614 3.2227,-3.46614 0.6016,0 1.1458,0.0716 1.3893,0.17188 v -2.87891 c -0.2291,-0.043 -0.6159,-0.11458 -1.0599,-0.11458 -1.776,0 -3.1224,1.04557 -3.6237,2.80729 h -0.072 v -2.5638 h -2.9505 z m 24.2343,0 c 4.3972,0 7.0469,-2.20572 7.0469,-5.84374 0,-2.75 -1.8906,-4.74088 -4.6979,-5.05599 v -0.11458 c 2.0625,-0.34375 3.681,-2.30599 3.681,-4.49739 0,-3.12239 -2.4063,-5.15624 -6.0729,-5.15624 h -8.25 v 20.66794 z m -5.0846,-18.04685 h 4.2682 c 2.3203,0 3.638,1.05989 3.638,2.97916 0,2.04818 -1.5325,3.19401 -4.3111,3.19401 h -3.5951 z m 0,15.42576 v -6.80338 h 4.2396 c 3.0364,0 4.612,1.14584 4.612,3.38021 0,2.23437 -1.5326,3.42317 -4.4258,3.42317 z m 19.7943,0.42969 c -1.6615,0 -2.75,-0.85938 -2.75,-2.17708 0,-1.28906 1.0455,-2.10547 2.8932,-2.23437 l 3.7096,-0.22917 v 1.1888 c 0,1.96224 -1.6901,3.45182 -3.8528,3.45182 z m -0.8594,2.44921 c 1.9765,0 3.8815,-1.05989 4.7552,-2.73567 h 0.072 v 2.47786 h 2.9648 v -10.3841 c 0,-3.02213 -2.3346,-4.95572 -5.9869,-4.95572 -3.724,0 -6.0443,2.0052 -6.2162,4.72655 h 2.9219 c 0.2721,-1.34635 1.3893,-2.20572 3.1797,-2.20572 1.8906,0 3.0221,1.0026 3.0221,2.67838 v 1.16015 l -4.125,0.24349 c -3.5807,0.20052 -5.6002,1.81901 -5.6002,4.45442 0,2.70703 2.0625,4.54036 5.013,4.54036 z m 17.2018,-2.76432 c -2.3776,0 -3.9245,-1.91926 -3.9245,-5.0703 0,-3.13672 1.5469,-5.1276 3.9245,-5.1276 2.4206,0 4.0104,2.03385 4.0104,5.1276 0,3.10807 -1.5898,5.0703 -4.0104,5.0703 z m 0.029,8.17838 c 4.2969,0 7.0756,-2.34896 7.0756,-5.944 v -14.79556 h -3.0079 v 2.57812 h -0.057 c -0.9167,-1.74739 -2.6641,-2.82161 -4.7982,-2.82161 -3.8672,0 -6.3307,2.97916 -6.3307,7.72004 0,4.69792 2.4778,7.64843 6.2591,7.64843 2.1484,0 3.9244,-1.07421 4.7695,-2.70702 h 0.057 v 2.47786 c 0,2.06249 -1.4323,3.43749 -3.8529,3.43749 -1.7617,0 -3.1367,-0.83072 -3.5807,-2.09114 h -3.1081 c 0.3867,2.60677 3.0222,4.49739 6.5742,4.49739 z"
       id="text28"
       aria-label="Leather Bag" />
    <path
       style="font-weight:500;font-size:29.3333px;font-family:'SF Pro Display';-inkscape-font-specification:'SF Pro Display Medium'"
       d="m 1378.7714,656.03243 v -1.90495 c 4.1966,-0.34375 6.6172,-2.53515 6.6172,-6.01562 0,-2.97916 -1.7331,-4.76952 -5.2851,-5.65754 l -1.3321,-0.30078 v -6.40234 c 1.905,0.24349 3.2084,1.51823 3.2657,3.13672 h 2.9934 c -0.086,-3.16536 -2.5208,-5.42838 -6.2591,-5.74349 v -1.99088 h -1.9622 v 1.99088 c -3.8815,0.35808 -6.2448,2.53516 -6.2448,5.80078 0,2.77864 1.7617,4.69791 4.9701,5.49999 l 1.2747,0.32943 v 6.77473 c -2.1628,-0.24349 -3.5378,-1.46094 -3.681,-3.22265 h -3.0364 c 0.014,3.30859 2.6354,5.54296 6.7174,5.81509 v 1.89063 z m 3.5808,-7.63411 c 0,1.89062 -1.3034,3.0651 -3.5808,3.19401 v -6.44531 c 2.4636,0.51563 3.5808,1.54688 3.5808,3.2513 z m -8.7227,-9.66796 c 0,-1.64713 1.3464,-2.8789 3.1797,-2.97916 v 5.98697 c -2.0625,-0.42968 -3.1797,-1.46093 -3.1797,-3.00781 z m 22.5872,15.74087 c 4.3828,0 7.5482,-3.00781 7.5482,-7.14713 0,-3.92447 -2.9219,-6.83202 -6.8607,-6.83202 -2.5781,0 -4.7695,1.34635 -5.6718,3.35156 h -0.057 c 0.014,-5.19921 1.9049,-8.14973 5.1562,-8.14973 1.8906,0 3.4375,1.10286 3.9388,2.79296 h 3.2083 c -0.6302,-3.29426 -3.4661,-5.48567 -7.1184,-5.48567 -5.1706,0 -8.2644,4.09635 -8.2644,11.01431 0,2.42057 0.4297,4.45443 1.2748,6.10156 1.3463,2.79297 3.7955,4.35416 6.8463,4.35416 z m -0.029,-2.70703 c -2.4636,0 -4.3685,-1.94791 -4.3685,-4.39713 0,-2.44921 1.8763,-4.2539 4.3971,-4.2539 2.5352,0 4.3542,1.80469 4.3542,4.31119 0,2.42057 -1.9479,4.33984 -4.3828,4.33984 z m 17.8177,2.69271 c 4.9557,0 7.8632,-4.16797 7.8632,-10.7565 0,-6.54556 -2.9218,-10.68488 -7.8632,-10.68488 -4.9271,0 -7.892,4.15364 -7.892,10.6992 0,6.58854 2.9362,10.74218 7.892,10.74218 z m 0,-2.69271 c -2.9506,0 -4.6407,-3.0651 -4.6407,-8.04947 0,-4.91275 1.7188,-8.0065 4.6407,-8.0065 2.9218,0 4.6263,3.07943 4.6263,8.0065 0,4.9987 -1.6758,8.04947 -4.6263,8.04947 z"
       id="text29"
       aria-label="$60" />
    <path
       style="font-weight:500;font-size:29.3333px;font-family:'SF Pro Display';-inkscape-font-specification:'SF Pro Display Medium';fill:#2c2e2b"
       d="m 1131.9597,889.36957 c 0.2005,3.73828 3.2943,6.10156 7.8776,6.10156 4.8984,0 7.9779,-2.42057 7.9779,-6.28775 0,-3.02214 -1.7618,-4.72656 -6.0013,-5.72916 l -2.2774,-0.5586 c -2.664,-0.65885 -3.7526,-1.51822 -3.7526,-2.97916 0,-1.83333 1.7045,-3.09375 4.1966,-3.09375 2.4922,0 4.1966,1.2461 4.3828,3.30859 h 3.1224 c -0.1002,-3.5664 -3.0937,-6.01561 -7.4622,-6.01561 -4.4114,0 -7.5195,2.44921 -7.5195,6.01561 0,2.87891 1.7617,4.65495 5.5573,5.57161 l 2.6784,0.64453 c 2.6783,0.65886 3.8098,1.61849 3.8098,3.22266 0,1.84765 -1.8763,3.194 -4.483,3.194 -2.7214,0 -4.7123,-1.34635 -4.9414,-3.39453 z m 18.362,5.75781 h 3.0937 v -8.77994 c 0,-2.33463 1.4037,-3.8815 3.5807,-3.8815 2.1485,0 3.2084,1.24609 3.2084,3.50911 v 9.15233 h 3.108 v -9.75389 c 0,-3.45182 -1.9049,-5.57161 -5.2278,-5.57161 -2.3203,0 -3.9245,1.05989 -4.7409,2.77864 h -0.072 v -2.52083 h -2.9505 z m 22.2721,-12.84764 c 2.1627,0 3.6237,1.61849 3.6953,3.92447 h -7.5339 c 0.1576,-2.27734 1.6758,-3.92447 3.8386,-3.92447 z m 3.681,8.42186 c -0.4154,1.31771 -1.7188,2.20573 -3.4805,2.20573 -2.4779,0 -4.0534,-1.73307 -4.0534,-4.35416 v -0.1862 h 10.6419 v -1.05989 c 0,-4.56901 -2.6067,-7.51953 -6.789,-7.51953 -4.2539,0 -6.9753,3.15104 -6.9753,7.8776 0,4.7552 2.6784,7.74869 7.1042,7.74869 3.4518,0 6.0586,-1.96224 6.4883,-4.71224 z m 10.7708,2.23438 c -1.6615,0 -2.75,-0.85938 -2.75,-2.17708 0,-1.28907 1.0456,-2.10547 2.8932,-2.23438 l 3.7096,-0.22916 v 1.1888 c 0,1.96224 -1.6901,3.45182 -3.8528,3.45182 z m -0.8594,2.44921 c 1.9766,0 3.8815,-1.05989 4.7552,-2.73567 h 0.072 v 2.47786 h 2.9649 v -10.3841 c 0,-3.02213 -2.3347,-4.95573 -5.987,-4.95573 -3.724,0 -6.0443,2.00521 -6.2161,4.72656 h 2.9218 c 0.2722,-1.34635 1.3894,-2.20573 3.1797,-2.20573 1.8906,0 3.0221,1.00261 3.0221,2.67839 v 1.16015 l -4.1249,0.24349 c -3.5808,0.20052 -5.6003,1.81901 -5.6003,4.45442 0,2.70703 2.0625,4.54036 5.013,4.54036 z m 14.0221,-8.86587 h -0.029 v -12.05988 h -3.0938 v 20.66794 h 3.0938 v -5.41406 l 1.2891,-1.27473 5.1132,6.68879 h 3.5951 l -6.4883,-8.57942 6.2448,-6.48827 h -3.638 z m 17.1445,-4.23958 c 2.1628,0 3.6237,1.61849 3.6954,3.92447 h -7.5339 c 0.1576,-2.27734 1.6758,-3.92447 3.8385,-3.92447 z m 3.681,8.42186 c -0.4153,1.31771 -1.7187,2.20573 -3.4804,2.20573 -2.4779,0 -4.0534,-1.73307 -4.0534,-4.35416 v -0.1862 h 10.6419 v -1.05989 c 0,-4.56901 -2.6068,-7.51953 -6.7891,-7.51953 -4.2539,0 -6.9752,3.15104 -6.9752,7.8776 0,4.7552 2.6784,7.74869 7.1042,7.74869 3.4518,0 6.0585,-1.96224 6.4882,-4.71224 z m 5.5,4.42578 h 3.0938 v -9.02343 c 0,-2.13411 1.2317,-3.46614 3.2226,-3.46614 0.6016,0 1.1459,0.0716 1.3893,0.17188 v -2.87891 c -0.2291,-0.043 -0.6158,-0.11458 -1.0598,-0.11458 -1.7761,0 -3.1224,1.04557 -3.6237,2.80729 h -0.072 v -2.5638 h -2.9505 z m 9.3529,-10.79947 c 0,2.10547 1.375,3.52344 4.0963,4.18229 l 2.6927,0.65885 c 1.5756,0.40105 2.1485,0.93099 2.1485,1.89063 0,1.21744 -1.1459,1.99088 -3.0078,1.99088 -1.8907,0 -3.0078,-0.80208 -3.2513,-2.2487 H 1235.5 c 0.2435,2.76432 2.6067,4.61198 6.1731,4.61198 3.6953,0 6.2591,-1.89062 6.2591,-4.64062 0,-2.22005 -1.1458,-3.36588 -4.1822,-4.09635 l -2.5352,-0.58724 c -1.5612,-0.38672 -2.306,-1.01693 -2.306,-1.94791 0,-1.1888 1.1172,-2.00521 2.793,-2.00521 1.7331,0 2.8359,0.84505 2.9791,2.20573 h 2.9076 c -0.1003,-2.67839 -2.4492,-4.55469 -5.8008,-4.55469 -3.5234,0 -5.901,1.84766 -5.901,4.54036 z"
       id="text30"
       aria-label="Sneakers" />
    <path
       style="font-weight:500;font-size:29.3333px;font-family:'SF Pro Display';-inkscape-font-specification:'SF Pro Display Medium'"
       d="m 1140.8861,941.97396 v -1.90495 c 4.1966,-0.34375 6.6171,-2.53515 6.6171,-6.01562 0,-2.97916 -1.733,-4.76952 -5.2851,-5.65754 l -1.332,-0.30078 v -6.40234 c 1.9049,0.24349 3.2083,1.51823 3.2656,3.13671 h 2.9935 c -0.086,-3.16536 -2.5209,-5.42837 -6.2591,-5.74348 v -1.99088 h -1.9623 v 1.99088 c -3.8815,0.35807 -6.2448,2.53515 -6.2448,5.80078 0,2.77864 1.7618,4.69791 4.9701,5.49999 l 1.2747,0.32943 v 6.77473 c -2.1627,-0.24349 -3.5377,-1.46094 -3.681,-3.22265 h -3.0364 c 0.014,3.30859 2.6354,5.54296 6.7174,5.81509 v 1.89063 z m 3.5807,-7.63411 c 0,1.89062 -1.3034,3.0651 -3.5807,3.19401 v -6.44531 c 2.4635,0.51563 3.5807,1.54688 3.5807,3.2513 z m -8.7227,-9.66796 c 0,-1.64713 1.3464,-2.8789 3.1797,-2.97916 v 5.98697 c -2.0625,-0.42969 -3.1797,-1.46093 -3.1797,-3.00781 z m 15.9557,15.33983 h 3.3659 l 8.9805,-17.8893 v -2.77865 h -14.0651 v 2.70703 h 10.8997 v 0.0716 z m 22.444,0.38672 c 4.9558,0 7.8633,-4.16797 7.8633,-10.7565 0,-6.54557 -2.9219,-10.68488 -7.8633,-10.68488 -4.927,0 -7.8919,4.15364 -7.8919,10.6992 0,6.58854 2.9362,10.74218 7.8919,10.74218 z m 0,-2.69271 c -2.9505,0 -4.6406,-3.0651 -4.6406,-8.04947 0,-4.91275 1.7188,-8.0065 4.6406,-8.0065 2.9219,0 4.6263,3.07942 4.6263,8.0065 0,4.99869 -1.6758,8.04947 -4.6263,8.04947 z"
       id="text31"
       aria-label="$70" />
    <path
       style="font-weight:500;font-size:29.3333px;font-family:'SF Pro Display';-inkscape-font-specification:'SF Pro Display Medium';fill:#2c2e2b"
       d="m 1379.3527,895.12744 c 4.3971,0 7.0469,-2.20573 7.0469,-5.84374 0,-2.75 -1.8907,-4.74088 -4.698,-5.05599 v -0.11458 c 2.0625,-0.34375 3.681,-2.30599 3.681,-4.49739 0,-3.12239 -2.4062,-5.15624 -6.0729,-5.15624 h -8.25 v 20.66794 z m -5.0846,-18.04685 h 4.2682 c 2.3203,0 3.638,1.05989 3.638,2.97916 0,2.04818 -1.5325,3.19401 -4.3112,3.19401 h -3.595 z m 0,15.42576 v -6.80338 h 4.2395 c 3.0365,0 4.612,1.14584 4.612,3.38021 0,2.23437 -1.5325,3.42317 -4.4258,3.42317 z m 19.7942,0.42969 c -1.6614,0 -2.75,-0.85938 -2.75,-2.17708 0,-1.28906 1.0456,-2.10547 2.8932,-2.23438 l 3.7097,-0.22916 v 1.1888 c 0,1.96224 -1.6901,3.45182 -3.8529,3.45182 z m -0.8594,2.44921 c 1.9766,0 3.8815,-1.05989 4.7552,-2.73567 h 0.072 v 2.47786 h 2.9648 v -10.3841 c 0,-3.02213 -2.3346,-4.95572 -5.987,-4.95572 -3.7239,0 -6.0442,2.0052 -6.2161,4.72655 h 2.9219 c 0.2721,-1.34635 1.3893,-2.20572 3.1796,-2.20572 1.8907,0 3.0222,1.0026 3.0222,2.67838 v 1.16015 l -4.125,0.24349 c -3.5808,0.20052 -5.6003,1.81901 -5.6003,4.45442 0,2.70703 2.0625,4.54036 5.013,4.54036 z m 10.513,-11.05728 c 0,2.10547 1.375,3.52344 4.0964,4.18229 l 2.6927,0.65885 c 1.5755,0.40105 2.1484,0.93099 2.1484,1.89063 0,1.21744 -1.1458,1.99088 -3.0078,1.99088 -1.8906,0 -3.0078,-0.80208 -3.2513,-2.24869 h -3.0651 c 0.2435,2.76432 2.6068,4.61197 6.1732,4.61197 3.6953,0 6.2591,-1.89062 6.2591,-4.64062 0,-2.22005 -1.1458,-3.36588 -4.1823,-4.09635 l -2.5351,-0.58724 c -1.5612,-0.38672 -2.306,-1.01692 -2.306,-1.94791 0,-1.1888 1.1172,-2.00521 2.7929,-2.00521 1.7331,0 2.836,0.84505 2.9792,2.20573 h 2.9076 c -0.1003,-2.67838 -2.4493,-4.55468 -5.8008,-4.55468 -3.5235,0 -5.9011,1.84765 -5.9011,4.54035 z m 20.7539,-2.04817 c 2.1628,0 3.6237,1.61849 3.6953,3.92447 h -7.5338 c 0.1575,-2.27734 1.6758,-3.92447 3.8385,-3.92447 z m 3.681,8.42187 c -0.4154,1.3177 -1.7187,2.20572 -3.4805,2.20572 -2.4778,0 -4.0533,-1.73307 -4.0533,-4.35416 v -0.1862 h 10.6419 v -1.05989 c 0,-4.56901 -2.6068,-7.51952 -6.7891,-7.51952 -4.2539,0 -6.9752,3.15103 -6.9752,7.87759 0,4.7552 2.6784,7.74869 7.1041,7.74869 3.4519,0 6.0586,-1.96224 6.4883,-4.71223 z m 13.5208,4.68358 c 3.8242,0 6.2878,-3.00781 6.2878,-7.79165 0,-4.76953 -2.4779,-7.77734 -6.2734,-7.77734 -2.1342,0 -3.8529,1.0599 -4.7552,2.80729 h -0.072 v -8.16405 h -3.0937 v 20.66794 h 3.0078 v -2.5638 h 0.057 c 0.931,1.7474 2.6354,2.82161 4.8411,2.82161 z m -0.8307,-12.96222 c 2.4349,0 3.9388,2.0052 3.9388,5.17057 0,3.194 -1.5039,5.17056 -3.9388,5.17056 -2.349,0 -3.9961,-2.03385 -3.9961,-5.17056 0,-3.10807 1.6471,-5.17057 3.9961,-5.17057 z m 14.7956,10.51301 c -1.6615,0 -2.75,-0.85938 -2.75,-2.17708 0,-1.28906 1.0455,-2.10547 2.8932,-2.23438 l 3.7096,-0.22916 v 1.1888 c 0,1.96224 -1.6901,3.45182 -3.8528,3.45182 z m -0.8594,2.44921 c 1.9765,0 3.8815,-1.05989 4.7552,-2.73567 h 0.072 v 2.47786 h 2.9648 v -10.3841 c 0,-3.02213 -2.3346,-4.95572 -5.9869,-4.95572 -3.724,0 -6.0443,2.0052 -6.2162,4.72655 h 2.9219 c 0.2721,-1.34635 1.3893,-2.20572 3.1797,-2.20572 1.8906,0 3.0221,1.0026 3.0221,2.67838 v 1.16015 l -4.125,0.24349 c -3.5807,0.20052 -5.6002,1.81901 -5.6002,4.45442 0,2.70703 2.0625,4.54036 5.013,4.54036 z m 10.8997,-0.25781 h 3.0938 V 874.4595 h -3.0938 z m 6.388,0 h 3.0938 V 874.4595 h -3.0938 z m 21.3125,0.34375 c 4.7552,0 7.9922,-2.50651 8.7799,-6.77473 h -3.194 c -0.6445,2.49218 -2.6927,3.96744 -5.5716,3.96744 -3.7956,0 -6.2018,-3.05078 -6.2018,-7.87759 0,-4.78385 2.4349,-7.86327 6.1875,-7.86327 2.8073,0 5.013,1.73307 5.5859,4.3828 h 3.1797 c -0.5443,-4.31119 -4.082,-7.19009 -8.7656,-7.19009 -5.7721,0 -9.4674,4.12499 -9.4674,10.67056 0,6.58853 3.6666,10.68488 9.4674,10.68488 z m 16.5716,-2.53515 c -1.6615,0 -2.75,-0.85938 -2.75,-2.17708 0,-1.28906 1.0456,-2.10547 2.8932,-2.23438 l 3.7096,-0.22916 v 1.1888 c 0,1.96224 -1.6901,3.45182 -3.8528,3.45182 z m -0.8594,2.44921 c 1.9766,0 3.8815,-1.05989 4.7552,-2.73567 h 0.072 v 2.47786 h 2.9649 v -10.3841 c 0,-3.02213 -2.3347,-4.95572 -5.987,-4.95572 -3.724,0 -6.0443,2.0052 -6.2161,4.72655 h 2.9218 c 0.2722,-1.34635 1.3894,-2.20572 3.1797,-2.20572 1.8906,0 3.0221,1.0026 3.0221,2.67838 v 1.16015 l -4.1249,0.24349 c -3.5808,0.20052 -5.6003,1.81901 -5.6003,4.45442 0,2.70703 2.0625,4.54036 5.013,4.54036 z m 18.6341,-15.56899 c -2.1771,0 -3.9101,1.10286 -4.7982,2.83594 h -0.057 v -2.59245 h -2.9935 v 20.05206 h 3.0937 v -7.46223 h 0.072 c 0.8594,1.67578 2.5782,2.73567 4.7409,2.73567 3.7813,0 6.2878,-3.02213 6.2878,-7.79165 0,-4.76953 -2.5209,-7.77734 -6.3451,-7.77734 z m -0.8164,12.9479 c -2.3776,0 -3.9531,-2.03385 -3.9531,-5.17056 0,-3.10807 1.5898,-5.17057 3.9531,-5.17057 2.4492,0 3.9818,2.01953 3.9818,5.17057 0,3.16536 -1.5326,5.17056 -3.9818,5.17056 z"
       id="text32"
       aria-label="Baseball Cap" />
    <path
       style="font-weight:500;font-size:29.3333px;font-family:'SF Pro Display';-inkscape-font-specification:'SF Pro Display Medium'"
       d="m 1380.7631,942.07985 v -1.90494 c 4.1966,-0.34375 6.6172,-2.53516 6.6172,-6.01562 0,-2.97916 -1.7331,-4.76953 -5.2851,-5.65755 l -1.3321,-0.30078 v -6.40233 c 1.905,0.24348 3.2084,1.51822 3.2657,3.13671 h 2.9934 c -0.086,-3.16536 -2.5208,-5.42838 -6.2591,-5.74348 v -1.99089 h -1.9622 v 1.99089 c -3.8815,0.35807 -6.2448,2.53515 -6.2448,5.80077 0,2.77864 1.7617,4.69791 4.9701,5.5 l 1.2747,0.32942 v 6.77473 c -2.1628,-0.24348 -3.5378,-1.46093 -3.681,-3.22265 h -3.0364 c 0.014,3.30859 2.6354,5.54296 6.7174,5.8151 v 1.89062 z m 3.5808,-7.6341 c 0,1.89062 -1.3034,3.0651 -3.5808,3.194 v -6.4453 c 2.4636,0.51562 3.5808,1.54687 3.5808,3.2513 z m -8.7227,-9.66796 c 0,-1.64713 1.3464,-2.8789 3.1797,-2.97916 v 5.98697 c -2.0625,-0.42969 -3.1797,-1.46094 -3.1797,-3.00781 z m 20.0377,15.33982 h 3.1368 v -20.66794 h -3.1654 l -5.4427,3.86718 v 3.15104 l 5.3997,-3.83854 h 0.072 z m 15.569,0.38672 c 4.4545,0 7.5769,-2.93619 7.5769,-7.17577 0,-4.01041 -2.8503,-6.91796 -6.8177,-6.91796 -2.0196,0 -3.7097,0.78776 -4.612,2.09114 h -0.072 l 0.5729,-6.34504 h 9.7252 v -2.70703 h -12.3033 l -1.0886,11.68749 h 2.9362 c 0.8021,-1.36068 2.349,-2.17708 4.1393,-2.17708 2.5782,0 4.3828,1.86197 4.3828,4.45442 0,2.59244 -1.8046,4.41145 -4.4114,4.41145 -2.306,0 -4.0677,-1.40364 -4.2969,-3.45182 h -3.0651 c 0.1862,3.60937 3.2083,6.1302 7.3333,6.1302 z"
       id="text33"
       aria-label="$15" />
    <path
       style="fill:#2a44f7;fill-opacity:1;stroke:none;stroke-opacity:1"
       d="m 1185.5708,434.02297 c 0,0 -0.7833,-3.54295 2.7523,-4.07558 3.5356,-0.53263 7.3772,3.05918 17.6785,3.28163 10.3014,0.22246 18.4507,-3.4336 21.5424,-3.17577 3.0917,0.25783 3.1758,4.12851 3.1758,4.12851 l -2.0114,17.04334 -43.8257,0.10586 z"
       id="path36" />
    <path
       style="display:inline;fill:#46a5f7;fill-opacity:1;stroke:none;stroke-opacity:1"
       d="m 1158.2877,496.72983 c 2.7656,-2.38362 5.0201,-5.40758 7.4544,-8.15789 0,0 -0.066,3.6757 -0.01,6.61696 0.061,2.94126 -1.7735,51.2984 -1.6852,54.16315 0.088,2.86475 3.3297,6.31787 6.138,6.36257 2.8083,0.0447 71.4384,0.13954 73.207,0.0749 1.7686,-0.0646 5.0462,-2.26964 5.2398,-4.56608 0.1936,-2.29644 -1.2726,-62.35321 -1.2726,-62.35321 l 4.5661,7.03625 1.9462,1.04796 1.7217,-0.14971 c 0,0 19.9197,-13.78932 20.959,-14.89591 1.0393,-1.10659 1.3574,-1.05232 1.441,-1.83392 0.084,-0.7816 -0.3616,-1.07101 -0.9918,-2.28304 -0.6302,-1.21203 -12.242,-20.44391 -16.0188,-25.52514 -3.7768,-5.08123 -2.5019,-3.60139 -5.1649,-5.91345 -2.663,-2.31206 -6.6862,-4.58896 -11.1532,-7.26082 -4.467,-2.67186 -15.7193,-8.60819 -15.7193,-8.60819 0,0 0.04,5.11008 -0.9731,7.26082 -1.0132,2.15074 -2.7153,3.6888 -4.7158,5.09006 -2.0005,1.40126 -4.5033,2.23705 -7.1111,2.99415 -2.6078,0.7571 -5.6338,1.36414 -8.4585,1.42222 -2.8247,0.0581 -5.7879,-0.30184 -8.3087,-1.04795 -2.5208,-0.74611 -4.8558,-1.86389 -6.662,-3.21871 -1.8062,-1.35482 -3.0608,-2.46867 -4.117,-4.56609 -1.0562,-2.09742 -1.5719,-7.78479 -1.5719,-7.78479 0,0 -10.8151,4.85566 -15.1205,7.18596 -4.3054,2.3303 -8.4078,5.02543 -10.7789,6.58714 -2.3711,1.56171 -2.1458,1.23151 -3.593,2.54503 -1.4472,1.31352 -2.6702,2.67473 -4.7907,5.53918 -2.1205,2.86445 -5.2305,8.23163 -7.4853,11.90175 -2.2548,3.67012 -4.7148,7.80285 -6.0632,10.10527 -1.3484,2.30242 -1.8438,2.86922 -2.0959,3.66783 -0.2521,0.79861 -0.8213,1.88482 0.1497,3.59299 0.971,1.70817 19.8801,15.40059 21.0339,14.97071 z"
       id="path33" />
    <path
       style="fill:#2a44f7;fill-opacity:1;stroke:none;stroke-opacity:1"
       d="m 1160.3088,495.3076 c 0,0 2.1943,-3.45718 3.4807,-6.10058 1.2864,-2.6434 1.9462,-8.83275 1.9462,-8.83275 0,0 0.799,7.22966 0.3368,8.3462 -0.4622,1.11654 -5.7637,6.58713 -5.7637,6.58713 z"
       id="path34" />
    <path
       style="fill:#2a44f7;fill-opacity:1;stroke:none;stroke-opacity:1"
       d="m 1250.692,493.71971 c 0,0 -1.1357,-2.98081 -1.8398,-5.783 -0.7042,-2.80219 -1.1523,-7.82709 -1.1523,-7.82709 0,0 -0.799,7.22966 -0.3368,8.3462 0.4622,1.11654 3.3289,5.26389 3.3289,5.26389 z"
       id="path35" />
    <path
       style="fill:#845625;fill-opacity:1;stroke:#69441d;stroke-width:0.491915;stroke-linejoin:round;stroke-dasharray:none;stroke-opacity:1"
       d="m 1402.353,460.99176 c 0,0 -9.704,1.08575 -11.1819,8.71851 0,0 -7.1602,33.21366 -8.0469,68.29497 0.8867,9.24737 10.1031,12.71346 12.7496,12.76639 l 102.205,-0.1038 c 1.6408,-0.0529 10.5043,-3.82733 11.3909,-11.3133 0.4435,-16.88011 -4.5981,-58.74612 -4.5981,-58.74612 -0.739,-16.73335 -10.5549,-19.51285 -10.5549,-19.51285 h -16.9297 z"
       id="path39" />
    <path
       style="fill:#985d33;fill-opacity:1;stroke:none;stroke-opacity:1;filter:url(#filter65)"
       d="m 1401.2118,459.27728 c -4.5207,0.10966 -8.3469,3.52343 -10.0304,8.38363 -1.6835,4.8602 -4.1228,16.80463 -3.8924,22.98011 0.2304,6.17548 11.7535,21.2437 22.9053,22.00702 11.1518,0.76332 65.6902,0.54618 70.5123,0.0749 4.8221,-0.47128 24.3447,-8.46458 24.6269,-22.68071 0.2822,-14.21613 -1.0107,-16.72327 -2.0415,-21.01263 -1.0308,-4.28936 -5.0238,-9.04904 -8.8123,-9.37801 -3.7885,-0.32897 -62.2073,-0.6647 -93.2679,-0.37431 z"
       id="path37" />
    <path
       style="fill:#985d33;fill-opacity:1;stroke:none;stroke-opacity:1"
       d="m 1421.2491,460.57544 c 0.2994,-2.9193 2.7784,-25.2521 23.6539,-25.30059 20.8754,-0.0485 25.4502,16.76725 25.4502,24.40234 l 6.3626,-0.1497 0.075,-7.03626 c 0.075,-1.04795 -5.6502,-23.8195 -31.1391,-23.95322 -25.4889,-0.13372 -29.4176,23.50409 -30.1661,25.6 l -0.2246,6.36258 z"
       id="path38" />
    <rect
       style="fill:#ebc25d;fill-opacity:1;stroke:none;stroke-width:0.5;stroke-linejoin:round;stroke-dasharray:none;stroke-opacity:1"
       id="rect65"
       width="17.996075"
       height="20.536697"
       x="1436.0868"
       y="501.66702"
       ry="2.5141704" />
    <path
       style="fill:#6764c8;fill-opacity:1;stroke:none;stroke-width:0.5;stroke-linejoin:round;stroke-dasharray:none;stroke-opacity:1;filter:url(#filter132)"
       d="m 1136.1874,814.37529 c 0,0 -0.3705,-13.23241 1.0586,-20.43084 0,0 2.3819,-13.02068 5.293,-18.9488 3.3875,-4.07558 9.9508,-0.74102 9.9508,-0.74102 0,0 6.9008,4.48994 13.3382,4.34023 10.1801,0 15.1233,-5.03441 16.5141,-8.25702 1.3908,-3.22261 0.871,-5.22266 1.7354,-6.7493 0.8644,-1.52664 1.1901,-2.52297 2.7107,-2.56632 1.5206,-0.0433 2.6057,0.82983 4.3273,0.41813 1.7216,-0.4117 3.2174,-4.44078 4.5648,-4.44078 0,0 4.7101,-1.61578 6.8809,0.10586 2.1708,1.72164 34.2895,35.75475 39.3796,36.20387 0,0 11.6238,6.91186 20.0074,6.98671 11.5275,-0.14971 17.8902,5.7164 17.8902,5.7164 l 2.1172,5.29296 -20.0082,15.5554 -122.4608,-2.09591 z"
       id="path66" />
    <path
       style="fill:#e5e5e7;fill-opacity:1;stroke:none;stroke-width:0.5;stroke-linejoin:round;stroke-dasharray:none;stroke-opacity:1;filter:url(#filter92)"
       d="m 1135.9545,811.37824 c 0,0 5.1871,4.76367 8.8921,4.76367 0,0 90.0863,2.59356 109.7761,2.01133 16.3553,-1.00566 26.4648,-7.62187 26.4648,-7.62187 1.9462,0.78597 1.5879,10.9035 1.5879,10.9035 -3.4933,4.86953 -17.6785,8.36289 -17.6785,8.36289 -8.1511,2.8582 -32.9222,3.81093 -32.9222,3.81093 l -86.6988,0.10586 c -8.998,0.10586 -9.5273,-8.68046 -9.5273,-8.68046 z"
       id="path65" />
    <path
       style="fill:#ffffff;fill-opacity:1;stroke:none;stroke-width:0.5;stroke-linejoin:round;stroke-dasharray:none;stroke-opacity:1"
       d="m 1214.5778,767.55088 -14.2222,8.9076 c -1.9461,1.38479 0.1497,4.11696 0.1497,4.11696 0,0 1.5345,2.13333 3.8175,0.67368 l 14.1474,-9.73099 z"
       id="path67" />
    <path
       style="fill:#ffffff;fill-opacity:1;stroke:none;stroke-width:0.479272;stroke-linejoin:round;stroke-dasharray:none;stroke-opacity:1"
       d="m 1226.6478,773.71654 -13.2668,9.11434 c -1.8083,1.40576 0.3177,3.92917 0.3177,3.92917 0,0 1.5624,1.97462 3.6908,0.4831 l 13.1601,-9.89827 z"
       id="path68" />
    <path
       style="fill:#ffffff;fill-opacity:1;stroke:none;stroke-width:0.452487;stroke-linejoin:round;stroke-dasharray:none;stroke-opacity:1"
       d="m 1235.8766,779.27417 -12.4821,8.63478 c -1.7014,1.3318 0.299,3.72244 0.299,3.72244 0,0 1.4699,1.87073 3.4724,0.45768 l 12.3817,-9.37748 z"
       id="path69" />
    <path
       style="fill:#ffffff;fill-opacity:1;stroke:none;stroke-width:0.430567;stroke-linejoin:round;stroke-dasharray:none;stroke-opacity:1"
       d="m 1244.4147,784.723 -11.4408,8.82509 c -1.5517,1.34986 0.4712,3.5181 0.4712,3.5181 0,0 1.4922,1.7015 3.3262,0.25934 l 11.3081,-9.52495 z"
       id="path70" />
    <path
       style="fill:#373494;fill-opacity:1;stroke:none;stroke-width:0.5;stroke-linejoin:round;stroke-dasharray:none;stroke-opacity:1;filter:url(#filter71)"
       d="m 1184.3534,767.47964 c 14.1851,17.1492 28.4762,32.49879 60.3398,37.05074 0,0 -22.9714,-0.95273 -37.3683,-12.17381 -16.1965,-10.9035 -22.9715,-24.87693 -22.9715,-24.87693 z"
       id="path71" />
    <path
       style="fill:#373494;fill-opacity:1;stroke:none;stroke-width:0.5;stroke-linejoin:round;stroke-dasharray:none;stroke-opacity:1;filter:url(#filter73)"
       id="path72"
       d="m 1148.863,781.99571 c -0.014,0.79277 -0.041,1.5854 -0.062,2.37805 -0.029,0.75069 -0.03,1.501 0,2.25138 0.028,0.78047 0.1726,1.54011 0.384,2.28944 0.1776,0.69106 0.4731,1.33334 0.8104,1.95821 0.3096,0.56316 0.6866,1.08435 1.0327,1.62482 0.3668,0.53524 0.7247,1.07694 1.097,1.60843 0.4461,0.65449 0.8865,1.31273 1.3027,1.98665 0.5083,0.76943 0.9697,1.56688 1.4018,2.38106 0.4227,0.76481 0.782,1.56094 1.1338,2.35994 0.2955,0.72741 0.6097,1.44706 0.89,2.18053 0.2843,0.824 0.6404,1.61874 0.9877,2.41716 0.4193,0.93338 0.7805,1.88793 1.0831,2.86499 0.2595,0.86809 0.3607,1.76944 0.5032,2.66067 0.09,0.61349 0.2131,1.22057 0.3807,1.81737 0.1478,0.52795 0.3588,1.03457 0.5559,1.54518 0.082,0.22691 0.1481,0.45887 0.2259,0.68725 l 1.3473,0.62977 v 0 c -0.085,-0.23193 -0.1652,-0.46433 -0.2418,-0.69923 -0.1956,-0.5089 -0.4157,-1.00997 -0.5659,-1.53516 -0.1715,-0.5953 -0.31,-1.19919 -0.4076,-1.8113 -0.145,-0.9008 -0.2631,-1.80895 -0.5151,-2.68843 -0.2975,-0.97897 -0.6487,-1.93784 -1.0639,-2.87351 -0.3428,-0.7945 -0.7063,-1.58085 -0.9765,-2.40448 -0.2764,-0.73934 -0.6064,-1.45632 -0.8942,-2.1912 -0.3565,-0.80285 -0.7106,-1.60726 -1.1415,-2.3742 -0.4269,-0.81634 -0.8772,-1.61984 -1.3903,-2.38594 -0.4086,-0.67537 -0.8437,-1.33351 -1.2844,-1.98825 -0.37,-0.5314 -0.7241,-1.07338 -1.098,-1.60202 -0.3412,-0.54008 -0.7147,-1.05883 -1.0314,-1.61407 -0.3453,-0.61756 -0.6607,-1.2479 -0.841,-1.93681 -0.082,-0.27851 -0.1555,-0.5093 -0.2155,-0.7938 -0.1015,-0.48145 -0.1522,-0.86815 -0.3358,-1.38268 -0.2335,-0.7095 -0.2427,-0.71743 -0.4679,-1.97014 -0.2506,-0.81288 -0.2307,-1.28271 -0.3391,-2.38356 z" />
    <circle
       id="path73"
       style="fill:#373494;stroke:#000000"
       cx="1153.7965"
       cy="747.93921"
       r="0.04710485" />
    <path
       style="display:inline;fill:#ea5f4a;fill-opacity:1;stroke:none;stroke-width:0.5;stroke-linejoin:round;stroke-dasharray:none;stroke-opacity:1"
       d="m 1455.3076,752.58012 c -0.7111,-1.08538 -14.8959,-3.51813 -24.7017,-2.24562 -11.5275,1.04795 -20.2824,8.41684 -25.7498,14.37193 -5.4674,5.95509 -10.1233,13.44709 -11.3777,23.80351 -1.2544,10.35642 -0.075,23.5041 -0.075,23.5041 l 71.9345,11.37777 19.9111,-26.64795 -15.4199,-37.4269 z"
       id="path151" />
    <path
       style="display:inline;fill:#d34a37;fill-opacity:1;stroke:none;stroke-width:0.5;stroke-linejoin:round;stroke-dasharray:none;stroke-opacity:1;filter:url(#filter151)"
       d="m 1393.2137,811.19952 c 0,0 -15.3226,9.9535 -20.1132,19.16052 0,0 -0.3274,2.52558 1.6937,4.02266 1.6468,1.34737 4.2344,-0.5293 4.2344,-0.5293 0,0 6.9527,-4.40528 10.8725,-5.34213 3.9198,-0.93685 7.5453,-0.46197 11.8872,-0.16255 4.3419,0.29944 29.6406,12.17381 29.6406,12.17381 0,0 11.564,1.95684 18.5254,1.05859 0,0 10.497,-2.30412 15.1379,-5.82225 0,0 12.9391,-8.38806 15.5083,-15.82596 4.1525,0.92218 8.6985,0.99767 11.618,0.34404 2.9196,-0.65364 7.4896,-2.62002 7.5955,-6.64267 0,0 0.6352,-14.39686 -0.5293,-20.32498 0,0 -1.9055,-11.85624 -6.4574,-18.94881 -5.9281,-8.36288 -12.068,-13.02068 -12.068,-13.02068 -7.9394,-7.51601 -24.817,-10.03151 -25.2474,-10.1625 -0.5053,-0.13099 -2.3723,-3.80383 -4.499,-4.86952 -2.1267,-1.06569 -5.1655,-1.19635 -7.1984,-0.42344 -2.0329,0.77291 -4.1815,4.49902 -4.1815,4.49902 0,0 13.5527,1.72797 13.8147,1.74668 0.8234,0.18713 5.3999,2.49783 8.257,5.92812 2.8571,3.43029 5.3912,9.55258 7.0925,15.03201 1.7013,5.47943 2.8582,17.57264 2.8582,17.57264 l -0.5292,13.65585 -1.9055,13.02068 c 0,0 -32.7928,-9.26092 -43.2965,-10.58592 -10.5037,-1.325 -13.4382,-1.08742 -18.9488,-0.21172 -5.5106,0.8757 -13.7617,4.65781 -13.7617,4.65781 z"
       id="path132" />
  </g>
</svg>
