<?xml version="1.0" encoding="UTF-8" standalone="no"?>
<!-- Created with Inkscape (http://www.inkscape.org/) -->

<svg
   version="1.1"
   id="svg1"
   width="1536"
   height="1024"
   viewBox="0 0 1536 1024"
   xml:space="preserve"
   xmlns="http://www.w3.org/2000/svg"
   xmlns:svg="http://www.w3.org/2000/svg"><defs
     id="defs1" /><g
     id="g1"><rect
       style="fill:#fff7e2;fill-opacity:1"
       id="rect1"
       width="1568.9357"
       height="1058.7322"
       x="-14.37193"
       y="-16.767252" /><path
       style="fill:#ffffff;fill-opacity:1"
       id="rect2"
       width="870.6994"
       height="935.37311"
       x="706.61987"
       y="154.49825"
       d="m 723.02782,154.49825 854.29148,0 V 1089.8714 H 706.61987 V 170.9062 a 16.407951,16.407951 135 0 1 16.40795,-16.40795 z" /><circle
       style="fill:#ff341b;fill-opacity:1"
       id="path2"
       cx="746.7312"
       cy="190.97011"
       r="13.549985" /><circle
       style="fill:#ffc600;fill-opacity:1"
       id="circle2"
       cx="788.43097"
       cy="190.97011"
       r="13.549985" /><circle
       style="fill:#48e554;fill-opacity:1"
       id="circle3"
       cx="830.03101"
       cy="190.97011"
       r="13.549985" /><path
       style="fill:#f0f0f0;fill-opacity:1;stroke-width:1.05147"
       id="rect3"
       width="687.21869"
       height="41.319298"
       x="879.68188"
       y="171.2655"
       d="m 892.17001,171.2655 h 674.73059 v 41.3193 H 890.76108 a 11.079199,11.079199 45 0 1 -11.0792,-11.0792 v -17.75197 a 12.488123,12.488123 135 0 1 12.48813,-12.48813 z" /><rect
       style="fill:#c9cdcd;fill-opacity:1;stroke-width:4.77603"
       id="rect4"
       width="846.89587"
       height="1.5719298"
       x="706.61993"
       y="228.69707" /><path
       style="fill:#f9f8f6;fill-opacity:1;stroke-width:1.35558"
       id="rect10"
       width="490.44211"
       height="739.46991"
       x="1068.9122"
       y="367.68188"
       ry="0"
       rx="0"
       d="m 1086.5178,367.68188 h 472.8365 V 1107.1518 H 1068.9122 V 385.2875 a 17.605614,17.605614 135 0 1 17.6056,-17.60562 z"
       transform="translate(14)" /><rect
       style="fill:#ffffff;fill-opacity:1;stroke:none;stroke-width:2.046;stroke-linejoin:round;stroke-dasharray:none;stroke-opacity:1"
       id="rect207"
       width="451.84122"
       height="511.23819"
       x="1119.35"
       y="400.22244"
       ry="26.870058" /><path
       style="fill:#f9f8f6;fill-opacity:1;stroke:none;stroke-width:3.346;stroke-linejoin:miter;stroke-dasharray:none;stroke-opacity:1"
       id="rect215"
       width="318.90515"
       height="398.1011"
       x="743.87634"
       y="373.35239"
       rx="0"
       ry="16.970554"
       d="m 769.1554,373.35239 268.347,0 c 4.5887,0 12.2814,-0.15361 16.2926,1.97906 5.3558,2.8475 8.9865,8.4799 8.9865,14.99149 v 355.85149 c 0,4.58866 0.1536,12.28136 -1.9791,16.2926 -1.5836,2.97865 -4.0287,5.42374 -7.0074,7.00741 -4.0112,2.13266 -11.7039,1.97905 -16.2926,1.97905 h -268.347 c -4.58866,0 -12.28136,0.15361 -16.29259,-1.97906 -2.97866,-1.58367 -5.42374,-4.02876 -7.00741,-7.00741 -2.13266,-4.01124 -1.97906,-11.70393 -1.97906,-16.29259 V 398.63145 c 0,-4.58866 -0.1536,-12.28136 1.97906,-16.2926 1.58368,-2.97866 4.02876,-5.42374 7.00742,-7.00741 4.01123,-2.13266 11.70392,-1.97905 16.29258,-1.97905 z" /><path
       style="font-weight:500;font-size:161.722px;font-family:'SF Pro Display';-inkscape-font-specification:'SF Pro Display Medium';fill:#323733;stroke:#323733;stroke-width:2.48163;stroke-linejoin:round"
       d="m 169.46078,520.71838 v -98.70727 h 34.82393 V 406.7707 h -87.41516 v 15.24041 h 34.90289 v 98.70727 z m 31.6653,0 h 17.05661 v -49.74846 c 0,-11.76591 6.79107,-19.10973 17.76731,-19.10973 3.31657,0 6.31727,0.39483 7.65969,0.94759 v -15.87213 c -1.26345,-0.2369 -3.39553,-0.63173 -5.84347,-0.63173 -9.79176,0 -17.21455,5.76451 -19.97835,15.4773 h -0.39483 v -14.13488 h -16.26696 z m 80.38721,-12.08177 c -9.16004,0 -15.16144,-4.73795 -15.16144,-12.0028 0,-7.10693 5.76451,-11.60798 15.9511,-12.31867 l 20.45214,-1.26345 v 6.55416 c 0,10.81832 -9.31796,19.03076 -21.2418,19.03076 z m -4.73795,13.50316 c 10.89728,0 21.39974,-5.84347 26.21665,-15.08247 h 0.39483 v 13.66108 h 16.34593 v -57.25022 c 0,-16.66178 -12.87143,-27.32217 -33.00772,-27.32217 -20.53111,0 -33.32357,11.05522 -34.27116,26.05872 h 16.10902 c 1.50035,-7.42279 7.65969,-12.16074 17.53042,-12.16074 10.42348,0 16.66178,5.52761 16.66178,14.76661 v 6.39623 l -22.74215,1.34242 c -19.74146,1.10552 -30.87564,10.02866 -30.87564,24.55837 0,14.92454 11.37108,25.03217 27.63804,25.03217 z m 130.76739,-55.9078 c -1.50035,-16.34593 -14.52971,-30.08598 -35.92945,-30.08598 -23.61078,0 -39.08808,16.66179 -39.08808,43.03637 0,26.84838 15.4773,43.11534 39.24602,43.11534 19.97835,0 34.11323,-12.0028 35.92944,-29.69115 h -16.42489 c -1.97414,9.63383 -8.84417,15.39834 -19.34662,15.39834 -13.26626,0 -22.03147,-10.58142 -22.03147,-28.82253 0,-17.84627 8.68624,-28.82252 21.87354,-28.82252 11.13418,0 17.76731,7.02796 19.50455,15.87213 z m 30.086,7.02796 h -0.15794 V 406.7707 h -17.05661 v 113.94768 h 17.05661 V 490.8693 l 7.10693,-7.02795 28.1908,36.87703 h 19.82042 l -35.77152,-47.30052 34.4291,-35.77152 H 471.1892 Z m 83.46686,47.45845 V 406.7707 h -17.68834 v 113.94768 z m 23.92663,-102.73453 v 19.66249 h -12.08177 v 13.50316 h 12.08177 v 47.69535 c 0,16.03006 6.55416,22.42629 23.37388,22.42629 3.79036,0 7.58072,-0.31586 9.4759,-0.78965 v -13.50316 c -1.10552,0.2369 -3.86932,0.39483 -5.60657,0.39483 -6.94899,0 -10.10763,-3.2376 -10.10763,-10.42349 V 451.1495 h 15.79317 V 437.64634 H 562.1578 v -19.66249 z"
       id="text200"
       transform="scale(1.0437625,0.95807239)"
       aria-label="TrackIt" /><path
       style="font-weight:500;font-size:65.8013px;font-family:'SF Pro Display';-inkscape-font-specification:'SF Pro Display Medium';fill:#323733;stroke-width:3.15538;stroke-linejoin:round"
       d="m 123.68609,561.07872 v 46.36293 h 7.19701 v -15.83986 h 9.96016 c 9.09266,0 15.48644,-6.23313 15.48644,-15.29366 0,-9.02841 -6.26526,-15.22941 -15.26153,-15.22941 z m 7.19701,6.07249 h 8.28942 c 6.23314,0 9.79951,3.34147 9.79951,9.18904 0,5.84758 -3.56637,9.22118 -9.83163,9.22118 h -8.2573 z m 43.59979,11.47024 c 4.85156,0 8.12877,3.63064 8.28942,8.8035 h -16.90014 c 0.35343,-5.1086 3.75916,-8.8035 8.61072,-8.8035 z m 8.25729,18.89217 c -0.93175,2.95592 -3.85554,4.94795 -7.80748,4.94795 -5.55841,0 -9.09266,-3.88767 -9.09266,-9.76738 v -0.41768 h 23.87225 v -2.37759 c 0,-10.24932 -5.84757,-16.86801 -15.2294,-16.86801 -9.54247,0 -15.64709,7.0685 -15.64709,17.67125 0,10.66701 6.00823,17.38208 15.93626,17.38208 7.74322,0 13.59079,-4.40175 14.55468,-10.57062 z m 12.33774,9.92803 h 6.93998 v -20.24161 c 0,-4.7873 2.76314,-7.77535 7.22915,-7.77535 1.34944,0 2.57036,0.16065 3.11656,0.38556 v -6.45804 c -0.51407,-0.0964 -1.38157,-0.25704 -2.37758,-0.25704 -3.98406,0 -7.00424,2.34546 -8.12878,6.29739 h -0.16064 v -5.75119 h -6.61869 z m 20.9806,-24.22567 c 0,4.72304 3.08443,7.90386 9.18905,9.38182 l 6.04035,1.47796 c 3.53425,0.89963 4.81943,2.08842 4.81943,4.2411 0,2.73101 -2.57036,4.46601 -6.7472,4.46601 -4.2411,0 -6.74721,-1.79926 -7.29341,-5.04434 h -6.87572 c 0.5462,6.201 5.84758,10.34571 13.84783,10.34571 8.28942,0 14.04061,-4.2411 14.04061,-10.40997 0,-4.98008 -2.57036,-7.55044 -9.38183,-9.18905 l -5.68692,-1.31731 c -3.50212,-0.8675 -5.17286,-2.2812 -5.17286,-4.36962 0,-2.66675 2.5061,-4.49813 6.26526,-4.49813 3.88767,0 6.36165,1.89564 6.68295,4.94795 h 6.52229 c -0.2249,-6.00823 -5.49415,-10.2172 -13.01246,-10.2172 -7.90387,0 -13.23737,4.14471 -13.23737,10.18507 z m 46.94125,24.86826 c 9.671,0 16.03264,-6.65081 16.03264,-17.54273 0,-10.85978 -6.39377,-17.5106 -16.03264,-17.5106 -9.63886,0 -16.03264,6.65082 -16.03264,17.5106 0,10.89192 6.36165,17.54273 16.03264,17.54273 z m 0,-5.71906 c -5.42989,0 -8.96414,-4.30536 -8.96414,-11.82367 0,-7.48618 3.53425,-11.79154 8.96414,-11.79154 5.4299,0 8.96415,4.30536 8.96415,11.79154 0,7.51831 -3.50212,11.82367 -8.96415,11.82367 z m 21.39828,5.07647 h 6.93998 v -19.69541 c 0,-5.23711 3.1487,-8.7071 8.03239,-8.7071 4.81943,0 7.19701,2.79527 7.19701,7.87173 v 20.53078 h 6.97211 v -21.88022 c 0,-7.74322 -4.27322,-12.49839 -11.72728,-12.49839 -5.20498,0 -8.80349,2.37759 -10.63488,6.23313 h -0.16064 v -5.6548 h -6.61869 z m 47.6481,-4.91582 c -3.72702,0 -6.16887,-1.92777 -6.16887,-4.88369 0,-2.89166 2.34546,-4.72304 6.49017,-5.01221 l 8.32155,-0.51407 v 2.66675 c 0,4.40175 -3.79129,7.74322 -8.64285,7.74322 z m -1.92777,5.49415 c 4.43388,0 8.70711,-2.37758 10.66701,-6.13674 h 0.16065 v 5.55841 h 6.65081 v -23.29392 c 0,-6.77933 -5.23711,-11.11682 -13.43015,-11.11682 -8.35368,0 -13.55866,4.49814 -13.94422,10.60275 h 6.55443 c 0.61046,-3.02018 3.11656,-4.94795 7.13276,-4.94795 4.2411,0 6.77933,2.24907 6.77933,6.00823 v 2.60249 l -9.25331,0.5462 c -8.03238,0.44981 -12.56265,4.08045 -12.56265,9.99229 0,6.07248 4.62666,10.18506 11.24534,10.18506 z m 24.45059,-0.57833 h 6.93998 v -46.36293 h -6.93998 z m 46.94126,0 v -40.16193 h 14.16913 v -6.201 h -35.5674 v 6.201 h 14.20126 v 40.16193 z m 22.61918,-4.91582 c -3.72703,0 -6.16888,-1.92777 -6.16888,-4.88369 0,-2.89166 2.34546,-4.72304 6.49017,-5.01221 l 8.32155,-0.51407 v 2.66675 c 0,4.40175 -3.79128,7.74322 -8.64284,7.74322 z m -1.92778,5.49415 c 4.43388,0 8.70711,-2.37758 10.66701,-6.13674 h 0.16065 v 5.55841 h 6.65081 v -23.29392 c 0,-6.77933 -5.23711,-11.11682 -13.43014,-11.11682 -8.35368,0 -13.55867,4.49814 -13.94422,10.60275 h 6.55442 c 0.61046,-3.02018 3.11657,-4.94795 7.13276,-4.94795 4.2411,0 6.77933,2.24907 6.77933,6.00823 v 2.60249 l -9.25331,0.5462 c -8.03238,0.44981 -12.56265,4.08045 -12.56265,9.99229 0,6.07248 4.62666,10.18506 11.24534,10.18506 z m 23.58309,-24.804 c 0,4.72304 3.08444,7.90386 9.18905,9.38182 l 6.04035,1.47796 c 3.53425,0.89963 4.81943,2.08842 4.81943,4.2411 0,2.73101 -2.57036,4.46601 -6.7472,4.46601 -4.2411,0 -6.7472,-1.79926 -7.29341,-5.04434 h -6.87572 c 0.54621,6.201 5.84758,10.34571 13.84784,10.34571 8.28942,0 14.0406,-4.2411 14.0406,-10.40997 0,-4.98008 -2.57036,-7.55044 -9.38182,-9.18905 l -5.68693,-1.31731 c -3.50212,-0.8675 -5.17286,-2.2812 -5.17286,-4.36962 0,-2.66675 2.50611,-4.49813 6.26526,-4.49813 3.88768,0 6.36165,1.89564 6.68295,4.94795 h 6.5223 c -0.22491,-6.00823 -5.49416,-10.2172 -13.01247,-10.2172 -7.90387,0 -13.23737,4.14471 -13.23737,10.18507 z m 39.68,4.91582 h -0.0643 v -27.05308 h -6.93998 v 46.36293 h 6.93998 v -12.14497 l 2.89166,-2.85953 11.47024,15.0045 h 8.06452 l -14.55469,-19.24559 14.00848,-14.55469 h -8.1609 z"
       id="text201"
       aria-label="Personal Task" /><path
       style="font-weight:500;font-size:65.8013px;font-family:'SF Pro Display';-inkscape-font-specification:'SF Pro Display Medium';fill:#323733;stroke-width:3.15538;stroke-linejoin:round"
       d="m 153.50126,680.27368 h 8.45007 l -8.32155,-8.77136 c 2.53823,-3.79129 3.85554,-8.86776 3.85554,-15.42218 v -1.9599 h -6.23313 v 1.76712 c 0,5.07647 -0.64259,8.51433 -1.99203,11.02043 l -10.53849,-11.34173 c 6.8436,-3.63063 9.73525,-7.19701 9.73525,-11.92006 0,-6.10461 -5.04433,-10.4421 -12.14496,-10.4421 -7.00424,0 -12.20923,4.46601 -12.20923,10.4421 0,3.40574 1.57435,6.32952 5.75119,10.73127 -0.22491,0.0643 -1.12453,0.57833 -1.89564,0.96389 -6.04036,3.24508 -8.89989,7.2934 -8.89989,12.65904 0,7.77535 6.36165,13.07672 15.77561,13.07672 5.52628,0 10.89191,-1.89564 14.65107,-5.17286 z m -21.59105,-21.17337 c 0.28917,-0.16064 1.06028,-0.57833 1.44583,-0.7711 l 12.1771,13.30163 c -2.21694,2.37758 -6.16888,3.88767 -10.02442,3.88767 -5.75119,0 -9.63886,-3.21295 -9.63886,-8.03239 0,-3.30934 1.73499,-5.71905 6.04035,-8.38581 z m 3.27721,-7.16488 c -3.43786,-3.40573 -4.69091,-5.49416 -4.69091,-7.90387 0,-3.30934 2.44185,-5.68693 5.84758,-5.68693 3.50212,0 5.84757,2.31333 5.84757,5.6548 0,3.11657 -1.92777,5.3335 -7.00424,7.936 z m 81.99459,28.33825 V 633.91075 H 209.985 v 19.59902 h -23.80799 v -19.59902 h -7.19702 v 46.36293 h 7.19702 V 659.7429 H 209.985 v 20.53078 z m 18.63513,-4.91582 c -3.72702,0 -6.16887,-1.92777 -6.16887,-4.88369 0,-2.89166 2.34546,-4.72304 6.49017,-5.01221 l 8.32155,-0.51407 v 2.66675 c 0,4.40175 -3.79129,7.74322 -8.64285,7.74322 z m -1.92777,5.49415 c 4.43388,0 8.70711,-2.37758 10.66701,-6.13674 h 0.16065 v 5.55841 h 6.65081 v -23.29392 c 0,-6.77933 -5.23711,-11.11682 -13.43015,-11.11682 -8.35368,0 -13.55866,4.49814 -13.94422,10.60275 h 6.55443 c 0.61046,-3.02018 3.11656,-4.94795 7.13276,-4.94795 4.2411,0 6.77933,2.24907 6.77933,6.00823 v 2.60249 l -9.25331,0.5462 c -8.03238,0.44982 -12.56265,4.08045 -12.56265,9.99229 0,6.07248 4.62665,10.18506 11.24534,10.18506 z m 42.18609,0 c 8.57859,0 14.10487,-6.7472 14.10487,-17.47847 0,-10.69913 -5.55841,-17.44634 -14.07274,-17.44634 -4.7873,0 -8.64285,2.37759 -10.66701,6.29739 h -0.16064 v -18.31384 h -6.93999 v 46.36293 h 6.74721 v -5.75119 h 0.12852 c 2.08842,3.91981 5.91183,6.32952 10.85978,6.32952 z m -1.86351,-29.07723 c 5.46202,0 8.83562,4.49813 8.83562,11.59876 0,7.16489 -3.3736,11.59877 -8.83562,11.59877 -5.26925,0 -8.96414,-4.5624 -8.96414,-11.59877 0,-6.97211 3.69489,-11.59876 8.96414,-11.59876 z m 21.59105,28.4989 h 6.93998 V 646.4734 H 295.803 Z m 3.46999,-38.74822 c 2.24907,0 4.04833,-1.76713 4.04833,-3.95194 0,-2.21694 -1.79926,-3.98406 -4.04833,-3.98406 -2.21693,0 -4.01619,1.76712 -4.01619,3.98406 0,2.18481 1.79926,3.95194 4.01619,3.95194 z m 12.59479,-3.05231 v 8.00025 h -4.91582 v 5.49416 h 4.91582 v 19.40624 c 0,6.5223 2.66675,9.12479 9.51034,9.12479 1.54222,0 3.08444,-0.12852 3.85555,-0.3213 v -5.49415 c -0.44982,0.0964 -1.57435,0.16065 -2.2812,0.16065 -2.8274,0 -4.11258,-1.31731 -4.11258,-4.2411 v -18.63513 h 6.4259 v -5.49416 h -6.4259 v -8.00025 z m 51.95345,41.80053 v -40.16192 h 14.16913 v -6.20101 h -35.5674 v 6.20101 h 14.20125 v 40.16192 z m 12.88394,0 h 6.93998 v -20.24161 c 0,-4.7873 2.76314,-7.77535 7.22915,-7.77535 1.34944,0 2.57036,0.16065 3.11657,0.38556 v -6.45804 c -0.51408,-0.0964 -1.38158,-0.25704 -2.37759,-0.25704 -3.98406,0 -7.00424,2.34546 -8.12877,6.29739 h -0.16065 v -5.75119 h -6.61869 z m 32.70789,-4.91582 c -3.72703,0 -6.16887,-1.92777 -6.16887,-4.88369 0,-2.89166 2.34545,-4.72304 6.49016,-5.01221 l 8.32156,-0.51407 v 2.66675 c 0,4.40175 -3.79129,7.74322 -8.64285,7.74322 z m -1.92777,5.49415 c 4.43387,0 8.7071,-2.37758 10.667,-6.13674 h 0.16065 v 5.55841 h 6.65082 v -23.29392 c 0,-6.77933 -5.23712,-11.11682 -13.43015,-11.11682 -8.35368,0 -13.55867,4.49814 -13.94422,10.60275 h 6.55442 c 0.61047,-3.02018 3.11657,-4.94795 7.13276,-4.94795 4.2411,0 6.77934,2.24907 6.77934,6.00823 v 2.60249 l -9.25331,0.5462 c -8.03239,0.44982 -12.56265,4.08045 -12.56265,9.99229 0,6.07248 4.62665,10.18506 11.24534,10.18506 z m 53.20652,-22.74771 c -0.61046,-6.65082 -5.91183,-12.24136 -14.61894,-12.24136 -9.60673,0 -15.90412,6.77934 -15.90412,17.5106 0,10.92405 6.29739,17.54273 15.96838,17.54273 8.12877,0 13.87996,-4.88369 14.61894,-12.0807 h -6.68294 c -0.80324,3.9198 -3.59851,6.26526 -7.87174,6.26526 -5.39777,0 -8.96414,-4.30536 -8.96414,-11.72729 0,-7.26127 3.53425,-11.72728 8.89988,-11.72728 4.53026,0 7.22915,2.85953 7.936,6.45804 z m 12.24134,2.85953 h -0.0643 v -27.05308 h -6.93998 v 46.36293 h 6.93998 v -12.14496 l 2.89166,-2.85953 11.47025,15.00449 h 8.06451 l -14.55468,-19.24559 14.00848,-14.55469 h -8.1609 z m 38.45907,-9.51035 c 4.85156,0 8.12877,3.63064 8.28942,8.8035 H 502.7815 c 0.35343,-5.1086 3.75916,-8.8035 8.61072,-8.8035 z m 8.25729,18.89217 c -0.93176,2.95592 -3.85554,4.94795 -7.80748,4.94795 -5.55841,0 -9.09266,-3.88767 -9.09266,-9.76738 v -0.41768 h 23.87225 v -2.37759 c 0,-10.24932 -5.84758,-16.86801 -15.2294,-16.86801 -9.54247,0 -15.64709,7.0685 -15.64709,17.67125 0,10.66701 6.00823,17.38208 15.93625,17.38208 7.74322,0 13.5908,-4.40174 14.55469,-10.57062 z m 12.33774,9.92803 h 6.93998 v -20.24161 c 0,-4.7873 2.76314,-7.77535 7.22914,-7.77535 1.34944,0 2.57037,0.16065 3.11657,0.38556 v -6.45804 c -0.51407,-0.0964 -1.38157,-0.25704 -2.37759,-0.25704 -3.98406,0 -7.00424,2.34546 -8.12877,6.29739 h -0.16065 v -5.75119 h -6.61868 z"
       id="text202"
       aria-label="&amp; Habit Tracker" /><path
       style="font-weight:500;font-size:161.722px;font-family:'SF Pro Display';-inkscape-font-specification:'SF Pro Display Medium';fill:#222623;fill-opacity:1;stroke:none;stroke-width:1.07539;stroke-linejoin:round;stroke-opacity:1"
       d="m 779.54386,326.53982 v -40.98048 h 15.75103 v -6.32738 H 755.7566 v 6.32738 h 15.78674 v 40.98048 z m 14.32237,0 h 7.7148 v -20.65415 c 0,-4.88489 3.07163,-7.93383 8.03623,-7.93383 1.50011,0 2.85733,0.16393 3.46452,0.39341 v -6.58966 c -0.57147,-0.0984 -1.53581,-0.26227 -2.64303,-0.26227 -4.42886,0 -7.78623,2.39326 -9.0363,6.42574 h -0.17859 v -5.86841 h -7.35763 z m 36.35953,-5.01601 c -4.14311,0 -6.8576,-1.96706 -6.8576,-4.98322 0,-2.95059 2.60737,-4.81931 7.21479,-5.11437 l 9.25054,-0.52454 v 2.7211 c 0,4.49146 -4.21455,7.90103 -9.60773,7.90103 z m -2.14295,5.60613 c 4.92886,0 9.67917,-2.42604 11.8579,-6.26181 h 0.17855 v 5.67169 h 7.39334 v -23.76868 c 0,-6.9175 -5.82182,-11.34339 -14.92957,-11.34339 -9.28631,0 -15.07238,4.58982 -15.50098,10.81884 h 7.2862 c 0.67863,-3.08173 3.46447,-5.04879 7.9291,-5.04879 4.71456,0 7.53614,2.2949 7.53614,6.13069 v 2.65553 l -10.28638,0.55732 c -8.9291,0.459 -13.96516,4.16363 -13.96516,10.19596 0,6.19624 5.14318,10.39264 12.50086,10.39264 z m 59.14669,-23.21133 c -0.67863,-6.78639 -6.57182,-12.49086 -16.25109,-12.49086 -10.67926,0 -17.67974,6.9175 -17.67974,17.86749 0,11.14669 7.00048,17.90027 17.75118,17.90027 9.0363,0 15.42958,-4.98321 16.25109,-12.32692 h -7.42911 c -0.89287,3.99969 -4.00023,6.39295 -8.75054,6.39295 -6.00039,0 -9.96494,-4.39311 -9.96494,-11.9663 0,-7.40927 3.92888,-11.9663 9.8935,-11.9663 5.03608,0 8.03622,2.91781 8.82198,6.58967 z m 13.60806,2.91779 h -0.0712 v -27.60444 h -7.71478 v 47.30786 h 7.71478 v -12.3925 l 3.21448,-2.91779 12.75086,15.31029 h 8.96486 l -16.17965,-19.63784 15.57245,-14.85133 h -9.07198 z m 37.75242,19.70342 v -47.30786 h -8.00046 v 47.30786 z m 10.82214,-42.65248 v 8.16331 h -5.46463 v 5.60613 h 5.46463 v 19.80177 c 0,6.65524 2.96448,9.31077 10.57215,9.31077 1.7144,0 3.42879,-0.13114 4.28599,-0.32784 v -5.60614 c -0.50008,0.0984 -1.75007,0.16393 -2.53592,0.16393 -3.14303,0 -4.57166,-1.34417 -4.57166,-4.32754 v -19.01495 h 7.14325 v -5.60613 h -7.14325 v -8.16331 z"
       id="path202"
       aria-label="TrackIt" /><path
       d="m 829.16728,438.82959 c 0,5.00001 3.6875,8.37501 9.10417,8.37501 5.85417,0 9.35417,-3.45834 9.35417,-9.41667 v -21.31252 h -4.66667 v 21.29168 c 0,3.43751 -1.66666,5.27084 -4.72917,5.27084 -2.60416,0 -4.41667,-1.70833 -4.47917,-4.20834 z m 31.18752,4.52084 c -2.41667,0 -4,-1.25 -4,-3.16667 0,-1.875 1.52083,-3.0625 4.20833,-3.25 l 5.39584,-0.33333 v 1.72916 c 0,2.85417 -2.45833,5.02084 -5.60417,5.02084 z m -1.25,3.5625 c 2.875,0 5.64584,-1.54166 6.91667,-3.97917 h 0.10417 v 3.60417 h 4.3125 v -15.10417 c 0,-4.39584 -3.39583,-7.20834 -8.70834,-7.20834 -5.41667,0 -8.79167,2.91667 -9.04167,6.875 h 4.25 c 0.39583,-1.95833 2.02084,-3.20833 4.625,-3.20833 2.75001,0 4.39584,1.45833 4.39584,3.89583 v 1.6875 l -6,0.35417 c -5.20834,0.29167 -8.14584,2.64584 -8.14584,6.47917 0,3.9375 3,6.60417 7.29167,6.60417 z m 15.68751,-0.375 h 4.5 v -12.77084 c 0,-3.39584 2.04167,-5.64584 5.20834,-5.64584 3.125,0 4.66667,1.8125 4.66667,5.10417 v 13.31251 h 4.52084 v -14.18751 c 0,-5.02083 -2.77084,-8.10417 -7.60418,-8.10417 -3.375,0 -5.70833,1.54167 -6.89583,4.04167 h -0.10417 v -3.66667 h -4.29167 z m 42.02087,-21.91668 h -4.50001 v 12.77084 c 0,3.41667 -1.95833,5.66667 -5.20833,5.66667 -3.10417,0 -4.68751,-1.79166 -4.68751,-5.125 v -13.31251 h -4.5 v 14.18751 c 0,5.02084 2.91667,8.12501 7.68751,8.12501 3.35416,0 5.58333,-1.47917 6.79167,-4.10417 h 0.10416 v 3.70833 h 4.31251 z m 12.10417,18.72918 c -2.41667,0 -4.00001,-1.25 -4.00001,-3.16667 0,-1.875 1.52084,-3.0625 4.20834,-3.25 l 5.39584,-0.33333 v 1.72916 c 0,2.85417 -2.45834,5.02084 -5.60417,5.02084 z m -1.25,3.5625 c 2.875,0 5.64583,-1.54166 6.91667,-3.97917 h 0.10417 v 3.60417 h 4.3125 v -15.10417 c 0,-4.39584 -3.39584,-7.20834 -8.70834,-7.20834 -5.41667,0 -8.79167,2.91667 -9.04167,6.875 h 4.25 c 0.39583,-1.95833 2.02083,-3.20833 4.625,-3.20833 2.75,0 4.39584,1.45833 4.39584,3.89583 v 1.6875 l -6.00001,0.35417 c -5.20833,0.29167 -8.14584,2.64584 -8.14584,6.47917 0,3.9375 3.00001,6.60417 7.29168,6.60417 z m 15.68751,-0.375 h 4.50001 v -13.12501 c 0,-3.10417 1.79166,-5.04167 4.6875,-5.04167 0.875,0 1.66667,0.10417 2.02083,0.25 v -4.1875 c -0.33333,-0.0625 -0.89583,-0.16667 -1.54166,-0.16667 -2.58334,0 -4.54167,1.52084 -5.27084,4.08334 h -0.10417 v -3.72917 h -4.29167 z m 16.16668,8.16668 c 4.5625,0 6.70834,-1.70834 8.58334,-7.02084 l 8.22917,-23.06252 h -4.75 l -5.56251,17.83335 h -0.0625 l -5.5625,-17.83335 h -4.875 l 7.91667,21.93752 c 0,0.0208 -0.39584,1.3125 -0.39584,1.35416 -0.6875,2.25001 -1.79166,3.12501 -3.89583,3.12501 -0.375,0 -1.125,0 -1.45834,-0.0833 v 3.64584 c 0.33334,0.0625 1.47917,0.10417 1.83334,0.10417 z"
       id="text203"
       style="font-weight:500;font-size:42.6667px;font-family:'SF Pro Display';-inkscape-font-specification:'SF Pro Display Medium';fill:#222623;stroke-width:2.046;stroke-linejoin:round"
       aria-label="January" /><path
       d="m 1188.4173,468.03793 v -30.06252 h -4.6667 v 12.70834 h -15.4375 v -12.70834 h -4.6667 v 30.06252 h 4.6667 v -13.31251 h 15.4375 v 13.31251 z m 12.0833,-3.1875 c -2.4166,0 -4,-1.25 -4,-3.16667 0,-1.875 1.5209,-3.0625 4.2084,-3.25 l 5.3958,-0.33333 v 1.72916 c 0,2.85417 -2.4583,5.02084 -5.6042,5.02084 z m -1.25,3.5625 c 2.875,0 5.6459,-1.54166 6.9167,-3.97917 h 0.1042 v 3.60417 h 4.3125 v -15.10417 c 0,-4.39584 -3.3959,-7.20834 -8.7084,-7.20834 -5.4166,0 -8.7916,2.91667 -9.0416,6.875 h 4.25 c 0.3958,-1.95833 2.0208,-3.20833 4.625,-3.20833 2.75,0 4.3958,1.45833 4.3958,3.89583 v 1.6875 l -6,0.35417 c -5.2083,0.29167 -8.1458,2.64584 -8.1458,6.47917 0,3.9375 3,6.60417 7.2916,6.60417 z m 27.3542,0 c 5.5625,0 9.1459,-4.375 9.1459,-11.33334 0,-6.9375 -3.6042,-11.31251 -9.125,-11.31251 -3.1042,0 -5.6042,1.54167 -6.9167,4.08334 h -0.1042 v -11.87501 h -4.5 v 30.06252 h 4.375 v -3.72917 h 0.083 c 1.3541,2.54167 3.8333,4.10417 7.0416,4.10417 z m -1.2083,-18.85418 c 3.5417,0 5.7292,2.91667 5.7292,7.52084 0,4.64584 -2.1875,7.52084 -5.7292,7.52084 -3.4167,0 -5.8125,-2.95833 -5.8125,-7.52084 0,-4.52083 2.3958,-7.52084 5.8125,-7.52084 z m 14,18.47918 h 4.5 v -21.91668 h -4.5 z m 2.25,-25.12502 c 1.4583,0 2.625,-1.14583 2.625,-2.5625 0,-1.4375 -1.1667,-2.58333 -2.625,-2.58333 -1.4375,0 -2.6042,1.14583 -2.6042,2.58333 0,1.41667 1.1667,2.5625 2.6042,2.5625 z m 8.1667,-1.97916 v 5.1875 h -3.1875 v 3.5625 h 3.1875 v 12.58335 c 0,4.22917 1.7291,5.91667 6.1666,5.91667 1,0 2,-0.0833 2.5,-0.20834 v -3.5625 c -0.2916,0.0625 -1.0208,0.10417 -1.4791,0.10417 -1.8334,0 -2.6667,-0.85417 -2.6667,-2.75 v -12.08335 h 4.1667 v -3.5625 h -4.1667 v -5.1875 z m 11.9791,11.39584 c 0,3.0625 2.0001,5.125 5.9584,6.08334 l 3.9167,0.95833 c 2.2916,0.58333 3.125,1.35417 3.125,2.75 0,1.77084 -1.6667,2.89584 -4.375,2.89584 -2.75,0 -4.375,-1.16667 -4.7292,-3.27084 h -4.4584 c 0.3542,4.02084 3.7917,6.70834 8.9792,6.70834 5.375,0 9.1042,-2.75 9.1042,-6.75 0,-3.22917 -1.6667,-4.89584 -6.0833,-5.95834 l -3.6875,-0.85417 c -2.2709,-0.5625 -3.3542,-1.47917 -3.3542,-2.83334 0,-1.72916 1.625,-2.91666 4.0625,-2.91666 2.5208,0 4.125,1.22916 4.3333,3.20833 h 4.2292 c -0.1458,-3.89583 -3.5625,-6.625 -8.4375,-6.625 -5.125,0 -8.5834,2.6875 -8.5834,6.60417 z"
       id="text204"
       style="font-weight:500;font-size:42.6667px;font-family:'SF Pro Display';-inkscape-font-specification:'SF Pro Display Medium';fill:#222623;stroke-width:2.046;stroke-linejoin:round"
       aria-label="Habits" /><path
       d="m 1168.3131,536.89205 h 6.4167 c 3.6042,0 5.7917,2.04167 5.7917,5.39584 0,3.4375 -2.0625,5.41667 -5.6667,5.41667 h -6.5417 z m 0,14.58334 h 6.4167 l 6.125,11.56251 h 5.375 l -6.7292,-12.29167 c 3.6667,-1.22917 5.8334,-4.52084 5.8334,-8.58334 0,-5.60417 -3.8542,-9.18751 -10.0417,-9.18751 h -11.6459 v 30.06252 h 4.6667 z m 30.0625,-7.125 c 3.1459,0 5.2709,2.35417 5.375,5.70834 h -10.9583 c 0.2292,-3.31251 2.4375,-5.70834 5.5833,-5.70834 z m 5.3542,12.25001 c -0.6042,1.91667 -2.5,3.20833 -5.0625,3.20833 -3.6042,0 -5.8958,-2.52083 -5.8958,-6.33333 v -0.27084 h 15.4791 v -1.54167 c 0,-6.64583 -3.7916,-10.9375 -9.875,-10.9375 -6.1875,0 -10.1458,4.58333 -10.1458,11.45834 0,6.91667 3.8958,11.27084 10.3333,11.27084 5.0209,0 8.8125,-2.85417 9.4375,-6.85417 z m 15.6667,3.25 c -2.4167,0 -4,-1.25 -4,-3.16667 0,-1.875 1.5208,-3.0625 4.2083,-3.25 l 5.3959,-0.33333 v 1.72916 c 0,2.85417 -2.4584,5.02084 -5.6042,5.02084 z m -1.25,3.5625 c 2.875,0 5.6458,-1.54166 6.9167,-3.97917 h 0.1041 v 3.60417 h 4.3125 v -15.10418 c 0,-4.39583 -3.3958,-7.20833 -8.7083,-7.20833 -5.4167,0 -8.7917,2.91667 -9.0417,6.875 h 4.25 c 0.3959,-1.95833 2.0209,-3.20833 4.625,-3.20833 2.75,0 4.3959,1.45833 4.3959,3.89583 v 1.6875 l -6,0.35417 c -5.2084,0.29167 -8.1459,2.64584 -8.1459,6.47917 0,3.9375 3,6.60417 7.2917,6.60417 z m 23.9167,0 c 3.1875,0 5.6875,-1.60416 6.9791,-4.10417 h 0.083 v 3.72917 h 4.375 v -30.06252 h -4.5209 v 11.79168 h -0.083 c -1.2292,-2.41667 -3.7292,-4.00001 -6.875,-4.00001 -5.5,0 -9.1667,4.39584 -9.1667,11.31251 0,6.91667 3.6667,11.33334 9.2084,11.33334 z m 1.1875,-18.85418 c 3.4583,0 5.7708,2.97917 5.7708,7.52084 0,4.58334 -2.3125,7.52084 -5.7708,7.52084 -3.5625,0 -5.7917,-2.89584 -5.7917,-7.52084 0,-4.60417 2.2292,-7.52084 5.7917,-7.52084 z"
       id="text205"
       style="font-weight:500;font-size:42.6667px;font-family:'SF Pro Display';-inkscape-font-specification:'SF Pro Display Medium';fill:#222623;stroke-width:2.046;stroke-linejoin:round"
       aria-label="Read" /><path
       d="m 1186.7298,690.49623 h -14.4167 v -9.33334 h 13.6459 v -3.875 h -13.6459 v -8.79167 h 14.4167 v -4.02084 h -19.0834 v 30.06252 h 19.0834 z m 12.4583,-4.02083 4.8334,8.0625 h 4.9583 l -7.1042,-11.08334 7.1875,-10.83334 h -4.9583 l -4.7292,7.93751 h -0.083 l -4.7917,-7.93751 h -5.0416 l 7.125,10.97917 -7.2292,10.93751 h 4.875 l 4.8542,-8.0625 z m 21.3751,-10.62501 c 3.1458,0 5.2708,2.35417 5.375,5.70834 h -10.9584 c 0.2292,-3.31251 2.4375,-5.70834 5.5834,-5.70834 z m 5.3541,12.25001 c -0.6041,1.91667 -2.5,3.20833 -5.0625,3.20833 -3.6042,0 -5.8958,-2.52083 -5.8958,-6.33333 v -0.27084 h 15.4792 v -1.54167 c 0,-6.64583 -3.7917,-10.9375 -9.875,-10.9375 -6.1876,0 -10.1459,4.58333 -10.1459,11.45834 0,6.91667 3.8958,11.27084 10.3334,11.27084 5.0208,0 8.8125,-2.85417 9.4375,-6.85417 z m 8,6.4375 h 4.5 v -13.12501 c 0,-3.10417 1.7917,-5.04167 4.6875,-5.04167 0.875,0 1.6667,0.10417 2.0209,0.25 v -4.1875 c -0.3334,-0.0625 -0.8959,-0.16667 -1.5417,-0.16667 -2.5833,0 -4.5417,1.52084 -5.2708,4.08334 h -0.1042 v -3.72917 h -4.2917 z m 31.8751,-14.37501 c -0.3959,-4.3125 -3.8334,-7.9375 -9.4792,-7.9375 -6.2292,0 -10.3125,4.39583 -10.3125,11.35417 0,7.08334 4.0833,11.37501 10.3541,11.37501 5.2709,0 9.0001,-3.16667 9.4792,-7.83334 h -4.3333 c -0.5208,2.54167 -2.3334,4.0625 -5.1042,4.0625 -3.5,0 -5.8125,-2.79167 -5.8125,-7.60417 0,-4.70834 2.2917,-7.60417 5.7708,-7.60417 2.9375,0 4.6876,1.85417 5.1459,4.1875 z m 3.375,14.37501 h 4.5 v -21.91668 h -4.5 z m 2.25,-25.12502 c 1.4583,0 2.625,-1.14583 2.625,-2.5625 0,-1.4375 -1.1667,-2.58333 -2.625,-2.58333 -1.4375,0 -2.6042,1.14583 -2.6042,2.58333 0,1.41667 1.1667,2.5625 2.6042,2.5625 z m 6.4583,9.41668 c 0,3.0625 2,5.125 5.9583,6.08334 l 3.9167,0.95833 c 2.2917,0.58333 3.125,1.35417 3.125,2.75 0,1.77084 -1.6667,2.89584 -4.375,2.89584 -2.75,0 -4.375,-1.16667 -4.7292,-3.27084 h -4.4583 c 0.3542,4.02084 3.7917,6.70834 8.9792,6.70834 5.375,0 9.1041,-2.75 9.1041,-6.75001 0,-3.22916 -1.6666,-4.89583 -6.0833,-5.95833 l -3.6875,-0.85417 c -2.2708,-0.5625 -3.3542,-1.47917 -3.3542,-2.83334 0,-1.72916 1.625,-2.91666 4.0625,-2.91666 2.5209,0 4.125,1.22916 4.3334,3.20833 h 4.2291 c -0.1458,-3.89584 -3.5625,-6.625 -8.4375,-6.625 -5.125,0 -8.5833,2.6875 -8.5833,6.60417 z m 30.1875,-2.97917 c 3.1459,0 5.2709,2.35417 5.375,5.70834 h -10.9583 c 0.2291,-3.31251 2.4375,-5.70834 5.5833,-5.70834 z m 5.3542,12.25001 c -0.6042,1.91667 -2.5,3.20833 -5.0625,3.20833 -3.6042,0 -5.8959,-2.52083 -5.8959,-6.33333 v -0.27084 h 15.4792 v -1.54167 c 0,-6.64583 -3.7916,-10.9375 -9.875,-10.9375 -6.1875,0 -10.1458,4.58333 -10.1458,11.45834 0,6.91667 3.8958,11.27084 10.3333,11.27084 5.0209,0 8.8125,-2.85417 9.4375,-6.85417 z"
       id="text206"
       style="font-weight:500;font-size:42.6667px;font-family:'SF Pro Display';-inkscape-font-specification:'SF Pro Display Medium';fill:#222623;stroke-width:2.046;stroke-linejoin:round"
       aria-label="Exercise" /><path
       d="m 1196.2348,827.5379 v -30.06252 h -5.4167 l -9.7083,23.72918 h -0.1667 l -9.7292,-23.72918 h -5.3958 v 30.06252 h 4.25 v -22.12501 h 0.1458 l 9.0834,21.89585 h 3.4583 l 9.0625,-21.89585 h 0.1458 v 22.12501 z m 14.1666,-18.68751 c 3.1459,0 5.2709,2.35417 5.375,5.70834 h -10.9583 c 0.2292,-3.31251 2.4375,-5.70834 5.5833,-5.70834 z m 5.3542,12.25001 c -0.6042,1.91667 -2.5,3.20833 -5.0625,3.20833 -3.6042,0 -5.8958,-2.52083 -5.8958,-6.33333 v -0.27084 h 15.4791 v -1.54167 c 0,-6.64583 -3.7916,-10.9375 -9.875,-10.9375 -6.1875,0 -10.1458,4.58333 -10.1458,11.45834 0,6.91667 3.8958,11.27084 10.3333,11.27084 5.0209,0 8.8125,-2.85417 9.4375,-6.85417 z m 16.2292,6.8125 c 3.1875,0 5.6875,-1.60416 6.9792,-4.10417 h 0.083 v 3.72917 h 4.375 v -30.06252 h -4.5208 v 11.79168 h -0.083 c -1.2291,-2.41667 -3.7291,-4.00001 -6.875,-4.00001 -5.5,0 -9.1666,4.39584 -9.1666,11.31251 0,6.91667 3.6666,11.33334 9.2083,11.33334 z m 1.1875,-18.85418 c 3.4583,0 5.7708,2.97917 5.7708,7.52084 0,4.58334 -2.3125,7.52084 -5.7708,7.52084 -3.5625,0 -5.7917,-2.89584 -5.7917,-7.52084 0,-4.60417 2.2292,-7.52084 5.7917,-7.52084 z m 15,18.47918 h 4.5 v -21.91668 h -4.5 z m 2.25,-25.12502 c 1.4583,0 2.625,-1.14583 2.625,-2.5625 0,-1.4375 -1.1667,-2.58333 -2.625,-2.58333 -1.4375,0 -2.6042,1.14583 -2.6042,2.58333 0,1.41667 1.1667,2.5625 2.6042,2.5625 z m 8.1667,-1.97916 v 5.1875 h -3.1875 v 3.5625 h 3.1875 v 12.58335 c 0,4.22917 1.7291,5.91667 6.1667,5.91667 1,0 2,-0.0833 2.5,-0.20834 v -3.5625 c -0.2917,0.0625 -1.0209,0.10417 -1.4792,0.10417 -1.8334,0 -2.6667,-0.85417 -2.6667,-2.75001 v -12.08334 h 4.1667 v -3.5625 h -4.1667 v -5.1875 z m 19.7083,23.91668 c -2.4166,0 -4,-1.25 -4,-3.16667 0,-1.875 1.5209,-3.0625 4.2084,-3.25 l 5.3958,-0.33333 v 1.72916 c 0,2.85417 -2.4583,5.02084 -5.6042,5.02084 z m -1.25,3.5625 c 2.875,0 5.6459,-1.54166 6.9167,-3.97917 h 0.1042 v 3.60417 h 4.3125 v -15.10418 c 0,-4.39583 -3.3959,-7.20833 -8.7084,-7.20833 -5.4166,0 -8.7916,2.91667 -9.0417,6.875 h 4.2501 c 0.3958,-1.95833 2.0208,-3.20833 4.625,-3.20833 2.75,0 4.3958,1.45833 4.3958,3.89583 v 1.6875 l -6,0.35417 c -5.2083,0.29167 -8.1459,2.64584 -8.1459,6.47917 0,3.9375 3.0001,6.60417 7.2917,6.60417 z m 17,-27.47918 v 5.1875 h -3.1875 v 3.5625 h 3.1875 v 12.58335 c 0,4.22917 1.7292,5.91667 6.1667,5.91667 1,0 2,-0.0833 2.5,-0.20834 v -3.5625 c -0.2917,0.0625 -1.0208,0.10417 -1.4792,0.10417 -1.8333,0 -2.6666,-0.85417 -2.6666,-2.75001 v -12.08334 h 4.1666 v -3.5625 h -4.1666 v -5.1875 z m 21.0209,8.41667 c 3.1458,0 5.2708,2.35417 5.375,5.70834 h -10.9583 c 0.2291,-3.31251 2.4375,-5.70834 5.5833,-5.70834 z m 5.3542,12.25001 c -0.6042,1.91667 -2.5,3.20833 -5.0625,3.20833 -3.6042,0 -5.8959,-2.52083 -5.8959,-6.33333 v -0.27084 h 15.4792 v -1.54167 c 0,-6.64583 -3.7917,-10.9375 -9.875,-10.9375 -6.1875,0 -10.1459,4.58333 -10.1459,11.45834 0,6.91667 3.8959,11.27084 10.3334,11.27084 5.0208,0 8.8125,-2.85417 9.4375,-6.85417 z"
       id="text207"
       style="font-weight:500;font-size:42.6667px;font-family:'SF Pro Display';-inkscape-font-specification:'SF Pro Display Medium';fill:#222623;stroke-width:2.046;stroke-linejoin:round"
       aria-label="Meditate" /><circle
       style="fill:#80ce82;fill-opacity:1;stroke:none;stroke-width:2.046;stroke-linejoin:round;stroke-dasharray:none;stroke-opacity:1"
       id="path207"
       cx="1471.375"
       cy="550.375"
       r="23.875" /><circle
       style="fill:#80ce82;fill-opacity:1;stroke:none;stroke-width:2.046;stroke-linejoin:round;stroke-dasharray:none;stroke-opacity:1"
       id="circle207"
       cx="1471.375"
       cy="682.375"
       r="23.875" /><circle
       style="display:inline;mix-blend-mode:darken;fill:none;fill-opacity:1;stroke:#cdcdcd;stroke-width:1.92274;stroke-linejoin:round;stroke-dasharray:none;stroke-opacity:1"
       id="circle208"
       cx="1470.625"
       cy="813.375"
       r="22.436632" /><path
       style="fill:none;fill-opacity:1;stroke:#ffffff;stroke-width:3.346;stroke-linejoin:miter;stroke-dasharray:none;stroke-opacity:1"
       d="m 1459.0265,680.59028 8.8388,8.92722 14.7608,-14.84924"
       id="path208" /><path
       style="fill:none;fill-opacity:1;stroke:#ffffff;stroke-width:3.346;stroke-linejoin:miter;stroke-dasharray:none;stroke-opacity:1"
       d="m 1459.0265,548.19047 8.8388,8.92722 14.7608,-14.84924"
       id="path209" /><rect
       style="display:inline;fill:#def7ed;fill-opacity:1;stroke:none;stroke-width:3.43296;stroke-linejoin:miter;stroke-dasharray:none;stroke-opacity:1"
       id="rect209"
       width="332.34018"
       height="17.49201"
       x="1161.7765"
       y="598.04443"
       rx="8.3085051"
       ry="8.7460051" /><rect
       style="display:inline;fill:#80cb83;fill-opacity:1;stroke:none;stroke-width:3.03356;stroke-linejoin:miter;stroke-dasharray:none;stroke-opacity:1"
       id="rect210"
       width="259.50818"
       height="17.49201"
       x="1161.7765"
       y="598.04443"
       rx="6.4877048"
       ry="8.7460051" /><rect
       style="display:inline;fill:#fdf3be;fill-opacity:1;stroke:none;stroke-width:3.43296;stroke-linejoin:miter;stroke-dasharray:none;stroke-opacity:1"
       id="rect211"
       width="332.34018"
       height="17.49201"
       x="1161.7765"
       y="726.64398"
       rx="8.3085051"
       ry="8.7460051" /><rect
       style="display:inline;fill:#fcd85d;fill-opacity:1;stroke:none;stroke-width:3.18281;stroke-linejoin:miter;stroke-dasharray:none;stroke-opacity:1"
       id="rect212"
       width="285.67114"
       height="17.49201"
       x="1161.7765"
       y="726.64398"
       rx="7.1417789"
       ry="8.7460051" /><rect
       style="display:inline;fill:#f6d5d4;fill-opacity:1;stroke:none;stroke-width:3.43296;stroke-linejoin:miter;stroke-dasharray:none;stroke-opacity:1"
       id="rect213"
       width="332.34018"
       height="17.49201"
       x="1161.7765"
       y="858.44397"
       rx="8.3085051"
       ry="8.7460051" /><rect
       style="display:inline;fill:#ef7764;fill-opacity:1;stroke:none;stroke-width:3.18653;stroke-linejoin:miter;stroke-dasharray:none;stroke-opacity:1"
       id="rect214"
       width="286.34018"
       height="17.49201"
       x="1161.7765"
       y="858.44397"
       rx="7.158505"
       ry="8.7460051" /><path
       d="m 774.68748,499.8476 c 0.16889,3.14856 2.7746,5.13904 6.63491,5.13904 4.12571,0 6.71936,-2.03873 6.71936,-5.29587 0,-2.54539 -1.48381,-3.98095 -5.0546,-4.82539 l -1.91809,-0.47048 c -2.24381,-0.55492 -3.16063,-1.27872 -3.16063,-2.5092 0,-1.54412 1.43555,-2.60571 3.5346,-2.60571 2.09904,0 3.5346,1.04952 3.69142,2.78666 h 2.62984 c -0.0844,-3.0038 -2.60571,-5.06666 -6.28507,-5.06666 -3.71555,0 -6.33333,2.06286 -6.33333,5.06666 0,2.42476 1.48381,3.92063 4.68063,4.6927 l 2.25587,0.54285 c 2.25587,0.55492 3.20889,1.36317 3.20889,2.71428 0,1.55619 -1.58032,2.69016 -3.77587,2.69016 -2.29206,0 -3.96888,-1.13397 -4.1619,-2.85904 z"
       id="text215"
       style="font-weight:500;font-size:24.706px;font-family:'SF Pro Display';-inkscape-font-specification:'SF Pro Display Medium';fill:#373735;stroke-width:1.93748"
       aria-label="S" /><path
       d="m 837.07222,504.94711 v -17.40759 h -3.1365 l -5.62158,13.7403 h -0.0965 l -5.63364,-13.7403 h -3.12445 v 17.40759 h 2.46095 V 492.1357 h 0.0845 l 5.25967,12.67871 h 2.00254 l 5.24761,-12.67871 h 0.0844 v 12.81141 z"
       id="text216"
       style="font-weight:500;font-size:24.706px;font-family:'SF Pro Display';-inkscape-font-specification:'SF Pro Display Medium';fill:#373735;stroke-width:1.93748"
       aria-label="M" /><path
       d="m 871.73049,504.94711 v -15.07934 h 5.31999 v -2.32825 h -13.35427 v 2.32825 h 5.33206 v 15.07934 z"
       id="text217"
       style="font-weight:500;font-size:24.706px;font-family:'SF Pro Display';-inkscape-font-specification:'SF Pro Display Medium';fill:#373735;stroke-width:1.93748"
       aria-label="T" /><path
       d="m 912.88779,491.82205 h 0.12063 l 3.76381,13.12506 h 2.54539 l 4.70475,-17.40759 h -2.81079 l -3.22094,13.63172 h -0.0965 l -3.69143,-13.63172 h -2.5092 l -3.67936,13.63172 h -0.0965 l -3.22094,-13.63172 h -2.81079 l 4.69269,17.40759 h 2.55745 z"
       id="text218"
       style="font-weight:500;font-size:24.706px;font-family:'SF Pro Display';-inkscape-font-specification:'SF Pro Display Medium';fill:#373735;stroke-width:1.93748"
       aria-label="W" /><path
       d="m 955.98049,504.94711 v -15.07934 h 5.31999 v -2.32825 h -13.35427 v 2.32825 h 5.33206 v 15.07934 z"
       id="text219"
       style="font-weight:500;font-size:24.706px;font-family:'SF Pro Display';-inkscape-font-specification:'SF Pro Display Medium';fill:#373735;stroke-width:1.93748"
       aria-label="T" /><path
       d="m 1027.9375,499.8476 c 0.1689,3.14856 2.7746,5.13904 6.6349,5.13904 4.1257,0 6.7194,-2.03873 6.7194,-5.29587 0,-2.54539 -1.4839,-3.98095 -5.0546,-4.82539 l -1.9181,-0.47048 c -2.2438,-0.55492 -3.1607,-1.27872 -3.1607,-2.5092 0,-1.54412 1.4356,-2.60571 3.5346,-2.60571 2.0991,0 3.5346,1.04952 3.6915,2.78666 h 2.6298 c -0.085,-3.0038 -2.6057,-5.06666 -6.2851,-5.06666 -3.7155,0 -6.3333,2.06286 -6.3333,5.06666 0,2.42476 1.4838,3.92063 4.6806,4.6927 l 2.2559,0.54285 c 2.2559,0.55492 3.2089,1.36317 3.2089,2.71428 0,1.55619 -1.5803,2.69016 -3.7759,2.69016 -2.2921,0 -3.9689,-1.13397 -4.1619,-2.85904 z"
       id="text220"
       style="font-weight:500;font-size:24.706px;font-family:'SF Pro Display';-inkscape-font-specification:'SF Pro Display Medium';fill:#373735;stroke-width:1.93748"
       aria-label="S" /><path
       d="m 991.16176,504.69711 v -7.28634 h 7.47936 v -2.27999 h -7.47936 v -5.51301 h 8.16698 v -2.32825 h -10.8692 v 17.40759 z"
       id="text221"
       style="font-weight:500;font-size:24.706px;font-family:'SF Pro Display';-inkscape-font-specification:'SF Pro Display Medium';fill:#373735;stroke-width:1.93748"
       aria-label="F" /><path
       d="m 955.1118,560.23187 h 2.64189 v -17.40752 h -2.66602 l -4.5841,3.25712 v 2.65396 l 4.54791,-3.233 h 0.0603 z"
       id="text222"
       style="font-weight:500;font-size:24.7059px;font-family:'SF Pro Display';-inkscape-font-specification:'SF Pro Display Medium';fill:#373735;stroke-width:1.93748"
       aria-label="1" /><path
       d="m 987.43876,547.55218 v 0.0241 h 2.55745 v -0.0362 c 0,-1.80951 1.43555,-3.18474 3.34157,-3.18474 1.80952,0 3.20887,1.23047 3.20887,2.77459 0,1.36316 -0.55492,2.27998 -2.67808,4.48759 l -6.28504,6.40568 v 1.83364 h 11.9066 v -2.27999 h -8.26345 v -0.0603 l 4.3549,-4.37903 c 2.54538,-2.6057 3.63109,-4.11363 3.63109,-6.14028 0,-2.76253 -2.473,-4.87363 -5.79045,-4.87363 -3.4622,0 -5.98346,2.29205 -5.98346,5.42855 z"
       id="text223"
       style="font-weight:500;font-size:24.7059px;font-family:'SF Pro Display';-inkscape-font-specification:'SF Pro Display Medium';fill:#373735;stroke-width:1.93748"
       aria-label="2" /><path
       d="m 1031.9963,551.85445 h 2.1714 c 2.2921,0 3.7156,1.15809 3.7156,3.03999 0,1.70094 -1.52,2.90728 -3.6432,2.90728 -2.1955,0 -3.5708,-1.14602 -3.7396,-2.81077 h -2.5937 c 0.1689,3.00379 2.5816,5.06664 6.3333,5.06664 3.6311,0 6.3936,-2.08698 6.3936,-5.12696 0,-2.43681 -1.6888,-4.04125 -4.3066,-4.2222 v -0.0483 c 2.1593,-0.38602 3.5828,-1.94221 3.5828,-4.11362 0,-2.67809 -2.4006,-4.54792 -5.6939,-4.54792 -3.4501,0 -5.7543,1.96634 -5.9593,5.01839 h 2.5453 c 0.1569,-1.71301 1.4115,-2.79872 3.2934,-2.79872 2.0628,0 3.1726,1.07365 3.1726,2.69015 0,1.64062 -1.2907,2.82284 -3.1726,2.82284 h -2.0991 z"
       id="text224"
       style="font-weight:500;font-size:24.7059px;font-family:'SF Pro Display';-inkscape-font-specification:'SF Pro Display Medium';fill:#373735;stroke-width:1.93748"
       aria-label="3" /><path
       d="m 783.67087,601.32623 h 2.59363 v -3.43807 h 2.38856 v -2.26793 h -2.38856 v -11.70152 h -3.90855 c -3.92061,5.66981 -5.89901,8.79424 -7.39488,11.60501 v 2.36444 h 8.7098 z m -6.18854,-5.73013 c 1.38729,-2.52125 3.14855,-5.23552 6.16441,-9.59042 h 0.0482 v 9.65074 h -6.21266 z"
       id="text225"
       style="font-weight:500;font-size:24.7059px;font-family:'SF Pro Display';-inkscape-font-specification:'SF Pro Display Medium';fill:#373735;stroke-width:1.93748"
       aria-label="4" /><path
       d="m 827.0619,601.65195 c 3.75172,0 6.38155,-2.47301 6.38155,-6.04378 0,-3.37776 -2.40062,-5.82664 -5.74219,-5.82664 -1.70095,0 -3.12443,0.66349 -3.88443,1.76126 h -0.0603 l 0.48253,-5.3441 h 8.19107 v -2.27998 h -10.36248 l -0.91682,9.84375 h 2.473 c 0.67555,-1.14602 1.9784,-1.83364 3.48633,-1.83364 2.17142,0 3.69141,1.56825 3.69141,3.75173 0,2.18348 -1.51999,3.71553 -3.71554,3.71553 -1.94221,0 -3.42601,-1.18221 -3.61903,-2.90728 h -2.58157 c 0.15682,3.03998 2.70221,5.16315 6.17648,5.16315 z"
       id="text226"
       style="font-weight:500;font-size:24.7059px;font-family:'SF Pro Display';-inkscape-font-specification:'SF Pro Display Medium';fill:#373735;stroke-width:1.93748"
       aria-label="5" /><path
       d="m 871.29492,601.5478 c 3.69141,0 6.35742,-2.53332 6.35742,-6.01965 0,-3.30538 -2.46094,-5.75426 -5.77838,-5.75426 -2.17142,0 -4.01712,1.13396 -4.77712,2.82284 h -0.0483 c 0.0121,-4.37902 1.60444,-6.86409 4.34283,-6.86409 1.59238,0 2.89523,0.92889 3.31745,2.35237 h 2.7022 c -0.53079,-2.77459 -2.91934,-4.62029 -5.99552,-4.62029 -4.3549,0 -6.9606,3.45014 -6.9606,9.27678 0,2.03871 0.36191,3.75172 1.07365,5.13902 1.13396,2.35236 3.19681,3.66728 5.76632,3.66728 z m -0.0241,-2.27999 c -2.07491,0 -3.67935,-1.64063 -3.67935,-3.70347 0,-2.06285 1.58031,-3.58284 3.70348,-3.58284 2.13522,0 3.66728,1.51999 3.66728,3.63109 0,2.03872 -1.64063,3.65522 -3.69141,3.65522 z"
       id="text227"
       style="font-weight:500;font-size:24.7059px;font-family:'SF Pro Display';-inkscape-font-specification:'SF Pro Display Medium';fill:#373735;stroke-width:1.93748"
       aria-label="6" /><path
       d="m 907.53749,601.21002 h 2.83491 l 7.56377,-15.06722 v -2.3403 h -11.84629 v 2.27998 h 9.18027 v 0.0603 z"
       id="text228"
       style="font-weight:500;font-size:24.7059px;font-family:'SF Pro Display';-inkscape-font-specification:'SF Pro Display Medium';fill:#373735;stroke-width:1.93748"
       aria-label="7" /><path
       d="m 954.45304,601.30337 c 3.8603,0 6.58664,-2.07491 6.58664,-5.03045 0,-2.2076 -1.55619,-3.99299 -3.87236,-4.47553 v -0.0603 c 1.93014,-0.55492 3.16061,-2.05079 3.16061,-3.89649 0,-2.66602 -2.44887,-4.59617 -5.87489,-4.59617 -3.41395,0 -5.88695,1.94221 -5.88695,4.5841 0,1.86984 1.24253,3.37776 3.17268,3.90856 v 0.0603 c -2.30411,0.48254 -3.87236,2.25586 -3.87236,4.47553 0,2.94348 2.70221,5.03045 6.58663,5.03045 z m 0,-2.17141 c -2.21967,0 -3.79998,-1.27873 -3.79998,-3.05205 0,-1.78539 1.58031,-3.07617 3.79998,-3.07617 2.21968,0 3.78792,1.27872 3.78792,3.07617 0,1.77332 -1.56824,3.05205 -3.78792,3.05205 z m 0,-8.29964 c -1.89395,0 -3.20887,-1.13396 -3.20887,-2.71427 0,-1.59238 1.31492,-2.72634 3.20887,-2.72634 1.8819,0 3.20888,1.13396 3.20888,2.72634 0,1.58031 -1.33904,2.71427 -3.20888,2.71427 z"
       id="text229"
       style="font-weight:500;font-size:24.7059px;font-family:'SF Pro Display';-inkscape-font-specification:'SF Pro Display Medium';fill:#373735;stroke-width:1.93748"
       aria-label="8" /><path
       d="m 992.34898,601.07101 c 4.36696,0 6.94854,-3.45014 6.94854,-9.27677 0,-2.03872 -0.36191,-3.75173 -1.07365,-5.13902 C 997.10197,584.31491 995.02706,583 992.44549,583 c -3.67935,0 -6.35743,2.53332 -6.35743,6.01965 0,3.30538 2.47301,5.75425 5.77839,5.75425 2.24379,0 4.07743,-1.13396 4.77711,-2.84697 0,0 0.0121,0 0.0121,0 0,0 0.0121,0 0.0121,0 0.0121,0 0.0241,0 0.0241,0 0,4.39109 -1.59238,6.90029 -4.30665,6.90029 -1.60443,0 -2.93141,-0.95302 -3.34157,-2.3765 h -2.71427 c 0.51873,2.76252 2.91935,4.62029 6.01965,4.62029 z m 0.0965,-8.50471 c -2.1111,0 -3.66728,-1.54412 -3.66728,-3.6311 0,-2.02665 1.62856,-3.63109 3.70347,-3.63109 2.07491,0 3.69141,1.6165 3.69141,3.67935 0,2.05078 -1.59237,3.58284 -3.7276,3.58284 z"
       id="text230"
       style="font-weight:500;font-size:24.7059px;font-family:'SF Pro Display';-inkscape-font-specification:'SF Pro Display Medium';fill:#373735;stroke-width:1.93748"
       aria-label="9" /><path
       d="m 1027.0481,601.32629 h 2.6419 v -17.40752 h -2.666 l -4.5841,3.25712 v 2.65396 l 4.5479,-3.233 h 0.06 z m 13.2216,0.32572 c 4.1739,0 6.6228,-3.51046 6.6228,-9.05964 0,-5.51298 -2.461,-8.99931 -6.6228,-8.99931 -4.1499,0 -6.647,3.49839 -6.647,9.01138 0,5.54917 2.473,9.04757 6.647,9.04757 z m 0,-2.26793 c -2.4851,0 -3.9086,-2.58157 -3.9086,-6.77964 0,-4.13776 1.4476,-6.74346 3.9086,-6.74346 2.4609,0 3.8964,2.59364 3.8964,6.74346 0,4.21013 -1.4114,6.77964 -3.8964,6.77964 z"
       id="text231"
       style="font-weight:500;font-size:24.7059px;font-family:'SF Pro Display';-inkscape-font-specification:'SF Pro Display Medium';fill:#373735;stroke-width:1.93748"
       aria-label="10" /><path
       d="m 776.87388,642.86145 h 2.64189 v -17.40753 h -2.66601 l -4.58411,3.25713 v 2.65395 l 4.54792,-3.233 h 0.0603 z m 11.27931,0 h 2.64189 v -17.40753 h -2.66602 l -4.5841,3.25713 v 2.65395 l 4.54791,-3.233 h 0.0603 z"
       id="text232"
       style="font-weight:500;font-size:24.7059px;font-family:'SF Pro Display';-inkscape-font-specification:'SF Pro Display Medium';fill:#373735;stroke-width:1.93748"
       aria-label="11" /><path
       d="m 820.21226,642.97766 h 2.64189 v -17.40753 h -2.66601 l -4.58411,3.25713 v 2.65395 l 4.54792,-3.23299 h 0.0603 z m 6.7314,-12.3047 v 0.0241 h 2.55744 v -0.0362 c 0,-1.80951 1.43555,-3.18474 3.34157,-3.18474 1.80952,0 3.20887,1.23047 3.20887,2.77458 0,1.36317 -0.55491,2.27999 -2.67808,4.4876 l -6.28504,6.40568 v 1.83364 h 11.9066 v -2.27999 h -8.26345 v -0.0603 l 4.3549,-4.37903 c 2.54538,-2.6057 3.63109,-4.11363 3.63109,-6.14028 0,-2.76253 -2.473,-4.87363 -5.79044,-4.87363 -3.46221,0 -5.98346,2.29205 -5.98346,5.42854 z"
       id="text233"
       style="font-weight:500;font-size:24.7059px;font-family:'SF Pro Display';-inkscape-font-specification:'SF Pro Display Medium';fill:#373735;stroke-width:1.93748"
       aria-label="12" /><path
       d="m 863.20213,643.21002 h 2.64189 V 625.8025 H 863.178 l -4.5841,3.25712 v 2.65396 l 4.54791,-3.233 h 0.0603 z m 10.66407,-7.87742 h 2.17142 c 2.29205,0 3.71553,1.15809 3.71553,3.03999 0,1.70094 -1.51999,2.90728 -3.64315,2.90728 -2.19554,0 -3.57078,-1.14602 -3.73966,-2.81078 h -2.59364 c 0.16889,3.0038 2.58157,5.06664 6.3333,5.06664 3.63109,0 6.39362,-2.08697 6.39362,-5.12695 0,-2.43681 -1.68888,-4.04125 -4.30665,-4.2222 v -0.0483 c 2.15936,-0.38603 3.58284,-1.94221 3.58284,-4.11362 0,-2.67809 -2.40062,-4.54792 -5.69394,-4.54792 -3.45014,0 -5.75425,1.96634 -5.95933,5.01839 h 2.54538 c 0.15683,-1.71301 1.41142,-2.79872 3.29332,-2.79872 2.06284,0 3.17268,1.07365 3.17268,2.69015 0,1.64062 -1.29079,2.82284 -3.17268,2.82284 h -2.09904 z"
       id="text234"
       style="font-weight:500;font-size:24.7059px;font-family:'SF Pro Display';-inkscape-font-specification:'SF Pro Display Medium';fill:#373735;stroke-width:1.93748"
       aria-label="13" /><path
       d="m 904.6815,643.44238 h 2.64189 v -17.40752 h -2.66602 l -4.5841,3.25712 v 2.65396 l 4.54791,-3.233 h 0.0603 z m 15.15167,0 h 2.59363 v -3.43807 h 2.38856 v -2.26793 h -2.38856 v -11.70152 h -3.90855 c -3.92061,5.66981 -5.89901,8.79424 -7.39488,11.60501 v 2.36444 h 8.7098 z m -6.18854,-5.73013 c 1.38729,-2.52125 3.14855,-5.23552 6.16441,-9.59042 h 0.0483 v 9.65074 h -6.21266 z"
       id="text235"
       style="font-weight:500;font-size:24.7059px;font-family:'SF Pro Display';-inkscape-font-specification:'SF Pro Display Medium';fill:#373735;stroke-width:1.93748"
       aria-label="14" /><path
       d="m 947.20659,643.32623 h 2.64189 v -17.40752 h -2.66602 l -4.5841,3.25712 v 2.65396 l 4.54791,-3.233 h 0.0603 z m 13.11294,0.32572 c 3.75173,0 6.38156,-2.47301 6.38156,-6.04378 0,-3.37776 -2.40063,-5.82664 -5.7422,-5.82664 -1.70094,0 -3.12442,0.66349 -3.88442,1.76126 h -0.0603 l 0.48254,-5.3441 h 8.19107 v -2.27998 h -10.36249 l -0.91682,9.84375 h 2.47301 c 0.67555,-1.14602 1.9784,-1.83364 3.48633,-1.83364 2.17141,0 3.69141,1.56825 3.69141,3.75173 0,2.18348 -1.52,3.71553 -3.71554,3.71553 -1.94221,0 -3.42601,-1.18221 -3.61903,-2.90728 h -2.58157 c 0.15682,3.03998 2.70221,5.16315 6.17647,5.16315 z"
       id="text236"
       style="font-weight:500;font-size:24.7059px;font-family:'SF Pro Display';-inkscape-font-specification:'SF Pro Display Medium';fill:#373735;stroke-width:1.93748"
       aria-label="15" /><path
       d="m 987.05931,642.7453 h 2.64189 v -17.40753 h -2.66602 l -4.5841,3.25713 v 2.65395 l 4.54791,-3.233 h 0.0603 z m 13.42659,0.33778 c 3.6914,0 6.3574,-2.53332 6.3574,-6.01965 0,-3.30538 -2.4609,-5.75426 -5.7784,-5.75426 -2.17137,0 -4.01707,1.13396 -4.77707,2.82284 h -0.0482 c 0.0121,-4.37902 1.60443,-6.86409 4.34277,-6.86409 1.5924,0 2.8953,0.92889 3.3175,2.35237 h 2.7022 C 1006.0713,626.8457 1003.6827,625 1000.6065,625 c -4.35486,0 -6.96056,3.45014 -6.96056,9.27677 0,2.03872 0.3619,3.75173 1.07365,5.13902 1.13396,2.35237 3.1968,3.66729 5.76631,3.66729 z m -0.024,-2.27999 c -2.07493,0 -3.67937,-1.64063 -3.67937,-3.70347 0,-2.06285 1.58031,-3.58284 3.70347,-3.58284 2.1352,0 3.6673,1.51999 3.6673,3.63109 0,2.03872 -1.6406,3.65522 -3.6914,3.65522 z"
       id="text237"
       style="font-weight:500;font-size:24.7059px;font-family:'SF Pro Display';-inkscape-font-specification:'SF Pro Display Medium';fill:#373735;stroke-width:1.93748"
       aria-label="16" /><path
       d="m 1029.0036,643.09393 h 2.6419 v -17.40752 h -2.666 l -4.5841,3.25712 v 2.65396 l 4.5479,-3.233 h 0.06 z m 7.8412,0 h 2.8349 l 7.5638,-15.06722 v -2.3403 h -11.8463 v 2.27998 h 9.1803 v 0.0603 z"
       id="text238"
       style="font-weight:500;font-size:24.7059px;font-family:'SF Pro Display';-inkscape-font-specification:'SF Pro Display Medium';fill:#373735;stroke-width:1.93748"
       aria-label="17" /><path
       d="m 776.87388,686.86145 h 2.64189 v -17.40753 h -2.66601 l -4.58411,3.25713 v 2.65395 l 4.54792,-3.233 h 0.0603 z m 13.1612,0.32571 c 3.8603,0 6.58664,-2.07491 6.58664,-5.03045 0,-2.2076 -1.55619,-3.99299 -3.87236,-4.47553 v -0.0603 c 1.93014,-0.55491 3.16061,-2.05078 3.16061,-3.89648 0,-2.66602 -2.44887,-4.59617 -5.87489,-4.59617 -3.41395,0 -5.88695,1.94221 -5.88695,4.5841 0,1.86984 1.24253,3.37776 3.17268,3.90855 v 0.0603 c -2.30411,0.48254 -3.87236,2.25586 -3.87236,4.47553 0,2.94348 2.70221,5.03045 6.58663,5.03045 z m 0,-2.17141 c -2.21967,0 -3.79998,-1.27873 -3.79998,-3.05205 0,-1.78539 1.58031,-3.07618 3.79998,-3.07618 2.21967,0 3.78792,1.27873 3.78792,3.07618 0,1.77332 -1.56825,3.05205 -3.78792,3.05205 z m 0,-8.29964 c -1.89395,0 -3.20887,-1.13396 -3.20887,-2.71427 0,-1.59238 1.31492,-2.72634 3.20887,-2.72634 1.8819,0 3.20888,1.13396 3.20888,2.72634 0,1.58031 -1.33904,2.71427 -3.20888,2.71427 z"
       id="text245"
       style="font-weight:500;font-size:24.7059px;font-family:'SF Pro Display';-inkscape-font-specification:'SF Pro Display Medium';fill:#373735;stroke-width:1.93748"
       aria-label="18" /><path
       d="m 820.21226,686.97766 h 2.64189 v -17.40753 h -2.66601 l -4.58411,3.25713 v 2.65395 l 4.54792,-3.23299 h 0.0603 z m 12.71486,0.32571 c 4.36696,0 6.94853,-3.45014 6.94853,-9.27677 0,-2.03872 -0.3619,-3.75173 -1.07364,-5.13902 -1.1219,-2.34031 -3.19681,-3.65522 -5.77839,-3.65522 -3.67934,0 -6.35742,2.53332 -6.35742,6.01965 0,3.30538 2.473,5.75425 5.77838,5.75425 2.2438,0 4.07744,-1.13396 4.77712,-2.84696 0,0 0.0121,0 0.0121,0 0,0 0.0121,0 0.0121,0 0.0121,0 0.0241,0 0.0241,0 0,4.39108 -1.59237,6.90028 -4.30664,6.90028 -1.60444,0 -2.93142,-0.95301 -3.34157,-2.3765 h -2.71427 c 0.51872,2.76253 2.91935,4.62029 6.01965,4.62029 z m 0.0965,-8.50471 c -2.1111,0 -3.66728,-1.54412 -3.66728,-3.63109 0,-2.02666 1.62856,-3.6311 3.70347,-3.6311 2.07491,0 3.69141,1.6165 3.69141,3.67935 0,2.05078 -1.59237,3.58284 -3.7276,3.58284 z"
       id="text246"
       style="font-weight:500;font-size:24.7059px;font-family:'SF Pro Display';-inkscape-font-specification:'SF Pro Display Medium';fill:#373735;stroke-width:1.93748"
       aria-label="19" /><path
       d="m 858.65422,674.90533 v 0.0241 h 2.55745 v -0.0362 c 0,-1.80951 1.43554,-3.18474 3.34156,-3.18474 1.80952,0 3.20888,1.23047 3.20888,2.77459 0,1.36316 -0.55492,2.27998 -2.67808,4.48759 l -6.28505,6.40568 v 1.83364 h 11.9066 V 684.93 h -8.26344 v -0.0603 l 4.35489,-4.37903 c 2.54539,-2.6057 3.63109,-4.11363 3.63109,-6.14028 0,-2.76253 -2.473,-4.87363 -5.79044,-4.87363 -3.4622,0 -5.98346,2.29205 -5.98346,5.42855 z m 20.79735,12.6304 c 4.17394,0 6.62282,-3.51045 6.62282,-9.05963 0,-5.51299 -2.46094,-8.99932 -6.62282,-8.99932 -4.14982,0 -6.64695,3.4984 -6.64695,9.01138 0,5.54918 2.473,9.04757 6.64695,9.04757 z m 0,-2.26792 c -2.48507,0 -3.90855,-2.58157 -3.90855,-6.77965 0,-4.13775 1.44761,-6.74345 3.90855,-6.74345 2.46094,0 3.89649,2.59363 3.89649,6.74345 0,4.21014 -1.41143,6.77965 -3.89649,6.77965 z"
       id="text247"
       style="font-weight:500;font-size:24.7059px;font-family:'SF Pro Display';-inkscape-font-specification:'SF Pro Display Medium';fill:#373735;stroke-width:1.93748"
       aria-label="20" /><path
       d="m 900.13359,675.13769 v 0.0241 h 2.55745 v -0.0362 c 0,-1.80951 1.43554,-3.18474 3.34157,-3.18474 1.80951,0 3.20887,1.23047 3.20887,2.77459 0,1.36316 -0.55492,2.27998 -2.67808,4.48759 l -6.28505,6.40568 v 1.83364 h 11.9066 v -2.27999 h -8.26344 v -0.0603 l 4.35489,-4.37903 c 2.54539,-2.6057 3.63109,-4.11363 3.63109,-6.14028 0,-2.76253 -2.473,-4.87363 -5.79044,-4.87363 -3.4622,0 -5.98346,2.29206 -5.98346,5.42855 z m 18.85514,12.30469 h 2.64189 v -17.40752 h -2.66602 l -4.5841,3.25712 v 2.65396 l 4.54791,-3.233 h 0.0603 z"
       id="text248"
       style="font-weight:500;font-size:24.7059px;font-family:'SF Pro Display';-inkscape-font-specification:'SF Pro Display Medium';fill:#373735;stroke-width:1.93748"
       aria-label="21" /><path
       d="m 942.65867,675.02154 v 0.0241 h 2.55745 v -0.0362 c 0,-1.80951 1.43555,-3.18474 3.34157,-3.18474 1.80951,0 3.20887,1.23047 3.20887,2.77459 0,1.36316 -0.55492,2.27998 -2.67808,4.48759 l -6.28504,6.40568 v 1.83364 h 11.9066 v -2.27998 h -8.26345 v -0.0603 l 4.3549,-4.37903 c 2.54538,-2.6057 3.63109,-4.11363 3.63109,-6.14028 0,-2.76253 -2.473,-4.87363 -5.79045,-4.87363 -3.4622,0 -5.98346,2.29206 -5.98346,5.42855 z m 14.30723,0 v 0.0241 h 2.55745 v -0.0362 c 0,-1.80951 1.43554,-3.18474 3.34157,-3.18474 1.80951,0 3.20887,1.23047 3.20887,2.77459 0,1.36316 -0.55492,2.27998 -2.67808,4.48759 l -6.28505,6.40568 v 1.83364 h 11.9066 v -2.27998 h -8.26344 v -0.0603 l 4.35489,-4.37903 c 2.54539,-2.6057 3.6311,-4.11363 3.6311,-6.14028 0,-2.76253 -2.47301,-4.87363 -5.79045,-4.87363 -3.4622,0 -5.98346,2.29206 -5.98346,5.42855 z"
       id="text249"
       style="font-weight:500;font-size:24.7059px;font-family:'SF Pro Display';-inkscape-font-specification:'SF Pro Display Medium';fill:#373735;stroke-width:1.93748"
       aria-label="22" /><path
       d="m 982.5114,674.4406 v 0.0241 h 2.55744 v -0.0362 c 0,-1.80951 1.43555,-3.18474 3.34157,-3.18474 1.80952,0 3.20887,1.23047 3.20887,2.77458 0,1.36317 -0.55491,2.27999 -2.67808,4.4876 l -6.28504,6.40568 v 1.83364 h 11.9066 v -2.27999 h -8.26345 v -0.0603 l 4.3549,-4.37903 c 2.54538,-2.6057 3.63109,-4.11363 3.63109,-6.14028 0,-2.76253 -2.473,-4.87363 -5.79044,-4.87363 -3.46221,0 -5.98346,2.29205 -5.98346,5.42854 z m 18.2399,4.42728 h 2.1714 c 2.2921,0 3.7156,1.15809 3.7156,3.03999 0,1.70094 -1.52,2.90728 -3.6432,2.90728 -2.1955,0 -3.57078,-1.14602 -3.73967,-2.81078 h -2.59363 c 0.16889,3.0038 2.58157,5.06664 6.3333,5.06664 3.6311,0 6.3936,-2.08697 6.3936,-5.12695 0,-2.43682 -1.6889,-4.04125 -4.3066,-4.2222 v -0.0483 c 2.1593,-0.38603 3.5828,-1.94221 3.5828,-4.11363 0,-2.67808 -2.4006,-4.54791 -5.6939,-4.54791 -3.45017,0 -5.75429,1.96634 -5.95936,5.01839 h 2.54538 c 0.15682,-1.71301 1.41138,-2.79872 3.29328,-2.79872 2.0629,0 3.1727,1.07365 3.1727,2.69015 0,1.64062 -1.2908,2.82284 -3.1727,2.82284 h -2.099 z"
       id="text250"
       style="font-weight:500;font-size:24.7059px;font-family:'SF Pro Display';-inkscape-font-specification:'SF Pro Display Medium';fill:#373735;stroke-width:1.93748"
       aria-label="23" /><path
       d="m 1024.4557,674.78924 v 0.0241 h 2.5574 v -0.0362 c 0,-1.80951 1.4356,-3.18474 3.3416,-3.18474 1.8095,0 3.2089,1.23047 3.2089,2.77459 0,1.36316 -0.555,2.27998 -2.6781,4.48759 l -6.2851,6.40568 v 1.83364 h 11.9066 v -2.27998 h -8.2634 v -0.0603 l 4.3549,-4.37903 c 2.5454,-2.6057 3.6311,-4.11363 3.6311,-6.14028 0,-2.76253 -2.473,-4.87363 -5.7905,-4.87363 -3.4622,0 -5.9834,2.29206 -5.9834,5.42855 z m 22.2329,12.30469 h 2.5936 v -3.43807 h 2.3886 v -2.26793 h -2.3886 v -11.70152 h -3.9085 c -3.9207,5.66981 -5.8991,8.79424 -7.3949,11.60501 v 2.36444 h 8.7098 z M 1040.5,681.3638 c 1.3873,-2.52125 3.1486,-5.23552 6.1644,-9.59042 h 0.048 v 9.65074 H 1040.5 Z"
       id="text251"
       style="font-weight:500;font-size:24.7059px;font-family:'SF Pro Display';-inkscape-font-specification:'SF Pro Display Medium';fill:#373735;stroke-width:1.93748"
       aria-label="24" /><path
       d="m 772.32597,718.55675 v 0.0241 h 2.55745 v -0.0362 c 0,-1.80951 1.43555,-3.18474 3.34157,-3.18474 1.80951,0 3.20887,1.23047 3.20887,2.77458 0,1.36317 -0.55492,2.27999 -2.67808,4.4876 l -6.28505,6.40568 v 1.83364 h 11.90661 v -2.27999 h -8.26345 v -0.0603 l 4.3549,-4.37903 c 2.54538,-2.6057 3.63109,-4.11363 3.63109,-6.14028 0,-2.76253 -2.47301,-4.87363 -5.79045,-4.87363 -3.4622,0 -5.98346,2.29205 -5.98346,5.42854 z m 20.68878,12.63041 c 3.75173,0 6.38155,-2.473 6.38155,-6.04377 0,-3.37776 -2.40062,-5.82664 -5.74219,-5.82664 -1.70094,0 -3.12443,0.66349 -3.88442,1.76126 h -0.0603 l 0.48254,-5.3441 h 8.19107 v -2.27999 h -10.36249 l -0.91682,9.84376 h 2.473 c 0.67556,-1.14602 1.97841,-1.83364 3.48633,-1.83364 2.17142,0 3.69141,1.56825 3.69141,3.75173 0,2.18348 -1.51999,3.71553 -3.71553,3.71553 -1.94221,0 -3.42602,-1.18221 -3.61903,-2.90728 h -2.58157 c 0.15682,3.03998 2.7022,5.16314 6.17647,5.16314 z"
       id="text252"
       style="font-weight:500;font-size:24.7059px;font-family:'SF Pro Display';-inkscape-font-specification:'SF Pro Display Medium';fill:#373735;stroke-width:1.93748"
       aria-label="25" /><path
       d="m 815.66435,718.67296 v 0.0241 h 2.55745 v -0.0362 c 0,-1.80951 1.43555,-3.18474 3.34157,-3.18474 1.80951,0 3.20887,1.23047 3.20887,2.77458 0,1.36317 -0.55492,2.27999 -2.67808,4.4876 l -6.28505,6.40568 v 1.83364 h 11.9066 v -2.27999 h -8.26344 v -0.0603 l 4.35489,-4.37903 c 2.54539,-2.6057 3.6311,-4.11363 3.6311,-6.14028 0,-2.76253 -2.47301,-4.87363 -5.79045,-4.87363 -3.4622,0 -5.98346,2.29205 -5.98346,5.42854 z m 21.00243,12.64248 c 3.69141,0 6.35742,-2.53332 6.35742,-6.01965 0,-3.30538 -2.46093,-5.75426 -5.77838,-5.75426 -2.17141,0 -4.01712,1.13396 -4.77711,2.82284 h -0.0483 c 0.0121,-4.37902 1.60444,-6.86409 4.34284,-6.86409 1.59237,0 2.89522,0.92889 3.31744,2.35237 h 2.70221 c -0.53079,-2.77459 -2.91935,-4.62029 -5.99553,-4.62029 -4.35489,0 -6.9606,3.45014 -6.9606,9.27677 0,2.03872 0.36191,3.75173 1.07365,5.13903 1.13396,2.35236 3.19681,3.66728 5.76632,3.66728 z m -0.0241,-2.27999 c -2.07491,0 -3.67934,-1.64063 -3.67934,-3.70347 0,-2.06285 1.5803,-3.58284 3.70347,-3.58284 2.13522,0 3.66728,1.51999 3.66728,3.63109 0,2.03872 -1.64063,3.65522 -3.69141,3.65522 z"
       id="text253"
       style="font-weight:500;font-size:24.7059px;font-family:'SF Pro Display';-inkscape-font-specification:'SF Pro Display Medium';fill:#373735;stroke-width:1.93748"
       aria-label="26" /><path
       d="m 858.65422,718.90533 v 0.0241 h 2.55745 v -0.0362 c 0,-1.80951 1.43554,-3.18474 3.34156,-3.18474 1.80952,0 3.20888,1.23047 3.20888,2.77459 0,1.36316 -0.55492,2.27998 -2.67808,4.48759 l -6.28505,6.40568 v 1.83364 h 11.9066 V 728.93 h -8.26344 v -0.0603 l 4.35489,-4.37903 c 2.54539,-2.6057 3.63109,-4.11363 3.63109,-6.14028 0,-2.76253 -2.473,-4.87363 -5.79044,-4.87363 -3.4622,0 -5.98346,2.29205 -5.98346,5.42855 z m 15.41706,12.30469 h 2.8349 l 7.56377,-15.06722 v -2.3403 h -11.84628 v 2.27998 h 9.18027 v 0.0603 z"
       id="text254"
       style="font-weight:500;font-size:24.7059px;font-family:'SF Pro Display';-inkscape-font-specification:'SF Pro Display Medium';fill:#373735;stroke-width:1.93748"
       aria-label="27" /><path
       d="m 900.13359,719.13769 v 0.0241 h 2.55745 v -0.0362 c 0,-1.80951 1.43554,-3.18474 3.34157,-3.18474 1.80951,0 3.20887,1.23047 3.20887,2.77459 0,1.36316 -0.55492,2.27998 -2.67808,4.48759 l -6.28505,6.40568 v 1.83364 h 11.9066 v -2.27999 h -8.26344 v -0.0603 l 4.35489,-4.37903 c 2.54539,-2.6057 3.63109,-4.11363 3.63109,-6.14028 0,-2.76253 -2.473,-4.87363 -5.79044,-4.87363 -3.4622,0 -5.98346,2.29206 -5.98346,5.42855 z m 20.73703,12.63041 c 3.8603,0 6.58663,-2.07491 6.58663,-5.03045 0,-2.20761 -1.55618,-3.993 -3.87236,-4.47554 v -0.0603 c 1.93015,-0.55492 3.16062,-2.05079 3.16062,-3.89649 0,-2.66602 -2.44888,-4.59617 -5.87489,-4.59617 -3.41395,0 -5.88695,1.94222 -5.88695,4.58411 0,1.86983 1.24253,3.37776 3.17268,3.90855 v 0.0603 c -2.30411,0.48254 -3.87236,2.25587 -3.87236,4.47554 0,2.94347 2.70221,5.03045 6.58663,5.03045 z m 0,-2.17142 c -2.21967,0 -3.79998,-1.27872 -3.79998,-3.05205 0,-1.78539 1.58031,-3.07617 3.79998,-3.07617 2.21967,0 3.78792,1.27872 3.78792,3.07617 0,1.77333 -1.56825,3.05205 -3.78792,3.05205 z m 0,-8.29964 c -1.89396,0 -3.20887,-1.13396 -3.20887,-2.71427 0,-1.59237 1.31491,-2.72634 3.20887,-2.72634 1.8819,0 3.20887,1.13397 3.20887,2.72634 0,1.58031 -1.33904,2.71427 -3.20887,2.71427 z"
       id="text255"
       style="font-weight:500;font-size:24.7059px;font-family:'SF Pro Display';-inkscape-font-specification:'SF Pro Display Medium';fill:#373735;stroke-width:1.93748"
       aria-label="28" /><path
       d="m 942.65867,719.02154 v 0.0241 h 2.55745 v -0.0362 c 0,-1.80951 1.43555,-3.18474 3.34157,-3.18474 1.80951,0 3.20887,1.23047 3.20887,2.77459 0,1.36316 -0.55492,2.27998 -2.67808,4.48759 l -6.28504,6.40568 v 1.83364 h 11.9066 v -2.27998 h -8.26345 v -0.0603 l 4.3549,-4.37903 c 2.54538,-2.6057 3.63109,-4.11363 3.63109,-6.14028 0,-2.76253 -2.473,-4.87363 -5.79045,-4.87363 -3.4622,0 -5.98346,2.29206 -5.98346,5.42855 z m 20.29069,12.63041 c 4.36696,0 6.94853,-3.45014 6.94853,-9.27678 0,-2.03872 -0.3619,-3.75173 -1.07364,-5.13902 -1.1219,-2.34031 -3.19681,-3.65522 -5.77838,-3.65522 -3.67935,0 -6.35743,2.53332 -6.35743,6.01965 0,3.30538 2.473,5.75426 5.77838,5.75426 2.2438,0 4.07744,-1.13397 4.77712,-2.84697 0,0 0.0121,0 0.0121,0 0,0 0.0121,0 0.0121,0 0.0121,0 0.0241,0 0.0241,0 0,4.39108 -1.59237,6.90028 -4.30664,6.90028 -1.60444,0 -2.93141,-0.95301 -3.34157,-2.3765 h -2.71427 c 0.51873,2.76253 2.91935,4.6203 6.01965,4.6203 z m 0.0965,-8.50472 c -2.1111,0 -3.66728,-1.54412 -3.66728,-3.63109 0,-2.02666 1.62856,-3.63109 3.70347,-3.63109 2.07491,0 3.69141,1.61649 3.69141,3.67934 0,2.05078 -1.59238,3.58284 -3.7276,3.58284 z"
       id="text256"
       style="font-weight:500;font-size:24.7059px;font-family:'SF Pro Display';-inkscape-font-specification:'SF Pro Display Medium';fill:#373735;stroke-width:1.93748"
       aria-label="29" /><path
       d="m 986.44407,722.86788 h 2.17142 c 2.29205,0 3.71554,1.15809 3.71554,3.03999 0,1.70094 -1.52,2.90728 -3.64316,2.90728 -2.19554,0 -3.57077,-1.14602 -3.73966,-2.81078 h -2.59364 c 0.16889,3.0038 2.58158,5.06664 6.3333,5.06664 3.63109,0 6.39362,-2.08697 6.39362,-5.12695 0,-2.43682 -1.68888,-4.04125 -4.30665,-4.2222 v -0.0483 c 2.15936,-0.38603 3.58284,-1.94221 3.58284,-4.11363 0,-2.67808 -2.40062,-4.54791 -5.69394,-4.54791 -3.45014,0 -5.75425,1.96634 -5.95933,5.01839 h 2.54538 c 0.15683,-1.71301 1.41143,-2.79872 3.29332,-2.79872 2.06285,0 3.17268,1.07365 3.17268,2.69015 0,1.64062 -1.29078,2.82284 -3.17268,2.82284 h -2.09904 z m 17.51613,8.20313 c 4.1739,0 6.6228,-3.51045 6.6228,-9.05963 0,-5.51299 -2.4609,-8.99932 -6.6228,-8.99932 -4.14985,0 -6.64698,3.4984 -6.64698,9.01138 0,5.54918 2.47301,9.04757 6.64698,9.04757 z m 0,-2.26792 c -2.4851,0 -3.9086,-2.58158 -3.9086,-6.77965 0,-4.13775 1.4476,-6.74345 3.9086,-6.74345 2.4609,0 3.8965,2.59363 3.8965,6.74345 0,4.21014 -1.4115,6.77965 -3.8965,6.77965 z"
       id="text257"
       style="font-weight:500;font-size:24.7059px;font-family:'SF Pro Display';-inkscape-font-specification:'SF Pro Display Medium';fill:#373735;stroke-width:1.93748"
       aria-label="30" /><path
       d="m 1028.3883,723.21651 h 2.1715 c 2.292,0 3.7155,1.15809 3.7155,3.03999 0,1.70094 -1.52,2.90728 -3.6432,2.90728 -2.1955,0 -3.5707,-1.14602 -3.7396,-2.81077 h -2.5937 c 0.1689,3.00379 2.5816,5.06664 6.3333,5.06664 3.6311,0 6.3937,-2.08698 6.3937,-5.12696 0,-2.43681 -1.6889,-4.04125 -4.3067,-4.2222 v -0.0482 c 2.1594,-0.38603 3.5829,-1.94222 3.5829,-4.11363 0,-2.67808 -2.4007,-4.54792 -5.694,-4.54792 -3.4501,0 -5.7542,1.96634 -5.9593,5.01839 h 2.5454 c 0.1568,-1.71301 1.4114,-2.79872 3.2933,-2.79872 2.0628,0 3.1727,1.07365 3.1727,2.69015 0,1.64063 -1.2908,2.82284 -3.1727,2.82284 h -2.0991 z m 15.5739,7.87742 h 2.6419 v -17.40752 h -2.666 l -4.5841,3.25712 v 2.65396 l 4.5479,-3.233 h 0.06 z"
       id="text258"
       style="font-weight:500;font-size:24.7059px;font-family:'SF Pro Display';-inkscape-font-specification:'SF Pro Display Medium';fill:#373735;stroke-width:1.93748"
       aria-label="31" /></g></svg>
